{"glyphs":{"0":{"ha":694,"x_min":72,"x_max":622,"o":"m 347 -11 q 272 -4 310 -11 q 201 21 235 3 q 142 67 168 39 q 101 131 117 96 q 78 203 85 165 q 72 278 72 240 l 72 743 q 78 818 72 781 q 101 890 85 856 q 142 953 117 925 q 201 1000 168 982 q 272 1025 235 1018 q 347 1032 310 1032 q 422 1025 385 1032 q 493 1000 460 1018 q 552 953 526 982 q 594 890 578 925 q 616 818 610 856 q 622 743 622 781 l 622 278 q 616 203 622 240 q 594 131 610 165 q 552 67 578 96 q 493 21 526 39 q 422 -4 460 3 q 347 -11 385 -11 m 211 469 l 483 685 l 483 743 q 476 804 483 774 q 452 859 469 835 q 406 897 435 883 q 347 910 378 910 q 288 897 317 910 q 242 859 260 883 q 218 804 225 835 q 211 743 211 774 l 211 469 m 347 111 q 406 124 378 111 q 452 162 435 138 q 476 217 469 186 q 483 278 483 247 l 483 551 l 211 336 l 211 278 q 218 217 211 247 q 242 162 225 186 q 288 124 260 138 q 347 111 317 111 z "},"1":{"ha":694,"x_min":76,"x_max":458,"o":"m 319 0 l 319 878 l 153 733 l 76 811 l 319 1021 l 458 1021 l 458 0 l 319 0 z "},"2":{"ha":694,"x_min":81,"x_max":617,"o":"m 83 0 l 83 1 q 85 75 83 38 q 91 149 86 113 q 107 220 96 185 q 134 289 118 256 q 171 352 150 322 q 217 409 192 382 q 269 460 242 436 q 327 506 297 483 q 385 551 357 528 q 435 605 414 575 q 467 671 456 635 q 478 743 478 707 q 472 803 478 774 q 449 857 465 832 q 406 896 433 882 q 349 910 378 910 q 295 899 321 910 q 252 868 269 889 q 227 821 235 847 q 219 767 219 794 l 219 761 l 81 761 l 81 771 q 88 842 81 807 q 113 907 96 876 q 155 963 129 938 q 212 1003 181 988 q 278 1026 243 1019 q 349 1032 314 1032 q 423 1024 386 1032 q 492 999 460 1017 q 550 952 525 981 q 590 890 575 924 q 611 818 606 856 q 617 743 617 781 q 604 650 617 696 q 566 564 592 604 q 506 491 540 524 q 434 428 471 458 q 363 367 397 399 q 300 296 328 335 q 254 213 272 257 q 229 122 236 169 l 611 122 l 611 0 l 83 0 z "},"3":{"ha":694,"x_min":69,"x_max":633,"o":"m 351 -11 q 279 -6 315 -11 q 210 16 243 0 q 149 56 176 32 q 105 113 122 81 q 78 180 88 144 q 69 251 69 215 l 69 260 l 208 260 l 208 256 q 218 199 208 226 q 247 150 228 171 q 294 120 267 129 q 351 111 322 111 q 411 123 382 111 q 459 159 440 135 q 486 214 478 183 q 494 275 494 244 q 489 327 494 301 q 471 376 483 353 q 440 418 458 400 q 397 447 421 436 q 347 461 374 458 q 294 464 321 464 l 294 586 q 342 589 318 586 q 387 601 365 592 q 425 628 408 611 q 452 667 442 646 q 467 713 463 689 q 472 760 472 736 q 466 813 472 786 q 444 863 460 840 q 404 898 429 886 q 351 910 379 910 q 300 899 325 910 q 260 867 275 888 q 238 819 244 846 q 231 768 231 793 l 231 761 l 92 761 l 92 772 q 99 841 92 807 q 122 906 107 875 q 162 962 138 936 q 217 1003 186 988 q 283 1026 249 1019 q 351 1032 317 1032 q 422 1025 386 1032 q 488 1001 457 1018 q 542 958 518 985 q 582 900 567 932 q 604 833 597 868 q 611 764 611 799 q 603 692 611 728 q 578 626 594 657 q 535 569 561 594 q 476 526 508 543 q 544 484 514 511 q 594 423 574 457 q 624 350 614 389 q 633 272 633 311 q 625 197 633 233 q 600 126 617 160 q 557 65 583 93 q 497 20 531 38 q 426 -4 464 3 q 351 -11 389 -11 z "},"4":{"ha":694,"x_min":72,"x_max":611,"o":"m 392 0 l 392 261 l 72 261 l 72 382 l 383 1021 l 524 1021 l 211 382 l 392 382 l 392 604 l 532 604 l 532 382 l 611 382 l 611 261 l 532 261 l 532 0 l 392 0 z "},"5":{"ha":694,"x_min":81,"x_max":622,"o":"m 350 -11 q 281 -5 315 -11 q 216 17 247 1 q 159 57 185 32 q 117 112 133 82 q 91 176 100 142 q 81 244 82 210 l 221 244 q 231 194 222 219 q 258 149 240 168 q 300 120 275 129 q 350 111 325 111 q 396 121 374 111 q 434 149 418 131 q 459 188 450 167 q 474 233 468 210 q 481 279 479 256 q 483 326 483 303 q 481 374 483 350 q 474 420 479 397 q 460 465 469 443 q 437 504 451 486 q 400 533 422 522 q 356 543 378 543 q 311 538 333 543 q 272 519 289 532 q 244 485 254 506 q 233 443 235 465 l 94 443 l 94 1021 l 585 1021 l 585 899 l 233 899 l 233 644 q 293 660 263 656 q 356 664 324 664 q 435 653 396 664 q 508 619 475 643 q 563 560 540 594 q 599 487 586 525 q 617 408 613 449 q 622 326 622 368 q 617 245 622 286 q 599 165 613 204 q 562 92 585 126 q 506 34 539 58 q 432 -1 472 10 q 350 -11 392 -11 z "},"6":{"ha":694,"x_min":72,"x_max":622,"o":"m 347 -11 q 267 -2 307 -11 q 194 29 228 7 q 137 84 161 51 q 98 154 113 117 q 78 231 83 192 q 72 311 72 271 q 83 432 72 372 q 113 549 93 492 q 157 663 132 607 q 208 772 182 718 l 331 1021 l 482 1021 l 333 718 q 300 649 317 683 q 269 578 283 614 q 331 619 294 606 q 406 633 368 633 q 477 621 442 633 q 538 583 513 608 q 581 524 564 557 q 606 456 597 490 q 619 384 615 421 q 622 311 622 347 q 617 231 622 271 q 597 154 611 192 q 558 84 582 117 q 500 29 533 51 q 427 -2 467 7 q 347 -11 388 -11 m 347 111 q 392 119 369 111 q 430 142 414 126 q 456 179 446 158 q 473 222 467 200 q 481 266 479 243 q 483 311 483 289 q 481 356 483 333 q 473 401 479 379 q 456 444 467 424 q 430 480 446 464 q 392 503 414 496 q 347 511 369 511 q 307 505 326 511 q 272 485 288 499 q 244 455 256 472 q 227 418 233 438 q 217 378 221 399 q 213 338 214 358 q 212 324 213 331 q 211 311 211 318 q 213 266 211 289 q 222 222 215 243 q 238 179 228 200 q 265 142 249 158 q 303 119 281 126 q 347 111 325 111 z "},"7":{"ha":694,"x_min":83,"x_max":611,"o":"m 192 0 l 467 899 l 83 899 l 83 1021 l 611 1021 l 611 899 l 336 0 l 192 0 z "},"8":{"ha":694,"x_min":72,"x_max":622,"o":"m 347 -11 q 278 -6 313 -11 q 211 14 243 0 q 152 51 179 28 q 108 105 125 75 q 81 169 90 135 q 72 239 72 203 q 85 323 72 282 q 122 401 99 364 q 176 467 146 438 q 242 525 207 497 q 184 579 211 550 q 137 642 157 608 q 106 715 117 676 q 94 792 94 753 q 102 858 94 825 q 126 919 110 890 q 166 970 142 947 q 219 1007 190 993 q 281 1026 249 1021 q 347 1032 314 1032 q 413 1026 381 1032 q 475 1007 446 1021 q 528 970 504 993 q 569 919 553 947 q 592 858 585 890 q 600 792 600 825 q 589 715 600 753 q 558 642 578 676 q 510 579 538 608 q 453 525 483 550 q 518 467 488 497 q 572 401 549 438 q 609 323 596 364 q 622 239 622 282 q 613 169 622 203 q 587 105 604 135 q 542 51 569 75 q 483 14 515 28 q 417 -6 451 0 q 347 -11 382 -11 m 347 603 q 390 641 369 621 q 426 685 410 661 q 451 735 442 708 q 461 790 461 763 q 454 837 461 814 q 431 877 447 860 q 393 902 415 894 q 347 910 371 910 q 301 902 324 910 q 263 877 279 894 q 240 837 247 860 q 233 790 233 814 q 243 735 233 763 q 269 685 253 708 q 305 641 285 661 q 347 603 325 621 m 347 111 q 400 119 374 111 q 445 144 426 126 q 474 188 464 163 q 483 240 483 214 q 472 302 483 272 q 440 358 460 332 q 397 404 421 383 q 347 444 372 425 q 298 404 322 425 q 254 358 274 383 q 223 302 235 332 q 211 240 211 272 q 221 188 211 214 q 249 144 231 163 q 294 119 268 126 q 347 111 321 111 z "},"9":{"ha":694,"x_min":72,"x_max":622,"o":"m 364 0 l 213 0 l 361 303 q 394 372 378 338 q 425 443 411 407 q 363 401 400 415 q 289 388 326 388 q 217 400 253 388 q 156 438 182 413 q 114 497 131 464 q 88 565 97 531 q 76 637 79 600 q 72 710 72 674 q 78 790 72 750 q 98 867 83 829 q 137 937 113 904 q 194 992 161 969 q 267 1023 228 1014 q 347 1032 307 1032 q 427 1023 388 1032 q 500 992 467 1014 q 558 937 533 969 q 597 867 582 904 q 617 790 611 829 q 622 710 622 750 q 612 589 622 649 q 582 472 601 529 q 538 358 563 414 q 486 249 513 303 l 364 0 m 347 510 q 388 516 368 510 q 423 535 407 522 q 450 566 439 549 q 467 603 461 583 q 477 642 474 622 q 482 683 481 663 q 483 697 482 690 q 483 710 483 703 q 481 755 483 732 q 473 799 479 778 q 456 842 467 821 q 430 878 446 863 q 392 902 414 894 q 347 910 369 910 q 303 902 325 910 q 265 878 281 894 q 238 842 249 863 q 222 799 228 821 q 213 755 215 778 q 211 710 211 732 q 213 665 211 688 q 222 619 215 642 q 238 577 228 597 q 265 541 249 557 q 303 517 281 525 q 347 510 325 510 z "},"\r":{"ha":0,"x_min":0,"x_max":0,"o":""}," ":{"ha":694,"x_min":0,"x_max":0,"o":""},"!":{"ha":694,"x_min":232,"x_max":463,"o":"m 278 369 l 278 1021 l 417 1021 l 417 369 l 278 369 m 347 -11 q 301 -4 324 -11 q 263 19 279 3 q 239 58 246 36 q 232 104 232 81 q 239 151 232 128 q 263 190 246 174 q 301 213 279 206 q 347 219 324 219 q 393 213 371 219 q 432 190 415 206 q 456 151 449 174 q 463 104 463 128 q 456 58 463 81 q 432 19 449 36 q 393 -4 415 3 q 347 -11 371 -11 z "},"\"":{"ha":694,"x_min":132,"x_max":563,"o":"m 142 614 q 135 842 138 728 q 132 1072 132 957 l 285 1072 q 282 842 285 957 q 275 614 279 728 l 142 614 m 419 614 q 413 842 415 728 q 410 1072 410 957 l 563 1072 q 560 842 563 957 q 553 614 557 728 l 419 614 z "},"#":{"ha":694,"x_min":28,"x_max":667,"o":"m 142 25 l 142 256 l 28 256 l 28 378 l 142 378 l 142 643 l 28 643 l 28 765 l 142 765 l 142 996 l 271 996 l 271 765 l 424 765 l 424 996 l 553 996 l 553 765 l 667 765 l 667 643 l 553 643 l 553 378 l 667 378 l 667 256 l 553 256 l 553 25 l 424 25 l 424 256 l 271 256 l 271 25 l 142 25 m 424 378 l 424 643 l 271 643 l 271 378 l 424 378 z "},"$":{"ha":694,"x_min":69,"x_max":622,"o":"m 285 -150 l 285 44 q 199 71 240 50 q 127 127 157 92 q 83 207 97 163 q 69 297 69 251 l 69 310 l 208 310 l 208 303 q 214 259 208 281 q 231 219 219 238 q 260 187 243 200 q 300 168 278 174 l 300 458 q 217 506 257 479 q 148 568 178 532 q 101 649 118 604 q 83 740 83 693 q 97 824 83 783 q 138 898 111 865 q 204 950 165 931 q 285 976 243 969 l 285 1171 l 410 1171 l 410 976 q 493 948 453 969 q 561 891 533 926 q 601 812 589 856 q 614 724 614 768 l 614 711 l 475 711 l 475 718 q 470 760 475 739 q 456 799 465 781 q 431 831 446 817 q 394 851 415 844 l 394 567 q 480 521 439 547 q 553 458 521 494 q 603 375 585 421 q 622 281 622 329 q 608 195 622 238 q 563 120 593 153 q 493 69 533 88 q 410 44 453 50 l 410 -150 l 285 -150 m 300 614 l 300 851 q 267 835 282 846 q 242 810 253 825 q 227 776 232 794 q 222 740 222 758 q 228 702 222 721 q 244 667 233 683 q 269 637 254 650 q 300 614 283 624 m 394 168 q 431 183 414 172 q 459 209 447 193 q 477 244 471 225 q 483 282 483 263 q 476 323 483 303 q 458 360 469 343 q 429 390 446 376 q 394 414 413 404 l 394 168 z "},"%":{"ha":694,"x_min":31,"x_max":664,"o":"m 194 500 q 131 508 163 500 q 76 536 100 515 q 42 588 53 557 q 31 650 31 618 l 31 882 q 42 944 31 914 q 76 995 53 975 q 131 1024 100 1015 q 194 1032 163 1032 q 258 1024 226 1032 q 313 995 289 1015 q 347 944 336 975 q 358 882 358 914 l 358 650 q 347 588 358 618 q 313 536 336 557 q 258 508 289 515 q 194 500 226 500 m 400 599 l 515 1021 l 653 1021 l 521 599 l 400 599 m 194 601 q 213 604 204 601 q 229 614 222 607 q 239 631 236 621 q 242 650 242 640 l 242 882 q 239 901 242 892 q 229 917 236 910 q 213 926 222 924 q 194 929 204 929 q 176 926 185 929 q 160 917 167 924 q 150 901 153 910 q 147 882 147 892 l 147 650 q 150 631 147 640 q 160 614 153 621 q 176 604 167 607 q 194 601 185 601 m 500 -11 q 437 -3 468 -11 q 382 26 406 6 q 347 76 358 46 q 336 139 336 107 l 336 371 q 347 433 336 403 q 382 485 358 464 q 437 513 406 506 q 500 521 468 521 q 563 513 532 521 q 618 485 594 506 q 653 433 642 464 q 664 371 664 403 l 664 139 q 653 76 664 107 q 618 26 642 46 q 563 -3 594 6 q 500 -11 532 -11 m 179 0 l 42 0 l 174 422 l 294 422 l 179 0 m 500 92 q 519 94 510 92 q 535 104 528 97 q 544 120 542 111 q 547 139 547 129 l 547 371 q 544 390 547 381 q 535 407 542 400 q 519 417 528 414 q 500 419 510 419 q 481 417 490 419 q 465 407 472 414 q 456 390 458 400 q 453 371 453 381 l 453 139 q 456 120 453 129 q 465 104 458 111 q 481 94 472 97 q 500 92 490 92 z "},"&":{"ha":694,"x_min":72,"x_max":679,"o":"m 314 -11 q 245 -3 279 -11 q 183 24 211 6 q 133 72 154 43 q 98 132 111 100 q 78 198 85 164 q 72 267 72 232 q 82 346 72 307 q 111 420 92 385 q 157 486 131 456 q 214 543 183 517 l 214 544 l 213 544 q 176 606 194 575 q 142 669 157 636 q 119 737 128 701 q 110 807 110 772 q 124 894 110 851 q 167 970 138 938 q 238 1017 196 1003 q 325 1032 281 1032 q 412 1017 369 1032 q 484 970 454 1003 q 527 894 514 938 q 540 807 540 851 q 528 723 540 764 q 493 645 515 682 q 440 578 471 608 q 378 519 410 547 q 385 507 382 514 q 393 494 389 500 l 497 315 l 546 440 l 678 440 l 592 221 q 583 200 588 210 q 575 181 579 190 l 679 0 l 532 0 l 486 78 q 431 23 464 46 q 358 -7 397 0 l 356 -8 l 346 -10 q 330 -10 338 -10 q 314 -11 322 -11 m 311 625 q 348 663 331 643 q 379 706 365 683 q 401 754 393 729 q 408 806 408 779 q 404 844 408 825 q 390 881 400 864 q 362 907 379 897 q 325 917 344 917 q 288 907 306 917 q 260 881 271 897 q 246 844 250 864 q 242 806 242 825 q 248 757 242 781 q 264 710 254 733 q 286 667 274 688 q 311 625 299 646 m 331 104 q 361 109 346 104 q 390 123 376 114 q 414 144 403 132 q 433 169 425 156 l 279 435 q 225 357 246 400 q 204 267 204 314 q 207 228 204 247 q 216 192 210 210 q 233 157 222 174 q 258 128 243 140 q 292 110 274 115 q 331 104 311 104 z "},"'":{"ha":694,"x_min":271,"x_max":424,"o":"m 281 614 q 274 842 276 728 q 271 1072 271 957 l 424 1072 q 421 842 424 957 q 414 614 418 728 l 281 614 z "},"(":{"ha":694,"x_min":150,"x_max":579,"o":"m 510 -224 q 397 -145 450 -190 q 303 -45 344 -100 q 231 72 261 10 q 183 201 201 135 q 158 335 165 267 q 150 472 150 404 q 158 609 150 540 q 183 744 165 678 q 231 872 201 810 q 303 990 261 935 q 397 1090 344 1044 q 510 1168 450 1135 l 579 1063 q 447 953 504 1018 q 353 808 389 888 q 303 644 318 729 q 289 472 289 558 q 303 301 289 386 q 353 136 318 215 q 447 -8 389 57 q 579 -118 504 -74 l 510 -224 z "},")":{"ha":694,"x_min":115,"x_max":544,"o":"m 185 -224 l 115 -118 q 248 -8 190 -74 q 341 136 306 57 q 391 301 376 215 q 406 472 406 386 q 391 644 406 558 q 341 808 376 729 q 248 953 306 888 q 115 1063 190 1018 l 185 1168 q 297 1090 244 1135 q 392 990 350 1044 q 463 872 433 935 q 511 744 493 810 q 537 609 529 678 q 544 472 544 540 q 537 335 544 404 q 511 201 529 267 q 463 72 493 135 q 392 -45 433 10 q 297 -145 350 -100 q 185 -224 244 -190 z "},"*":{"ha":694,"x_min":49,"x_max":646,"o":"m 232 569 l 119 642 l 258 815 l 49 874 l 92 990 l 288 917 l 278 1133 l 417 1133 l 407 917 l 603 990 l 646 874 l 436 815 l 575 642 l 463 569 l 347 744 l 232 569 z "},"+":{"ha":694,"x_min":83,"x_max":611,"o":"m 411 197 l 283 197 l 283 417 l 83 417 l 83 528 l 283 528 l 283 747 l 411 747 l 411 528 l 611 528 l 611 417 l 411 417 l 411 197 z "},",":{"ha":694,"x_min":193,"x_max":475,"o":"m 289 -299 l 193 -218 q 280 -122 240 -174 q 343 -11 319 -71 q 294 -3 318 -11 q 252 24 269 6 q 227 67 235 42 q 219 117 219 92 q 227 167 219 142 q 253 211 235 193 q 297 237 271 229 q 347 244 322 244 q 399 236 374 244 q 443 209 425 228 q 468 165 461 190 q 475 113 475 139 q 460 -1 475 56 q 420 -109 446 -57 q 361 -208 394 -161 q 289 -299 328 -256 z "},"-":{"ha":694,"x_min":83,"x_max":611,"o":"m 611 411 l 83 411 l 83 533 l 611 533 l 611 411 z "},".":{"ha":694,"x_min":219,"x_max":475,"o":"m 347 -11 q 297 -3 322 -11 q 253 22 271 4 q 227 65 235 40 q 219 117 219 90 q 227 167 219 142 q 253 211 235 193 q 297 237 271 229 q 347 244 322 244 q 398 237 372 244 q 442 211 424 229 q 467 167 460 193 q 475 117 475 142 q 467 65 475 90 q 442 22 460 40 q 398 -3 424 4 q 347 -11 372 -11 z "},"/":{"ha":694,"x_min":74,"x_max":621,"o":"m 74 -199 l 479 1143 l 621 1143 l 215 -199 l 74 -199 z "},":":{"ha":694,"x_min":219,"x_max":475,"o":"m 347 -11 q 297 -3 322 -11 q 253 22 271 4 q 227 65 235 40 q 219 117 219 90 q 227 167 219 142 q 253 211 235 193 q 297 237 271 229 q 347 244 322 244 q 398 237 372 244 q 442 211 424 229 q 467 167 460 193 q 475 117 475 142 q 467 65 475 90 q 442 22 460 40 q 398 -3 424 4 q 347 -11 372 -11 m 347 478 q 297 485 322 478 q 253 511 271 493 q 227 555 235 529 q 219 606 219 581 q 227 657 219 632 q 253 700 235 682 q 297 726 271 718 q 347 733 322 733 q 398 726 372 733 q 442 700 424 718 q 467 657 460 682 q 475 606 475 632 q 467 555 475 581 q 442 511 460 529 q 398 485 424 493 q 347 478 372 478 z "},";":{"ha":694,"x_min":193,"x_max":475,"o":"m 289 -299 l 193 -218 q 280 -122 240 -174 q 343 -11 319 -71 q 294 -3 318 -11 q 252 24 269 6 q 227 67 235 42 q 219 117 219 92 q 227 167 219 142 q 253 211 235 193 q 297 237 271 229 q 347 244 322 244 q 399 236 374 244 q 443 209 425 228 q 468 165 461 190 q 475 113 475 139 q 460 -1 475 56 q 420 -109 446 -57 q 361 -208 394 -161 q 289 -299 328 -256 m 347 478 q 297 485 322 478 q 253 511 271 493 q 227 555 235 529 q 219 606 219 581 q 227 657 219 632 q 253 700 235 682 q 297 726 271 718 q 347 733 322 733 q 398 726 372 733 q 442 700 424 718 q 467 657 460 682 q 475 606 475 632 q 467 555 475 581 q 442 511 460 529 q 398 485 424 493 q 347 478 372 478 z "},"<":{"ha":694,"x_min":83,"x_max":644,"o":"m 578 100 l 83 407 l 83 538 l 578 844 l 644 749 l 192 472 l 644 196 l 578 100 z "},"=":{"ha":694,"x_min":83,"x_max":611,"o":"m 611 543 l 83 543 l 83 656 l 611 656 l 611 543 m 611 289 l 83 289 l 83 401 l 611 401 l 611 289 z "},">":{"ha":694,"x_min":50,"x_max":611,"o":"m 117 100 l 50 196 l 503 472 l 50 749 l 117 844 l 611 538 l 611 407 l 117 100 z "},"?":{"ha":694,"x_min":81,"x_max":611,"o":"m 278 313 q 280 378 278 346 q 290 442 282 411 q 314 503 299 474 q 348 559 329 532 q 388 610 367 586 q 428 662 410 635 q 460 719 447 689 q 472 782 472 750 q 464 833 472 808 q 438 875 456 857 q 396 901 421 893 q 346 910 371 910 q 294 900 319 910 q 251 869 268 890 q 227 822 235 849 q 219 769 219 796 l 219 761 l 81 761 l 81 775 q 88 844 81 810 q 113 910 96 879 q 154 965 129 940 q 210 1004 179 989 q 276 1026 242 1019 q 346 1032 311 1032 q 415 1026 381 1032 q 480 1006 449 1021 q 537 968 511 992 q 579 915 563 944 q 603 851 596 885 q 611 782 611 817 q 604 718 611 750 q 585 656 597 686 q 557 597 574 625 q 521 543 540 569 q 480 492 501 517 q 443 440 458 468 q 422 378 428 411 q 417 313 417 346 l 278 313 m 347 -11 q 301 -4 324 -11 q 263 19 279 3 q 239 58 246 36 q 232 104 232 81 q 239 151 232 128 q 263 190 246 174 q 301 213 279 206 q 347 219 324 219 q 393 213 371 219 q 432 190 415 206 q 456 151 449 174 q 463 104 463 128 q 456 58 463 81 q 432 19 449 36 q 393 -4 415 3 q 347 -11 371 -11 z "},"@":{"ha":694,"x_min":83,"x_max":611,"o":"m 550 -110 l 347 -110 q 273 -102 310 -110 q 204 -76 236 -94 q 148 -29 172 -58 q 109 34 124 0 q 89 105 94 68 q 83 179 83 142 l 83 765 q 89 840 83 803 q 109 910 94 876 q 148 974 124 944 q 204 1022 172 1003 q 273 1047 236 1040 q 347 1054 310 1054 q 421 1047 385 1054 q 489 1022 457 1040 q 545 974 521 1003 q 584 913 569 946 q 605 842 599 879 q 611 769 611 806 l 611 318 q 608 269 611 293 q 597 222 606 244 q 575 178 589 199 q 541 144 561 158 q 497 124 521 131 q 449 118 474 118 q 401 124 425 118 q 357 144 376 131 q 323 178 338 158 q 301 222 308 199 q 290 269 293 244 q 286 318 286 293 l 286 569 q 290 619 286 594 q 302 667 293 644 q 326 710 311 690 q 361 744 340 731 q 406 763 382 757 q 456 769 431 769 l 494 769 q 486 831 494 800 q 458 886 478 863 q 408 922 439 910 q 347 933 378 933 q 285 922 315 933 q 235 885 256 910 q 208 828 215 860 q 200 765 200 797 l 200 179 q 208 116 200 147 q 235 60 215 85 q 285 23 256 35 q 347 11 315 11 l 550 11 l 550 -110 m 449 221 q 474 233 464 221 q 488 259 483 244 q 493 288 492 274 q 494 318 494 303 l 494 667 l 456 667 q 428 656 440 667 q 412 630 417 644 q 405 600 407 615 q 403 569 403 585 l 403 318 q 404 288 403 303 q 410 259 406 274 q 424 233 414 244 q 449 221 433 221 z "},"A":{"ha":694,"x_min":54,"x_max":640,"o":"m 54 0 l 74 97 l 267 1021 l 428 1021 l 640 0 l 499 0 l 453 239 l 242 239 l 196 0 l 54 0 m 431 361 l 371 681 q 359 744 365 713 q 347 808 353 776 q 335 744 342 776 q 324 681 329 713 l 264 361 l 431 361 z "},"B":{"ha":694,"x_min":83,"x_max":633,"o":"m 83 0 l 83 1021 l 326 1021 q 399 1015 363 1021 q 467 992 435 1008 q 526 948 500 975 q 567 888 551 921 q 590 819 583 856 q 596 747 596 783 q 591 683 596 715 q 572 623 586 651 q 534 571 557 594 q 483 532 511 547 q 548 494 518 518 q 598 437 578 469 q 626 367 618 404 q 633 292 633 329 q 626 212 633 251 q 599 137 618 172 q 549 74 579 101 q 483 30 519 47 q 406 6 446 13 q 326 0 367 0 l 83 0 m 222 589 l 326 589 q 383 601 356 589 q 427 635 410 613 q 451 687 444 658 q 457 744 457 715 q 451 802 457 774 q 427 853 444 831 q 383 888 410 876 q 326 899 356 899 l 222 899 l 222 589 m 222 122 l 326 122 q 372 126 349 122 q 415 141 394 131 q 451 168 435 151 q 476 206 467 185 q 490 249 486 226 q 494 294 494 271 q 490 340 494 317 q 476 383 486 363 q 451 421 467 404 q 415 448 435 438 q 372 463 394 458 q 326 467 349 467 l 222 467 l 222 122 z "},"C":{"ha":694,"x_min":72,"x_max":614,"o":"m 343 -11 q 268 -4 306 -11 q 198 22 231 3 q 140 69 165 40 q 99 131 115 97 q 78 203 83 165 q 72 278 72 240 l 72 743 q 78 818 72 781 q 99 890 83 856 q 140 952 115 924 q 198 999 165 981 q 268 1025 231 1018 q 343 1032 306 1032 q 414 1026 379 1032 q 481 1004 449 1019 q 538 964 513 989 q 581 908 564 939 q 606 842 597 876 q 614 771 614 807 l 614 761 l 475 761 l 475 767 q 467 822 475 794 q 441 869 458 849 q 397 900 424 890 q 343 910 371 910 q 285 897 313 910 q 240 858 257 883 q 217 803 224 833 q 211 743 211 774 l 211 278 q 217 217 211 247 q 240 163 224 188 q 285 124 257 138 q 343 111 313 111 q 397 121 371 111 q 441 151 424 131 q 467 199 458 172 q 475 254 475 226 l 475 260 l 614 260 l 614 250 q 606 179 614 214 q 581 113 597 144 q 538 57 564 82 q 481 17 513 32 q 414 -5 449 1 q 343 -11 379 -11 z "},"D":{"ha":694,"x_min":83,"x_max":622,"o":"m 83 0 l 83 1021 l 306 1021 q 389 1014 347 1021 q 468 989 431 1007 q 537 942 506 971 q 588 877 568 914 q 615 799 607 840 q 622 715 622 757 l 622 306 q 615 222 622 264 q 588 144 607 181 q 537 78 568 107 q 468 32 506 50 q 389 7 431 14 q 306 0 347 0 l 83 0 m 222 122 l 306 122 q 353 126 329 122 q 399 142 378 131 q 438 172 421 154 q 465 212 454 190 q 479 258 475 233 q 483 306 483 282 l 483 715 q 479 763 483 739 q 465 809 475 788 q 438 849 454 831 q 399 878 421 867 q 353 894 378 890 q 306 899 329 899 l 222 899 l 222 122 z "},"E":{"ha":694,"x_min":94,"x_max":611,"o":"m 94 0 l 94 1021 l 611 1021 l 611 899 l 233 899 l 233 592 l 532 592 l 532 469 l 233 469 l 233 122 l 611 122 l 611 0 l 94 0 z "},"F":{"ha":694,"x_min":125,"x_max":611,"o":"m 125 0 l 125 1021 l 611 1021 l 611 899 l 264 899 l 264 592 l 532 592 l 532 469 l 264 469 l 264 0 l 125 0 z "},"G":{"ha":694,"x_min":72,"x_max":614,"o":"m 283 -11 q 216 -1 249 -11 q 158 31 183 10 q 116 83 133 53 q 89 144 99 113 q 76 210 79 176 q 72 278 72 244 l 72 743 q 78 818 72 781 q 99 890 83 856 q 140 952 115 924 q 198 999 165 981 q 268 1025 231 1018 q 343 1032 306 1032 q 414 1026 379 1032 q 481 1004 449 1019 q 538 964 513 989 q 581 908 564 939 q 606 842 597 876 q 614 771 614 807 l 614 761 l 475 761 l 475 767 q 467 822 475 794 q 441 869 458 849 q 397 900 424 890 q 343 910 371 910 q 285 897 313 910 q 240 858 257 883 q 217 803 224 833 q 211 743 211 774 l 211 278 q 217 219 211 249 q 240 164 224 189 q 284 125 257 139 q 342 111 311 111 q 399 125 372 111 q 443 164 426 139 q 466 219 460 189 q 472 278 472 249 l 472 439 l 347 439 l 347 561 l 611 561 l 611 0 l 483 0 l 483 165 q 458 97 474 131 q 415 39 442 64 q 354 1 389 14 q 283 -11 319 -11 z "},"H":{"ha":694,"x_min":83,"x_max":611,"o":"m 83 0 l 83 1021 l 222 1021 l 222 586 l 472 586 l 472 1021 l 611 1021 l 611 0 l 472 0 l 472 464 l 222 464 l 222 0 l 83 0 z "},"I":{"ha":694,"x_min":104,"x_max":590,"o":"m 104 0 l 104 122 l 278 122 l 278 899 l 104 899 l 104 1021 l 590 1021 l 590 899 l 417 899 l 417 122 l 590 122 l 590 0 l 104 0 z "},"J":{"ha":694,"x_min":60,"x_max":571,"o":"m 315 -11 q 247 -5 281 -11 q 182 18 213 1 q 128 60 151 35 q 89 117 104 86 q 67 181 74 147 q 60 250 60 215 l 60 260 l 199 260 l 199 254 q 205 202 199 228 q 226 155 211 176 q 265 122 242 133 q 315 111 289 111 q 353 117 335 111 q 385 137 371 124 q 408 167 399 150 q 422 202 417 183 q 430 240 428 221 q 432 278 432 258 l 432 899 l 258 899 l 258 1021 l 571 1021 l 571 278 q 566 205 571 242 q 547 135 561 168 q 510 72 533 101 q 455 24 486 43 q 388 -3 424 4 q 315 -11 351 -11 z "},"K":{"ha":694,"x_min":106,"x_max":631,"o":"m 481 0 l 293 424 l 244 338 l 244 0 l 106 0 l 106 1021 l 244 1021 l 244 582 l 476 1021 l 631 1021 l 368 557 l 631 0 l 481 0 z "},"L":{"ha":694,"x_min":125,"x_max":619,"o":"m 125 0 l 125 1021 l 264 1021 l 264 122 l 619 122 l 619 0 l 125 0 z "},"M":{"ha":694,"x_min":61,"x_max":633,"o":"m 61 0 l 61 1021 l 218 1021 l 347 507 l 476 1021 l 633 1021 l 633 0 l 501 0 l 501 204 q 503 351 501 278 q 507 499 504 425 q 514 646 510 572 q 521 793 518 719 l 399 307 l 296 307 l 174 793 q 181 646 176 719 q 188 499 185 572 q 192 351 190 425 q 193 204 193 278 l 193 0 l 61 0 z "},"N":{"ha":694,"x_min":83,"x_max":611,"o":"m 83 0 l 83 1021 l 236 1021 l 493 242 q 485 334 489 288 q 477 427 481 381 q 473 520 474 474 q 472 613 472 567 l 472 1021 l 611 1021 l 611 0 l 458 0 l 201 779 q 210 687 206 733 q 217 594 214 640 q 222 501 221 547 q 222 408 222 454 l 222 0 l 83 0 z "},"O":{"ha":694,"x_min":72,"x_max":622,"o":"m 347 -11 q 272 -4 310 -11 q 201 21 235 3 q 142 67 168 39 q 101 131 117 96 q 78 203 85 165 q 72 278 72 240 l 72 743 q 78 818 72 781 q 101 890 85 856 q 142 953 117 925 q 201 1000 168 982 q 272 1025 235 1018 q 347 1032 310 1032 q 422 1025 385 1032 q 493 1000 460 1018 q 552 953 526 982 q 594 890 578 925 q 616 818 610 856 q 622 743 622 781 l 622 278 q 616 203 622 240 q 594 131 610 165 q 552 67 578 96 q 493 21 526 39 q 422 -4 460 3 q 347 -11 385 -11 m 347 111 q 406 124 378 111 q 452 162 435 138 q 476 217 469 186 q 483 278 483 247 l 483 743 q 476 804 483 774 q 452 859 469 835 q 406 897 435 883 q 347 910 378 910 q 288 897 317 910 q 242 859 260 883 q 218 804 225 835 q 211 743 211 774 l 211 278 q 218 217 211 247 q 242 162 225 186 q 288 124 260 138 q 347 111 317 111 z "},"P":{"ha":694,"x_min":104,"x_max":633,"o":"m 104 0 l 104 1021 l 354 1021 q 433 1013 394 1021 q 506 985 472 1004 q 565 935 539 965 q 606 867 590 904 q 628 792 622 831 q 633 714 633 753 q 628 635 633 674 q 606 560 622 596 q 565 493 590 524 q 506 442 539 463 q 433 414 472 422 q 354 406 394 406 l 243 406 l 243 0 l 104 0 m 243 528 l 354 528 q 398 534 376 528 q 436 554 419 540 q 465 587 453 568 q 483 627 476 606 q 492 670 489 649 q 494 714 494 692 q 492 757 494 735 q 483 800 489 779 q 465 840 476 821 q 436 872 453 858 q 398 892 419 886 q 354 899 376 899 l 243 899 l 243 528 z "},"Q":{"ha":694,"x_min":72,"x_max":622,"o":"m 547 -260 q 480 -253 514 -260 q 415 -233 446 -247 q 360 -194 385 -218 q 319 -139 335 -169 q 296 -75 303 -108 q 289 -7 289 -42 q 225 10 256 -3 q 169 43 194 22 q 124 91 143 64 q 92 149 104 118 q 76 212 81 179 q 72 278 72 244 l 72 743 q 78 818 72 781 q 101 890 85 856 q 142 953 117 925 q 201 1000 168 982 q 272 1025 235 1018 q 347 1032 310 1032 q 422 1025 385 1032 q 493 1000 460 1018 q 552 953 526 982 q 594 890 578 925 q 616 818 610 856 q 622 743 622 781 l 622 278 q 619 216 622 247 q 605 156 615 185 q 578 100 594 126 q 538 53 561 74 q 486 18 514 32 q 428 -3 458 4 q 434 -54 428 -29 q 457 -99 440 -79 q 498 -128 474 -118 q 547 -137 522 -137 l 583 -137 l 583 -260 l 547 -260 m 347 111 q 406 124 378 111 q 452 162 435 138 q 476 217 469 186 q 483 278 483 247 l 483 743 q 476 804 483 774 q 452 859 469 835 q 406 897 435 883 q 347 910 378 910 q 288 897 317 910 q 242 859 260 883 q 218 804 225 835 q 211 743 211 774 l 211 278 q 218 217 211 247 q 242 162 225 186 q 288 124 260 138 q 347 111 317 111 z "},"R":{"ha":694,"x_min":83,"x_max":644,"o":"m 494 0 l 306 406 l 222 406 l 222 0 l 83 0 l 83 1021 l 354 1021 q 431 1013 393 1021 q 502 983 469 1004 q 559 932 535 963 q 597 865 583 901 q 617 790 611 829 q 622 714 622 751 q 615 622 622 668 q 585 536 607 576 q 528 465 564 496 q 450 419 493 433 l 644 0 l 494 0 m 222 528 l 354 528 q 397 535 376 528 q 432 556 417 542 q 458 590 447 571 q 474 630 468 610 q 481 671 479 650 q 483 714 483 692 q 481 756 483 735 q 474 797 479 776 q 458 837 468 818 q 432 870 447 856 q 397 892 417 885 q 354 899 376 899 l 222 899 l 222 528 z "},"S":{"ha":694,"x_min":69,"x_max":622,"o":"m 346 -11 q 274 -6 310 -11 q 207 15 239 0 q 148 55 175 31 q 103 110 121 79 q 78 176 86 142 q 69 247 69 211 l 69 260 l 208 260 l 208 253 q 217 198 208 225 q 245 150 226 171 q 291 120 264 129 q 346 111 318 111 q 401 120 374 111 q 447 150 428 129 q 474 198 465 171 q 483 253 483 225 q 469 320 483 288 q 431 377 456 353 q 376 419 407 401 q 315 452 346 436 q 254 486 283 468 q 199 527 225 504 q 151 578 172 550 q 114 637 129 606 q 91 702 99 668 q 83 771 83 736 q 91 840 83 806 q 115 906 99 875 q 156 963 131 938 q 213 1003 182 988 q 279 1026 244 1019 q 349 1032 314 1032 q 418 1026 383 1032 q 484 1004 453 1019 q 540 964 515 989 q 582 908 565 939 q 606 843 599 878 q 614 774 614 808 l 614 761 l 475 761 l 475 768 q 467 821 475 794 q 443 868 460 847 q 401 899 426 889 q 349 910 375 910 q 297 900 322 910 q 254 869 271 890 q 230 822 238 849 q 222 769 222 796 q 236 702 222 735 q 274 644 250 669 q 329 602 299 619 q 390 569 360 585 q 451 535 421 553 q 506 494 481 517 q 553 444 532 471 q 591 385 575 417 q 615 320 607 354 q 622 251 622 286 q 614 180 622 215 q 588 113 606 144 q 544 57 571 82 q 485 17 518 32 q 417 -5 453 1 q 346 -11 382 -11 z "},"T":{"ha":694,"x_min":75,"x_max":619,"o":"m 278 0 l 278 899 l 75 899 l 75 1021 l 619 1021 l 619 899 l 417 899 l 417 0 l 278 0 z "},"U":{"ha":694,"x_min":83,"x_max":611,"o":"m 347 -11 q 273 -3 310 -11 q 204 23 236 4 q 148 70 172 42 q 109 133 124 99 q 89 203 94 167 q 83 278 83 240 l 83 1021 l 222 1021 l 222 278 q 224 239 222 258 q 233 201 226 219 q 249 165 239 182 q 274 135 260 147 q 308 117 289 122 q 347 111 328 111 q 386 117 367 111 q 420 135 406 122 q 445 165 435 147 q 462 201 456 182 q 470 239 468 219 q 472 278 472 258 l 472 1021 l 611 1021 l 611 278 q 606 203 611 240 q 585 133 600 167 q 547 70 571 99 q 490 23 522 42 q 422 -3 458 4 q 347 -11 385 -11 z "},"V":{"ha":694,"x_min":54,"x_max":640,"o":"m 267 0 l 54 1021 l 196 1021 l 324 340 q 335 276 329 308 q 347 213 342 244 q 359 276 353 244 q 371 340 365 308 l 499 1021 l 640 1021 l 428 0 l 267 0 z "},"W":{"ha":694,"x_min":39,"x_max":656,"o":"m 157 0 l 39 1021 l 172 1021 l 225 276 l 289 735 l 406 735 l 469 276 l 522 1021 l 656 1021 l 538 0 l 421 0 l 347 526 l 274 0 l 157 0 z "},"X":{"ha":694,"x_min":56,"x_max":639,"o":"m 56 0 l 281 510 l 56 1021 l 208 1021 l 347 675 l 486 1021 l 639 1021 l 414 510 l 639 0 l 486 0 l 347 346 l 208 0 l 56 0 z "},"Y":{"ha":694,"x_min":51,"x_max":643,"o":"m 278 0 l 278 419 l 51 1021 l 200 1021 l 347 596 l 494 1021 l 643 1021 l 417 419 l 417 0 l 278 0 z "},"Z":{"ha":694,"x_min":83,"x_max":611,"o":"m 83 0 l 83 122 l 451 899 l 83 899 l 83 1021 l 611 1021 l 611 899 l 243 122 l 611 122 l 611 0 l 83 0 z "},"[":{"ha":694,"x_min":161,"x_max":558,"o":"m 161 -199 l 161 1143 l 558 1143 l 558 1021 l 300 1021 l 300 -76 l 558 -76 l 558 -199 l 161 -199 z "},"\\":{"ha":694,"x_min":74,"x_max":621,"o":"m 479 -199 l 74 1143 l 215 1143 l 621 -199 l 479 -199 z "},"]":{"ha":694,"x_min":136,"x_max":533,"o":"m 136 -199 l 136 -76 l 394 -76 l 394 1021 l 136 1021 l 136 1143 l 533 1143 l 533 -199 l 136 -199 z "},"^":{"ha":694,"x_min":38,"x_max":657,"o":"m 160 615 l 38 688 l 274 1021 l 421 1021 l 657 688 l 535 615 l 347 907 l 160 615 z "},"_":{"ha":694,"x_min":83,"x_max":611,"o":"m 611 -122 l 83 -122 l 83 0 l 611 0 l 611 -122 z "},"`":{"ha":694,"x_min":113,"x_max":481,"o":"m 385 742 l 113 1042 l 229 1128 l 481 813 l 385 742 z "},"a":{"ha":694,"x_min":72,"x_max":611,"o":"m 282 -11 q 199 2 240 -11 q 128 45 157 15 q 85 116 99 75 q 72 200 72 157 q 81 272 72 236 q 113 335 90 307 q 166 384 135 364 q 231 415 197 404 q 301 431 265 426 q 374 435 338 435 l 472 435 l 472 492 q 464 540 472 517 q 438 581 456 564 q 395 604 419 597 q 346 611 371 611 q 301 607 324 611 q 260 590 279 603 q 231 558 242 578 q 219 515 219 538 l 219 511 l 81 511 l 81 518 q 90 581 81 550 q 118 639 100 613 q 163 684 136 665 q 220 714 190 703 q 282 729 250 725 q 346 733 314 733 q 413 728 379 733 q 478 710 447 724 q 536 674 510 696 q 580 622 563 651 q 604 559 597 593 q 611 492 611 525 l 611 0 l 472 0 l 472 115 q 442 63 461 88 q 399 20 424 38 q 343 -4 374 3 q 282 -11 313 -11 m 342 111 q 394 120 368 111 q 439 149 421 129 q 465 196 457 169 q 472 250 472 222 l 472 313 l 374 313 q 338 311 356 313 q 303 306 321 310 q 269 294 286 301 q 239 276 253 288 q 218 248 225 265 q 211 213 211 231 q 222 169 211 190 q 252 134 233 147 q 294 116 271 121 q 342 111 318 111 z "},"b":{"ha":694,"x_min":83,"x_max":622,"o":"m 411 -11 q 349 -2 381 -11 q 293 26 318 7 q 251 72 268 46 q 222 129 233 99 l 222 0 l 83 0 l 83 1021 l 222 1021 l 222 593 q 251 650 233 624 q 293 696 268 676 q 349 724 318 715 q 411 733 381 733 q 478 723 446 733 q 536 691 511 713 q 578 640 561 669 q 606 578 596 610 q 619 512 615 546 q 622 444 622 478 l 622 278 q 619 210 622 244 q 606 144 615 176 q 578 83 596 113 q 536 31 561 53 q 478 -1 511 10 q 411 -11 446 -11 m 353 111 q 410 124 383 111 q 454 163 438 138 q 477 217 471 188 q 483 278 483 247 l 483 444 q 477 505 483 475 q 454 560 471 535 q 410 598 438 585 q 353 611 383 611 q 295 598 322 611 q 251 560 268 585 q 228 505 235 535 q 222 444 222 475 l 222 278 q 228 217 222 247 q 251 163 235 188 q 295 124 268 138 q 353 111 322 111 z "},"c":{"ha":694,"x_min":72,"x_max":614,"o":"m 343 -11 q 268 -4 306 -11 q 198 22 231 3 q 140 69 165 40 q 99 131 115 97 q 78 203 83 165 q 72 278 72 240 l 72 444 q 78 519 72 482 q 99 591 83 557 q 140 653 115 625 q 198 701 165 682 q 268 726 231 719 q 343 733 306 733 q 414 727 379 733 q 481 706 449 721 q 538 665 513 690 q 581 609 564 640 q 606 543 597 578 q 614 472 614 508 l 614 463 l 475 463 l 475 468 q 467 523 475 496 q 441 571 458 550 q 397 601 424 592 q 343 611 371 611 q 285 598 313 611 q 240 560 257 585 q 217 505 224 535 q 211 444 211 475 l 211 278 q 217 217 211 247 q 240 163 224 188 q 285 124 257 138 q 343 111 313 111 q 397 121 371 111 q 441 151 424 131 q 467 199 458 172 q 475 254 475 226 l 475 260 l 614 260 l 614 250 q 606 179 614 214 q 581 113 597 144 q 538 57 564 82 q 481 17 513 32 q 414 -5 449 1 q 343 -11 379 -11 z "},"d":{"ha":694,"x_min":72,"x_max":611,"o":"m 283 -11 q 216 -1 249 -11 q 158 31 183 10 q 116 83 133 53 q 89 144 99 113 q 76 210 79 176 q 72 278 72 244 l 72 444 q 76 512 72 478 q 89 578 79 546 q 116 640 99 610 q 158 691 133 669 q 216 723 183 713 q 283 733 249 733 q 345 724 314 733 q 401 696 376 715 q 444 650 426 676 q 472 593 461 624 l 472 1021 l 611 1021 l 611 0 l 472 0 l 472 129 q 444 72 461 99 q 401 26 426 46 q 345 -2 376 7 q 283 -11 314 -11 m 342 111 q 399 124 372 111 q 443 163 426 138 q 466 217 460 188 q 472 278 472 247 l 472 444 q 466 505 472 475 q 443 560 460 535 q 399 598 426 585 q 342 611 372 611 q 284 598 311 611 q 240 560 257 585 q 217 505 224 535 q 211 444 211 475 l 211 278 q 217 217 211 247 q 240 163 224 188 q 284 124 257 138 q 342 111 311 111 z "},"e":{"ha":694,"x_min":72,"x_max":622,"o":"m 347 -11 q 272 -4 310 -11 q 201 21 235 3 q 142 67 168 39 q 101 131 117 96 q 78 203 85 165 q 72 278 72 240 l 72 444 q 78 519 72 482 q 101 592 85 557 q 142 655 117 626 q 201 701 168 683 q 272 726 235 719 q 347 733 310 733 q 422 726 385 733 q 493 701 460 719 q 552 655 526 683 q 594 592 578 626 q 616 519 610 557 q 622 444 622 482 l 622 300 l 211 300 l 211 278 q 217 217 211 247 q 242 162 224 186 q 288 124 260 138 q 347 111 317 111 q 394 115 371 111 q 436 133 417 119 q 467 167 456 146 q 481 211 479 188 l 619 211 q 610 146 619 178 q 581 87 600 114 q 534 40 561 60 q 476 9 507 21 q 413 -7 446 -3 q 347 -11 379 -11 m 483 422 l 483 444 q 476 506 483 475 q 452 560 469 536 q 406 598 435 585 q 347 611 378 611 q 288 598 317 611 q 242 560 260 585 q 218 506 225 536 q 211 444 211 475 l 211 422 l 483 422 z "},"f":{"ha":694,"x_min":83,"x_max":636,"o":"m 233 0 l 233 540 l 83 540 l 83 663 l 233 663 l 233 799 q 238 857 233 828 q 252 913 242 886 q 281 964 263 940 q 324 1003 299 988 q 377 1026 349 1019 q 435 1032 406 1032 q 515 1019 475 1032 q 582 978 554 1007 q 623 910 610 949 q 636 831 636 871 l 636 826 l 497 826 l 497 828 q 494 857 497 843 q 483 883 490 871 q 463 903 475 896 q 435 910 450 910 q 403 897 417 910 q 383 868 390 885 q 374 834 376 851 q 372 799 372 817 l 372 663 l 585 663 l 585 540 l 372 540 l 372 0 l 233 0 z "},"g":{"ha":694,"x_min":72,"x_max":611,"o":"m 344 -310 q 281 -306 313 -310 q 221 -291 250 -301 q 165 -262 192 -281 q 120 -219 139 -244 q 91 -164 101 -194 q 81 -101 81 -133 l 219 -101 q 233 -142 221 -124 q 263 -170 244 -160 q 302 -184 281 -181 q 344 -187 324 -187 q 383 -182 364 -187 q 418 -164 403 -176 q 444 -135 433 -151 q 461 -99 456 -118 q 469 -60 467 -81 q 472 -21 472 -40 l 472 129 q 444 72 461 99 q 401 26 426 46 q 345 -2 376 7 q 283 -11 314 -11 q 216 -1 249 -11 q 158 31 183 10 q 116 83 133 53 q 89 144 99 113 q 76 210 79 176 q 72 278 72 244 l 72 444 q 76 512 72 478 q 89 578 79 546 q 116 640 99 610 q 158 691 133 669 q 216 723 183 713 q 283 733 249 733 q 345 724 314 733 q 401 696 376 715 q 444 650 426 676 q 472 593 461 624 l 472 722 l 611 722 l 611 -21 q 606 -95 611 -58 q 585 -166 600 -132 q 544 -229 569 -200 q 488 -276 519 -258 q 419 -302 456 -294 q 344 -310 382 -310 m 342 111 q 399 124 372 111 q 443 163 426 138 q 466 217 460 188 q 472 278 472 247 l 472 444 q 466 505 472 475 q 443 560 460 535 q 399 598 426 585 q 342 611 372 611 q 284 598 311 611 q 240 560 257 585 q 217 505 224 535 q 211 444 211 475 l 211 278 q 217 217 211 247 q 240 163 224 188 q 284 124 257 138 q 342 111 311 111 z "},"h":{"ha":694,"x_min":83,"x_max":611,"o":"m 83 0 l 83 1021 l 222 1021 l 222 594 q 250 650 233 624 q 291 696 267 676 q 345 724 315 715 q 406 733 375 733 q 472 723 439 733 q 528 690 504 713 q 569 638 553 668 q 595 576 586 608 q 608 511 604 544 q 611 444 611 478 l 611 0 l 472 0 l 472 444 q 470 483 472 464 q 462 522 468 503 q 445 558 456 540 q 420 588 435 575 q 386 606 406 600 q 347 611 367 611 q 308 606 328 611 q 274 588 289 600 q 249 558 260 575 q 233 522 239 540 q 224 483 226 503 q 222 444 222 464 l 222 0 l 83 0 z "},"i":{"ha":694,"x_min":104,"x_max":590,"o":"m 104 0 l 104 122 l 288 122 l 288 600 l 124 600 l 124 722 l 426 722 l 426 122 l 590 122 l 590 0 l 104 0 m 354 826 q 313 833 333 826 q 277 853 292 839 q 256 889 263 868 q 250 931 250 910 q 256 972 250 951 q 277 1008 263 993 q 313 1028 292 1022 q 354 1035 333 1035 q 396 1028 375 1035 q 431 1008 417 1022 q 452 972 446 993 q 458 931 458 951 q 452 889 458 910 q 431 853 446 868 q 396 833 417 839 q 354 826 375 826 z "},"j":{"ha":694,"x_min":13,"x_max":529,"o":"m 257 -310 q 195 -305 226 -310 q 135 -286 164 -300 q 82 -251 106 -272 q 43 -202 58 -229 q 20 -144 28 -175 q 13 -81 13 -112 l 151 -81 q 158 -123 151 -103 q 180 -158 165 -143 q 215 -181 194 -174 q 257 -187 236 -187 q 294 -181 276 -187 q 324 -160 311 -174 q 345 -130 338 -147 q 358 -94 353 -112 q 364 -58 363 -76 q 365 -21 365 -39 l 365 600 l 192 600 l 192 722 l 504 722 l 504 -21 q 499 -92 504 -57 q 481 -162 494 -128 q 447 -225 468 -196 q 394 -274 425 -254 q 328 -301 364 -293 q 257 -310 293 -310 m 424 826 q 382 833 403 826 q 347 853 361 839 q 326 889 332 868 q 319 931 319 910 q 326 972 319 951 q 347 1008 332 993 q 382 1028 361 1022 q 424 1035 403 1035 q 465 1028 444 1035 q 501 1008 486 1022 q 522 972 515 993 q 528 931 528 951 q 522 889 528 910 q 501 853 515 868 q 465 833 486 839 q 424 826 444 826 z "},"k":{"ha":694,"x_min":106,"x_max":629,"o":"m 472 0 l 306 286 l 244 204 l 244 0 l 106 0 l 106 1021 l 244 1021 l 244 403 l 467 722 l 629 722 l 383 392 l 629 0 l 472 0 z "},"l":{"ha":694,"x_min":104,"x_max":590,"o":"m 104 0 l 104 122 l 288 122 l 288 899 l 124 899 l 124 1021 l 426 1021 l 426 122 l 590 122 l 590 0 l 104 0 z "},"m":{"ha":694,"x_min":61,"x_max":633,"o":"m 61 0 l 61 722 l 186 722 l 186 653 q 201 684 192 669 q 223 710 210 699 q 253 728 236 722 q 288 733 271 733 q 330 725 310 733 q 364 701 350 717 q 387 665 378 685 q 401 624 396 644 q 414 664 406 644 q 436 699 422 683 q 470 724 450 715 q 511 733 490 733 q 553 724 533 733 q 588 699 574 715 q 611 664 603 683 q 624 623 619 644 q 631 581 629 601 q 633 538 633 560 l 633 0 l 508 0 l 508 538 q 507 565 508 551 q 500 592 506 579 q 484 615 494 606 q 460 625 474 625 q 435 615 446 625 q 418 592 424 606 q 411 565 413 579 q 410 538 410 551 l 410 0 l 285 0 l 285 538 q 283 565 285 551 q 276 592 282 579 q 260 615 271 606 q 235 625 249 625 q 210 615 221 625 q 194 592 200 606 q 188 565 189 579 q 186 538 186 551 l 186 0 l 61 0 z "},"n":{"ha":694,"x_min":83,"x_max":611,"o":"m 83 0 l 83 722 l 222 722 l 222 594 q 250 650 233 624 q 291 696 267 676 q 345 724 315 715 q 406 733 375 733 q 472 723 439 733 q 528 690 504 713 q 569 638 553 668 q 595 576 586 608 q 608 511 604 544 q 611 444 611 478 l 611 0 l 472 0 l 472 444 q 470 483 472 464 q 462 522 468 503 q 445 558 456 540 q 420 588 435 575 q 386 606 406 600 q 347 611 367 611 q 308 606 328 611 q 274 588 289 600 q 249 558 260 575 q 233 522 239 540 q 224 483 226 503 q 222 444 222 464 l 222 0 l 83 0 z "},"o":{"ha":694,"x_min":72,"x_max":622,"o":"m 347 -11 q 272 -4 310 -11 q 201 21 235 3 q 142 67 168 39 q 101 131 117 96 q 78 203 85 165 q 72 278 72 240 l 72 444 q 78 519 72 482 q 101 592 85 557 q 142 655 117 626 q 201 701 168 683 q 272 726 235 719 q 347 733 310 733 q 422 726 385 733 q 493 701 460 719 q 552 655 526 683 q 594 592 578 626 q 616 519 610 557 q 622 444 622 482 l 622 278 q 616 203 622 240 q 594 131 610 165 q 552 67 578 96 q 493 21 526 39 q 422 -4 460 3 q 347 -11 385 -11 m 347 111 q 406 124 378 111 q 452 162 435 138 q 476 217 469 186 q 483 278 483 247 l 483 444 q 476 506 483 475 q 452 560 469 536 q 406 598 435 585 q 347 611 378 611 q 288 598 317 611 q 242 560 260 585 q 218 506 225 536 q 211 444 211 475 l 211 278 q 218 217 211 247 q 242 162 225 186 q 288 124 260 138 q 347 111 317 111 z "},"p":{"ha":694,"x_min":83,"x_max":622,"o":"m 83 -299 l 83 722 l 222 722 l 222 593 q 251 650 233 624 q 293 696 268 676 q 349 724 318 715 q 411 733 381 733 q 478 723 446 733 q 536 691 511 713 q 578 640 561 669 q 606 578 596 610 q 619 512 615 546 q 622 444 622 478 l 622 278 q 619 210 622 244 q 606 144 615 176 q 578 83 596 113 q 536 31 561 53 q 478 -1 511 10 q 411 -11 446 -11 q 349 -2 381 -11 q 293 26 318 7 q 251 72 268 46 q 222 129 233 99 l 222 -299 l 83 -299 m 353 111 q 410 124 383 111 q 454 163 438 138 q 477 217 471 188 q 483 278 483 247 l 483 444 q 477 505 483 475 q 454 560 471 535 q 410 598 438 585 q 353 611 383 611 q 295 598 322 611 q 251 560 268 585 q 228 505 235 535 q 222 444 222 475 l 222 278 q 228 217 222 247 q 251 163 235 188 q 295 124 268 138 q 353 111 322 111 z "},"q":{"ha":694,"x_min":72,"x_max":611,"o":"m 472 -299 l 472 129 q 444 72 461 99 q 401 26 426 46 q 345 -2 376 7 q 283 -11 314 -11 q 216 -1 249 -11 q 158 31 183 10 q 116 83 133 53 q 89 144 99 113 q 76 210 79 176 q 72 278 72 244 l 72 444 q 76 512 72 478 q 89 578 79 546 q 116 640 99 610 q 158 691 133 669 q 216 723 183 713 q 283 733 249 733 q 345 724 314 733 q 401 696 376 715 q 444 650 426 676 q 472 593 461 624 l 472 722 l 611 722 l 611 -299 l 472 -299 m 342 111 q 399 124 372 111 q 443 163 426 138 q 466 217 460 188 q 472 278 472 247 l 472 444 q 466 505 472 475 q 443 560 460 535 q 399 598 426 585 q 342 611 372 611 q 284 598 311 611 q 240 560 257 585 q 217 505 224 535 q 211 444 211 475 l 211 278 q 217 217 211 247 q 240 163 224 188 q 284 124 257 138 q 342 111 311 111 z "},"r":{"ha":694,"x_min":165,"x_max":633,"o":"m 165 0 l 165 722 l 304 722 l 304 571 q 327 631 314 601 q 361 683 340 660 q 412 720 382 707 q 474 733 442 733 q 525 726 500 733 q 570 701 550 718 q 603 660 590 683 q 622 612 615 638 q 631 560 629 586 q 633 508 633 535 l 494 508 q 492 544 494 526 q 481 577 489 561 q 456 602 472 593 q 424 611 440 611 q 378 599 400 611 q 344 566 357 586 q 324 524 332 546 q 312 478 317 501 q 306 431 307 454 q 304 383 304 407 l 304 0 l 165 0 z "},"s":{"ha":694,"x_min":81,"x_max":611,"o":"m 346 -11 q 284 -8 315 -11 q 224 6 253 -4 q 167 32 194 15 q 121 73 140 49 q 91 127 101 97 q 81 188 81 157 l 81 197 l 219 197 l 219 193 q 233 154 219 172 q 265 127 246 136 q 304 115 283 118 q 346 111 325 111 q 388 114 367 111 q 427 126 408 117 q 459 152 446 135 q 472 190 472 169 q 458 232 472 213 q 423 263 443 251 q 381 281 403 274 q 338 294 360 288 q 294 309 315 301 q 251 326 272 317 q 211 349 231 336 q 174 376 192 361 q 142 408 157 390 q 117 446 128 425 q 100 489 106 467 q 94 533 94 511 q 104 593 94 564 q 132 647 114 622 q 176 688 150 671 q 230 716 201 706 q 288 730 258 726 q 349 733 318 733 q 409 730 379 733 q 467 716 439 726 q 522 689 496 706 q 565 648 547 672 q 593 594 583 624 q 603 535 603 565 l 603 525 l 464 525 l 464 529 q 453 567 464 549 q 425 594 442 585 q 388 608 408 604 q 349 611 368 611 q 310 608 329 611 q 273 596 290 606 q 244 569 256 586 q 233 533 233 553 q 248 491 233 510 q 282 460 263 472 q 324 442 301 449 q 367 428 346 435 q 411 413 389 421 q 453 396 433 406 q 494 374 474 386 q 531 347 514 363 q 563 315 549 332 q 589 277 578 297 q 606 235 600 257 q 611 189 611 213 q 601 128 611 158 q 571 74 590 97 q 525 33 551 50 q 469 6 499 15 q 408 -8 439 -4 q 346 -11 376 -11 z "},"t":{"ha":694,"x_min":97,"x_max":649,"o":"m 432 -11 q 367 -3 399 -11 q 308 25 335 6 q 263 72 282 44 q 233 130 244 99 q 219 194 222 161 q 215 258 215 226 l 215 600 l 97 600 l 97 722 l 215 722 l 215 1021 l 354 1021 l 354 722 l 583 722 l 583 600 l 354 600 l 354 258 q 356 228 354 243 q 360 197 357 213 q 367 167 363 182 q 381 140 372 153 q 403 119 389 128 q 432 111 417 111 q 460 119 447 111 q 482 138 474 126 q 495 164 490 150 q 503 192 500 178 q 508 222 507 207 q 510 251 510 238 l 510 260 l 649 260 l 649 246 q 643 183 649 214 q 626 122 638 151 q 597 67 615 93 q 551 22 578 40 q 494 -3 525 4 q 432 -11 464 -11 z "},"u":{"ha":694,"x_min":83,"x_max":611,"o":"m 289 -11 q 223 -1 256 -11 q 166 32 190 10 q 125 84 142 54 q 99 146 108 114 q 87 211 90 178 q 83 278 83 244 l 83 722 l 222 722 l 222 278 q 224 239 222 258 q 233 201 226 219 q 249 165 239 182 q 274 135 260 147 q 308 117 289 122 q 347 111 328 111 q 386 117 367 111 q 420 135 406 122 q 445 165 435 147 q 462 201 456 182 q 470 239 468 219 q 472 278 472 258 l 472 722 l 611 722 l 611 0 l 472 0 l 472 128 q 444 72 461 99 q 403 26 428 46 q 349 -2 379 7 q 289 -11 319 -11 z "},"v":{"ha":694,"x_min":54,"x_max":640,"o":"m 267 0 l 54 722 l 200 722 l 326 240 q 337 201 332 221 q 347 161 342 181 q 358 201 353 181 q 368 240 363 221 l 494 722 l 640 722 l 428 0 l 267 0 z "},"w":{"ha":694,"x_min":39,"x_max":656,"o":"m 157 0 l 39 722 l 172 722 l 225 196 l 289 519 l 406 519 l 469 196 l 522 722 l 656 722 l 538 0 l 421 0 l 347 372 l 274 0 l 157 0 z "},"x":{"ha":694,"x_min":64,"x_max":631,"o":"m 64 0 l 278 361 l 64 722 l 226 722 l 347 492 l 468 722 l 631 722 l 417 361 l 631 0 l 468 0 l 347 231 l 226 0 l 64 0 z "},"y":{"ha":694,"x_min":67,"x_max":628,"o":"m 194 -299 q 222 -202 208 -250 q 250 -107 236 -154 l 276 -10 l 67 722 l 211 722 l 350 169 l 483 722 l 628 722 l 339 -299 l 194 -299 z "},"z":{"ha":694,"x_min":83,"x_max":611,"o":"m 83 0 l 83 122 l 463 600 l 83 600 l 83 722 l 611 722 l 611 600 l 232 122 l 611 122 l 611 0 l 83 0 z "},"{":{"ha":694,"x_min":110,"x_max":558,"o":"m 558 -212 q 479 -208 518 -212 q 403 -190 440 -203 q 331 -157 365 -178 q 270 -106 296 -136 q 232 -38 244 -76 q 219 39 219 0 q 222 82 219 61 q 231 123 225 103 q 247 163 238 143 q 265 201 256 182 q 280 240 274 219 q 286 282 286 261 q 281 323 286 303 q 261 358 275 343 q 229 384 247 374 q 192 401 211 394 q 151 409 172 407 q 110 411 131 411 l 110 533 q 151 535 131 533 q 192 544 172 538 q 229 560 211 550 q 261 586 247 571 q 281 622 275 601 q 286 663 286 642 q 280 704 286 683 q 265 744 274 725 q 247 782 256 763 q 231 822 238 801 q 222 863 225 842 q 219 906 219 883 q 232 983 219 944 q 270 1051 244 1021 q 331 1101 296 1081 q 403 1135 365 1122 q 479 1152 440 1147 q 558 1157 518 1157 l 558 1035 q 514 1033 536 1035 q 470 1024 492 1031 q 428 1008 449 1018 q 392 983 408 999 q 367 947 376 968 q 358 906 358 926 q 365 863 358 883 q 381 824 372 843 q 399 786 390 806 q 413 747 407 767 q 423 705 419 726 q 426 663 426 683 q 418 601 426 632 q 391 546 410 571 q 347 503 372 521 q 293 472 321 485 q 347 442 321 460 q 391 399 372 424 q 418 343 410 374 q 426 282 426 313 q 423 240 426 261 q 413 198 419 218 q 399 158 407 178 q 381 120 390 139 q 365 81 372 101 q 358 39 358 61 q 367 -3 358 18 q 392 -39 376 -24 q 428 -64 408 -54 q 470 -80 449 -74 q 514 -88 492 -86 q 558 -90 536 -90 l 558 -212 z "},"|":{"ha":694,"x_min":278,"x_max":417,"o":"m 278 -199 l 278 1143 l 417 1143 l 417 -199 l 278 -199 z "},"}":{"ha":694,"x_min":136,"x_max":585,"o":"m 136 -212 l 136 -90 q 181 -88 158 -90 q 224 -80 203 -86 q 266 -64 246 -74 q 302 -39 286 -54 q 327 -3 318 -24 q 336 39 336 18 q 329 81 336 61 q 313 120 322 101 q 296 158 304 139 q 281 198 288 178 q 272 240 275 218 q 268 282 268 261 q 276 343 268 313 q 303 399 285 374 q 348 442 322 424 q 401 472 374 460 q 348 503 374 485 q 303 546 322 521 q 276 601 285 571 q 268 663 268 632 q 272 705 268 683 q 281 747 275 726 q 296 786 288 767 q 313 824 304 806 q 329 863 322 843 q 336 906 336 883 q 327 947 336 926 q 302 983 318 968 q 266 1008 286 999 q 224 1024 246 1018 q 181 1033 203 1031 q 136 1035 158 1035 l 136 1157 q 215 1152 176 1157 q 292 1135 254 1147 q 364 1101 329 1122 q 424 1051 399 1081 q 463 983 450 1021 q 475 906 475 944 q 472 863 475 883 q 463 822 469 842 q 448 782 457 801 q 430 744 439 763 q 415 704 421 725 q 408 663 408 683 q 414 622 408 642 q 433 586 419 601 q 465 560 447 571 q 503 544 483 550 q 543 535 522 538 q 585 533 564 533 l 585 411 q 543 409 564 411 q 503 401 522 407 q 465 384 483 394 q 433 358 447 374 q 414 323 419 343 q 408 282 408 303 q 415 240 408 261 q 430 201 421 219 q 448 163 439 182 q 463 123 457 143 q 472 82 469 103 q 475 39 475 61 q 463 -38 475 0 q 424 -106 450 -76 q 364 -157 399 -136 q 292 -190 329 -178 q 215 -208 254 -203 q 136 -212 176 -212 z "},"~":{"ha":694,"x_min":24,"x_max":671,"o":"m 450 254 q 429 256 439 254 q 410 260 419 257 q 393 268 401 264 q 376 278 385 272 q 361 291 368 285 q 349 303 354 297 q 336 318 343 310 q 324 335 329 326 q 313 351 318 343 q 303 367 308 360 q 293 384 299 375 q 282 403 288 393 q 271 421 276 413 q 260 436 265 429 q 247 449 256 443 q 239 463 239 456 l 251 463 q 246 456 251 461 q 235 444 240 451 q 226 432 229 438 q 219 422 222 426 q 214 414 217 418 q 208 405 211 410 q 203 394 206 400 q 197 383 200 389 q 191 370 194 376 q 185 358 188 364 q 178 344 182 351 q 172 328 175 336 q 165 313 168 321 q 158 296 161 304 q 151 278 154 288 q 143 258 147 268 l 24 299 q 35 327 29 314 q 45 353 40 340 q 56 377 50 365 q 66 400 61 389 q 76 421 71 411 q 85 440 81 431 q 96 458 90 450 q 106 474 101 467 q 116 490 111 482 q 128 508 121 499 q 144 526 136 517 q 160 542 151 535 q 178 555 169 549 q 199 565 188 561 q 222 572 210 569 q 244 575 233 575 q 265 573 256 575 q 284 568 275 571 q 301 560 293 565 q 318 550 310 556 q 333 538 326 544 q 346 525 340 532 q 358 510 351 518 q 371 494 365 501 q 381 478 376 486 q 391 461 386 469 q 401 444 396 453 q 413 426 407 436 q 424 408 418 417 q 434 392 429 400 q 447 379 439 385 q 456 365 456 374 q 452 366 454 365 q 449 367 450 367 l 443 365 q 449 373 443 368 q 460 385 454 378 q 469 397 465 392 q 475 407 472 403 q 481 415 478 411 q 486 424 483 419 q 492 435 489 429 q 497 446 494 440 q 503 458 500 451 q 510 471 507 464 q 516 485 513 478 q 523 501 519 493 q 530 517 526 508 q 537 533 533 525 q 544 551 540 542 q 551 569 547 560 l 671 529 q 660 502 665 515 q 649 476 654 489 q 639 452 644 464 q 628 429 633 440 q 619 408 624 418 q 609 388 614 397 q 599 371 604 379 q 588 354 593 363 q 578 338 583 346 q 566 321 574 331 q 551 303 558 311 q 534 288 543 294 q 516 274 525 281 q 496 263 507 268 q 473 256 485 258 q 450 254 461 254 z "},"":{"ha":694,"x_min":0,"x_max":0,"o":""},"":{"ha":694,"x_min":232,"x_max":463,"o":"m 347 503 q 301 510 324 503 q 263 533 279 517 q 239 572 246 549 q 232 618 232 594 q 239 664 232 642 q 263 703 246 686 q 301 726 279 719 q 347 733 324 733 q 393 726 371 733 q 432 703 415 719 q 456 664 449 686 q 463 618 463 642 q 456 572 463 594 q 432 533 449 549 q 393 510 415 517 q 347 503 371 503 m 278 -299 l 278 353 l 417 353 l 417 -299 l 278 -299 z "},"":{"ha":694,"x_min":72,"x_max":614,"o":"m 285 -149 l 285 -7 q 222 10 253 -3 q 166 44 192 24 q 122 91 140 64 q 92 149 103 118 q 76 213 81 181 q 72 278 72 244 l 72 444 q 76 510 72 478 q 92 573 81 542 q 122 631 103 604 q 166 678 140 658 q 222 712 192 699 q 285 729 253 725 l 285 872 l 410 872 l 410 728 q 494 699 454 721 q 560 640 533 676 q 601 560 588 604 q 614 472 614 517 l 614 463 l 475 463 l 475 468 q 470 510 475 489 q 456 549 465 531 q 430 581 446 567 q 394 603 414 596 l 394 119 q 430 141 414 126 q 456 174 446 156 q 470 213 465 192 q 475 254 475 233 l 475 260 l 614 260 l 614 250 q 601 162 614 206 q 560 82 588 118 q 494 24 533 46 q 410 -6 454 1 l 410 -149 l 285 -149 m 300 606 q 258 580 276 597 q 230 540 240 563 q 215 494 219 518 q 211 444 211 469 l 211 278 q 215 228 211 253 q 230 182 219 204 q 258 142 240 160 q 300 117 276 125 l 300 606 z "},"":{"ha":694,"x_min":76,"x_max":611,"o":"m 83 0 l 83 122 q 131 178 111 147 q 161 245 150 210 q 174 317 172 281 q 176 392 176 354 l 176 461 l 76 461 l 76 560 l 176 560 l 176 813 q 181 869 176 840 q 197 924 186 897 q 228 972 208 950 q 272 1007 247 993 q 326 1026 297 1021 q 382 1032 354 1032 q 466 1017 425 1032 q 535 969 507 1001 q 575 896 563 938 q 588 813 588 854 l 588 800 l 449 800 l 449 806 q 446 840 449 824 q 435 873 443 857 q 413 899 428 889 q 382 910 399 910 q 351 901 365 910 q 328 877 336 892 q 319 846 321 863 q 317 813 317 829 l 317 560 l 442 560 l 442 461 l 317 461 l 317 392 q 315 322 317 357 q 308 253 314 288 q 290 185 301 218 q 260 122 278 151 l 611 122 l 611 0 l 83 0 z "},"":{"ha":694,"x_min":42,"x_max":653,"o":"m 125 172 l 42 244 l 131 333 q 106 400 113 364 q 99 472 99 436 q 106 544 99 508 q 131 611 113 581 l 42 700 l 125 772 l 208 689 q 275 714 239 707 q 347 721 311 721 q 419 714 383 721 q 486 689 456 707 l 569 772 l 653 700 l 564 611 q 589 544 582 581 q 596 472 596 508 q 589 400 596 436 q 564 333 582 364 l 653 244 l 569 172 l 486 256 q 419 231 456 238 q 347 224 383 224 q 275 231 311 224 q 208 256 239 238 l 125 172 m 347 326 q 402 336 375 326 q 447 367 429 346 q 472 417 465 389 q 479 472 479 444 q 472 528 479 500 q 447 577 465 556 q 402 608 429 599 q 347 618 375 618 q 292 608 319 618 q 247 577 265 599 q 222 528 229 556 q 215 472 215 500 q 222 417 215 444 q 247 367 229 389 q 292 336 265 346 q 347 326 319 326 z "},"":{"ha":694,"x_min":51,"x_max":643,"o":"m 278 0 l 278 154 l 83 154 l 83 254 l 278 254 l 278 358 l 83 358 l 83 458 l 263 458 l 51 1021 l 200 1021 l 347 596 l 494 1021 l 643 1021 l 432 458 l 611 458 l 611 358 l 417 358 l 417 254 l 611 254 l 611 154 l 417 154 l 417 0 l 278 0 z "},"":{"ha":694,"x_min":278,"x_max":417,"o":"m 278 536 l 278 1143 l 417 1143 l 417 536 l 278 536 m 278 -199 l 278 408 l 417 408 l 417 -199 l 278 -199 z "},"":{"ha":694,"x_min":81,"x_max":614,"o":"m 346 -210 q 276 -203 311 -210 q 210 -181 242 -197 q 153 -140 179 -165 q 112 -84 128 -115 q 88 -18 96 -53 q 81 51 81 17 l 81 61 l 219 61 l 219 56 q 227 2 219 29 q 251 -46 235 -25 q 294 -77 268 -67 q 346 -87 319 -87 q 399 -76 374 -87 q 440 -44 424 -65 q 465 4 457 -22 q 472 58 472 31 q 458 119 472 90 q 420 167 444 147 q 367 199 396 188 q 308 221 338 211 q 249 243 278 231 q 194 273 219 256 q 147 314 168 290 q 111 365 125 338 q 90 424 97 393 q 83 486 83 454 q 88 542 83 514 q 103 598 93 571 q 130 649 114 625 q 167 693 146 674 q 131 733 147 711 q 103 779 114 754 q 88 831 93 804 q 83 883 83 857 q 91 954 83 919 q 115 1021 99 989 q 155 1080 131 1053 q 210 1124 179 1107 q 277 1147 242 1140 q 349 1154 313 1154 q 418 1148 383 1154 q 484 1126 453 1142 q 541 1085 515 1110 q 583 1028 567 1060 q 606 963 599 997 q 614 893 614 928 l 614 883 l 475 883 l 475 889 q 467 942 475 915 q 443 990 460 969 q 401 1022 426 1011 q 349 1032 375 1032 q 296 1021 321 1032 q 254 988 271 1010 q 230 940 238 967 q 222 886 222 914 q 236 826 222 854 q 274 777 250 797 q 328 745 299 757 q 387 724 357 733 q 446 701 417 714 q 501 672 475 689 q 548 631 526 654 q 583 579 569 607 q 604 521 597 551 q 611 458 611 490 q 606 402 611 431 q 591 347 601 374 q 565 295 581 319 q 528 251 549 271 q 564 212 547 233 q 591 165 581 190 q 606 114 601 140 q 611 61 611 88 q 603 -10 611 25 q 580 -76 596 -44 q 540 -135 564 -108 q 484 -179 515 -162 q 417 -203 453 -196 q 346 -210 382 -210 m 399 321 q 431 344 417 329 q 455 376 446 358 q 468 415 464 394 q 472 454 472 435 q 457 517 472 488 q 415 568 442 547 q 358 601 389 589 q 296 624 328 613 q 263 601 278 615 q 240 568 249 586 q 226 530 231 550 q 222 490 222 510 q 238 427 222 457 q 279 376 253 397 q 336 344 306 356 q 399 321 367 332 z "},"":{"ha":694,"x_min":111,"x_max":583,"o":"m 486 833 q 447 839 467 833 q 414 858 428 844 q 394 892 400 872 q 389 931 389 911 q 394 969 389 950 q 414 1003 400 989 q 447 1022 428 1017 q 486 1028 467 1028 q 525 1022 506 1028 q 558 1003 544 1017 q 578 969 572 989 q 583 931 583 950 q 578 892 583 911 q 558 858 572 872 q 525 839 544 844 q 486 833 506 833 m 208 833 q 169 839 189 833 q 136 858 150 844 q 117 892 122 872 q 111 931 111 911 q 117 969 111 950 q 136 1003 122 989 q 169 1022 150 1017 q 208 1028 189 1028 q 247 1022 228 1028 q 281 1003 267 1017 q 300 969 294 989 q 306 931 306 950 q 300 892 306 911 q 281 858 294 872 q 247 839 267 844 q 208 833 228 833 z "},"":{"ha":694,"x_min":140,"x_max":547,"o":"m 293 440 q 233 449 263 440 q 182 479 204 458 q 150 530 160 500 q 140 590 140 560 q 148 643 140 617 q 172 690 156 669 q 213 724 189 710 q 262 746 236 738 q 314 757 288 754 q 367 760 340 760 l 431 760 l 431 796 q 424 825 431 811 q 404 847 417 839 q 376 858 392 856 q 346 861 361 861 q 318 859 332 861 q 292 851 304 857 q 270 833 279 844 q 261 808 261 822 l 261 807 l 146 807 l 146 813 q 164 879 146 847 q 212 930 182 911 q 276 956 242 949 q 346 963 311 963 q 395 959 371 963 q 443 947 419 956 q 487 924 467 939 q 521 890 507 910 q 541 845 535 869 q 547 796 547 821 l 547 449 l 431 449 l 431 528 q 408 491 422 508 q 376 462 394 474 q 337 445 358 450 q 293 440 315 440 m 343 542 q 376 547 360 542 q 406 563 393 551 q 425 590 419 574 q 431 624 431 607 l 431 658 l 367 658 q 344 658 356 658 q 321 655 332 657 q 299 649 310 653 q 278 640 288 646 q 262 623 268 633 q 256 601 256 613 q 264 574 256 586 q 285 554 272 561 q 313 544 299 547 q 343 542 328 542 m 547 261 l 149 261 l 149 344 l 547 344 l 547 261 z "},"":{"ha":694,"x_min":44,"x_max":649,"o":"m 547 119 q 503 212 528 167 q 450 299 479 257 q 385 378 421 342 q 308 444 350 415 l 308 500 q 385 566 350 529 q 450 645 421 603 q 503 733 479 688 q 547 825 528 778 l 649 790 q 567 621 614 703 q 451 472 519 539 q 567 324 519 406 q 649 154 614 242 l 547 119 m 283 119 q 240 212 264 167 q 186 299 215 257 q 122 378 157 342 q 44 444 86 415 l 44 500 q 122 566 86 529 q 186 645 157 603 q 240 733 215 688 q 283 825 264 778 l 385 790 q 303 621 350 703 q 188 472 256 539 q 303 324 256 406 q 385 154 350 242 l 283 119 z "},"":{"ha":694,"x_min":83,"x_max":611,"o":"m 483 182 l 483 417 l 83 417 l 83 528 l 611 528 l 611 182 l 483 182 z "},"":{"ha":694,"x_min":83,"x_max":611,"o":"m 611 411 l 83 411 l 83 533 l 611 533 l 611 411 z "},"":{"ha":694,"x_min":19,"x_max":675,"o":"m 225 714 l 225 1122 l 356 1122 q 405 1113 381 1122 q 445 1085 429 1104 q 467 1042 461 1067 q 474 992 474 1017 q 471 955 474 974 q 460 920 468 936 q 438 891 451 904 q 408 871 425 878 l 483 714 l 393 714 l 324 861 l 308 861 l 308 714 l 225 714 m 308 933 l 356 933 q 373 940 365 933 q 385 954 381 946 q 390 972 389 963 q 390 992 390 982 q 390 1010 390 1001 q 385 1028 389 1019 q 373 1044 381 1038 q 356 1050 365 1050 l 308 1050 l 308 933 m 347 590 q 259 598 303 590 q 176 625 215 606 q 106 676 138 644 q 54 747 74 708 q 27 830 35 786 q 19 918 19 874 q 27 1006 19 963 q 54 1089 35 1050 q 106 1160 74 1128 q 176 1211 138 1192 q 259 1238 215 1231 q 347 1246 303 1246 q 435 1238 392 1246 q 518 1211 479 1231 q 589 1160 557 1192 q 640 1089 621 1128 q 667 1006 660 1050 q 675 918 675 963 q 667 830 675 874 q 640 747 660 786 q 589 676 621 708 q 518 625 557 644 q 435 598 479 606 q 347 590 392 590 m 347 663 q 414 669 381 663 q 477 691 447 675 q 530 732 507 707 q 567 788 553 757 q 587 851 582 818 q 592 918 592 885 q 587 985 592 951 q 567 1049 582 1018 q 530 1104 553 1079 q 477 1145 507 1129 q 414 1167 447 1161 q 347 1174 381 1174 q 281 1167 314 1174 q 217 1145 247 1161 q 165 1104 188 1129 q 127 1049 142 1079 q 108 985 113 1018 q 103 918 103 951 q 108 851 103 885 q 127 788 113 818 q 165 732 142 757 q 217 691 188 707 q 281 669 247 675 q 347 663 314 663 z "},"":{"ha":694,"x_min":83,"x_max":611,"o":"m 611 879 l 83 879 l 83 982 l 611 982 l 611 879 z "},"":{"ha":694,"x_min":175,"x_max":519,"o":"m 347 738 q 278 748 313 738 q 220 783 244 758 q 185 842 196 808 q 175 910 175 875 q 185 978 175 944 q 220 1037 196 1013 q 278 1072 244 1061 q 347 1082 313 1082 q 416 1072 382 1082 q 474 1037 450 1061 q 509 978 499 1013 q 519 910 519 944 q 509 842 519 875 q 474 783 499 808 q 416 748 450 758 q 347 738 382 738 m 347 844 q 373 849 360 844 q 395 862 386 853 q 408 884 404 871 q 413 910 413 897 q 408 936 413 924 q 395 958 404 949 q 373 972 386 968 q 347 975 360 975 q 322 972 335 975 q 299 958 308 968 q 286 936 290 949 q 282 910 282 924 q 286 884 282 897 q 299 862 290 871 q 322 849 308 853 q 347 844 335 844 z "},"":{"ha":694,"x_min":83,"x_max":611,"o":"m 411 197 l 283 197 l 283 417 l 83 417 l 83 528 l 283 528 l 283 747 l 411 747 l 411 528 l 611 528 l 611 417 l 411 417 l 411 197 m 83 0 l 83 113 l 611 113 l 611 0 l 83 0 z "},"":{"ha":694,"x_min":146,"x_max":550,"o":"m 149 449 l 149 450 q 149 512 149 481 q 156 574 150 543 q 174 633 163 604 q 203 688 186 661 q 241 736 219 714 q 287 778 263 758 q 338 814 311 797 q 388 852 365 831 q 422 903 410 874 q 433 963 433 932 q 430 1001 433 982 q 415 1037 426 1021 q 386 1061 404 1053 q 349 1069 368 1069 q 315 1064 331 1069 q 286 1047 299 1058 q 268 1018 274 1035 q 263 985 263 1001 l 263 982 l 146 982 l 146 988 q 160 1063 146 1026 q 204 1125 175 1100 q 272 1160 233 1150 q 349 1171 310 1171 q 429 1158 389 1171 q 498 1115 469 1144 q 538 1044 526 1085 q 550 963 550 1004 q 542 899 550 931 q 517 841 533 868 q 476 792 500 814 q 427 749 453 769 q 376 709 401 729 q 331 665 351 689 q 295 611 310 640 q 272 551 281 582 l 547 551 l 547 449 l 149 449 z "},"":{"ha":694,"x_min":138,"x_max":563,"o":"m 350 440 q 271 451 310 440 q 201 486 232 461 q 154 549 171 511 q 138 625 138 586 l 138 631 l 254 631 l 254 628 q 262 592 254 610 q 283 564 269 575 q 314 548 296 553 q 350 543 332 543 q 388 550 369 543 q 420 572 407 557 q 440 605 433 586 q 446 643 446 624 q 435 694 446 669 q 406 736 425 719 q 360 758 386 753 q 307 764 333 764 l 307 865 q 354 871 331 865 q 395 892 378 876 q 422 930 413 907 q 431 976 431 953 q 426 1010 431 993 q 410 1042 421 1028 q 383 1063 400 1056 q 350 1069 367 1069 q 317 1063 333 1069 q 291 1045 301 1057 q 276 1017 281 1033 q 271 985 271 1001 l 271 982 l 154 982 l 154 988 q 168 1063 154 1026 q 210 1124 182 1099 q 275 1160 238 1150 q 350 1171 313 1171 q 427 1159 389 1171 q 492 1120 465 1147 q 533 1056 519 1093 q 547 979 547 1018 q 541 930 547 954 q 523 884 535 906 q 493 845 511 863 q 454 817 475 828 q 499 786 478 804 q 534 745 519 768 q 556 695 549 722 q 563 642 563 668 q 547 560 563 600 q 502 492 532 521 q 432 452 472 464 q 350 440 392 440 z "},"":{"ha":694,"x_min":214,"x_max":582,"o":"m 310 742 l 214 813 l 465 1128 l 582 1042 l 310 742 z "},"":{"ha":694,"x_min":83,"x_max":611,"o":"m 83 -299 l 83 722 l 222 722 l 222 278 q 224 239 222 258 q 233 201 226 219 q 249 165 239 182 q 274 135 260 147 q 308 117 289 122 q 347 111 328 111 q 386 117 367 111 q 420 135 406 122 q 445 165 435 147 q 462 201 456 182 q 470 239 468 219 q 472 278 472 258 l 472 722 l 611 722 l 611 0 l 472 0 l 472 128 q 444 72 461 99 q 403 26 428 46 q 349 -2 379 7 q 289 -11 319 -11 q 251 -8 269 -11 q 215 1 233 -6 q 221 -74 219 -36 q 222 -150 222 -111 l 222 -299 l 83 -299 z "},"":{"ha":694,"x_min":83,"x_max":611,"o":"m 321 0 l 321 465 q 252 473 286 465 q 189 499 218 481 q 139 547 160 518 q 106 607 118 575 q 88 674 93 639 q 83 743 83 708 q 88 813 83 778 q 106 879 93 847 q 139 940 118 911 q 189 987 160 968 q 252 1013 218 1006 q 321 1021 286 1021 l 611 1021 l 611 0 l 508 0 l 508 931 l 425 931 l 425 0 l 321 0 z "},"":{"ha":694,"x_min":219,"x_max":475,"o":"m 347 344 q 297 352 322 344 q 253 378 271 360 q 227 422 235 396 q 219 472 219 447 q 227 523 219 497 q 253 567 235 549 q 297 592 271 585 q 347 600 322 600 q 398 592 372 600 q 442 567 424 585 q 467 523 460 549 q 475 472 475 497 q 467 422 475 447 q 442 378 460 396 q 398 352 424 360 q 347 344 372 344 z "},"":{"ha":694,"x_min":208,"x_max":497,"o":"m 208 -306 l 208 -201 l 347 -201 q 366 -200 357 -201 q 383 -194 375 -199 q 394 -181 390 -189 q 399 -162 399 -172 q 395 -144 399 -153 q 384 -129 392 -135 q 367 -122 376 -124 q 347 -119 357 -119 l 288 -119 l 288 0 l 407 0 l 407 -58 q 444 -75 426 -64 q 474 -102 461 -86 q 492 -138 486 -118 q 497 -179 497 -158 q 486 -233 497 -207 q 453 -276 475 -260 q 403 -299 431 -293 q 347 -306 375 -306 l 208 -306 z "},"":{"ha":694,"x_min":156,"x_max":435,"o":"m 318 449 l 318 1044 l 218 954 l 156 1014 l 318 1164 l 435 1164 l 435 449 l 318 449 z "},"":{"ha":694,"x_min":140,"x_max":554,"o":"m 347 440 q 292 445 319 440 q 240 462 265 450 q 195 493 215 474 q 163 537 175 513 q 145 588 150 561 q 140 643 140 615 l 140 760 q 145 815 140 788 q 163 866 150 842 q 195 910 175 890 q 240 941 215 929 q 292 958 265 953 q 347 963 319 963 q 402 958 375 963 q 454 941 429 953 q 499 910 479 929 q 532 866 519 890 q 549 815 544 842 q 554 760 554 788 l 554 643 q 549 588 554 615 q 532 537 544 561 q 499 493 519 513 q 454 462 479 474 q 402 445 429 450 q 347 440 375 440 m 347 543 q 385 550 367 543 q 415 572 403 557 q 433 605 428 586 q 438 643 438 624 l 438 760 q 433 798 438 779 q 415 831 428 817 q 385 853 403 846 q 347 860 367 860 q 310 853 328 860 q 279 831 292 846 q 262 798 267 817 q 257 760 257 779 l 257 643 q 262 605 257 624 q 279 572 267 586 q 310 550 292 557 q 347 543 328 543 m 547 261 l 149 261 l 149 344 l 547 344 l 547 261 z "},"":{"ha":694,"x_min":46,"x_max":651,"o":"m 411 119 l 310 154 q 392 324 344 242 q 507 472 439 406 q 392 621 439 539 q 310 790 344 703 l 411 825 q 455 733 431 778 q 508 645 479 688 q 573 566 538 603 q 651 500 608 529 l 651 444 q 573 378 608 415 q 508 299 538 342 q 455 212 479 257 q 411 119 431 167 m 147 119 l 46 154 q 128 324 81 242 q 243 472 175 406 q 128 621 175 539 q 46 790 81 703 l 147 825 q 191 733 167 778 q 244 645 215 688 q 309 566 274 603 q 388 500 344 529 l 388 444 q 309 378 344 415 q 244 299 274 342 q 191 212 215 257 q 147 119 167 167 z "},"":{"ha":694,"x_min":83,"x_max":611,"o":"m 83 432 l 83 513 l 611 513 l 611 432 l 83 432 m 318 617 l 318 1069 l 253 1007 l 196 1060 l 318 1178 l 424 1178 l 424 617 l 318 617 m 365 -233 l 365 -100 l 174 -100 l 174 -7 l 360 328 l 464 328 l 279 -7 l 365 -7 l 365 86 l 472 86 l 472 -7 l 517 -7 l 517 -100 l 472 -100 l 472 -233 l 365 -233 z "},"":{"ha":694,"x_min":83,"x_max":611,"o":"m 83 432 l 83 513 l 611 513 l 611 432 l 83 432 m 318 617 l 318 1069 l 253 1007 l 196 1060 l 318 1178 l 424 1178 l 424 617 l 318 617 m 181 -233 l 181 -232 q 181 -183 181 -208 q 187 -135 182 -158 q 201 -88 192 -111 q 223 -44 210 -65 q 253 -6 236 -24 q 290 26 269 11 q 331 53 310 42 q 372 81 353 65 q 401 119 390 96 q 413 165 413 142 q 409 193 413 179 q 397 218 406 207 q 376 235 389 229 q 349 240 363 240 q 326 238 338 240 q 305 228 314 235 q 290 210 296 221 q 285 188 285 199 l 285 186 l 178 186 l 178 189 q 192 251 178 221 q 230 300 206 281 q 285 327 254 319 q 349 335 317 335 q 416 324 382 335 q 474 290 450 314 q 509 233 499 267 q 519 165 519 200 q 508 102 519 133 q 474 47 496 71 q 426 3 453 22 q 373 -36 399 -15 q 327 -83 347 -57 q 297 -140 307 -108 l 517 -140 l 517 -233 l 181 -233 z "},"":{"ha":694,"x_min":83,"x_max":611,"o":"m 83 432 l 83 513 l 611 513 l 611 432 l 83 432 m 350 611 q 285 618 318 611 q 227 644 253 625 q 187 694 201 664 q 172 756 172 724 l 172 760 l 279 760 l 279 758 q 285 734 279 746 q 302 716 292 722 q 325 707 313 710 q 350 704 338 704 q 378 708 364 704 q 401 722 392 713 q 416 744 411 731 q 421 772 421 758 q 413 809 421 792 q 388 838 404 826 q 353 853 372 850 q 314 856 333 856 l 314 950 q 349 953 332 950 q 381 967 367 956 q 402 994 394 978 q 410 1028 410 1011 q 406 1052 410 1040 q 394 1073 401 1064 q 374 1086 386 1082 q 350 1090 363 1090 q 328 1088 339 1090 q 308 1077 317 1085 q 296 1059 300 1069 q 292 1038 292 1049 l 292 1036 l 185 1036 l 185 1040 q 197 1100 185 1071 q 234 1149 210 1129 q 289 1177 258 1169 q 350 1185 319 1185 q 413 1176 382 1185 q 468 1145 444 1167 q 504 1093 492 1124 q 517 1031 517 1063 q 512 992 517 1011 q 498 958 507 974 q 475 928 489 942 q 444 904 461 914 q 480 881 464 896 q 506 849 496 867 q 523 812 517 832 q 529 771 529 792 q 515 704 529 736 q 476 650 501 672 q 417 619 450 628 q 350 611 383 611 m 365 -233 l 365 -100 l 174 -100 l 174 -7 l 360 328 l 464 328 l 279 -7 l 365 -7 l 365 86 l 472 86 l 472 -7 l 517 -7 l 517 -100 l 472 -100 l 472 -233 l 365 -233 z "},"":{"ha":694,"x_min":83,"x_max":614,"o":"m 347 503 q 301 510 324 503 q 263 533 279 517 q 239 572 246 549 q 232 618 232 594 q 239 664 232 642 q 263 703 246 686 q 301 726 279 719 q 347 733 324 733 q 393 726 371 733 q 432 703 415 719 q 456 664 449 686 q 463 618 463 642 q 456 572 463 594 q 432 533 449 549 q 393 510 415 517 q 347 503 371 503 m 349 -310 q 280 -304 314 -310 q 215 -284 246 -299 q 158 -246 183 -269 q 115 -192 132 -222 q 91 -128 99 -162 q 83 -60 83 -94 q 90 4 83 -28 q 109 67 97 36 q 138 125 121 97 q 174 179 154 153 q 215 230 193 206 q 251 283 236 254 q 272 344 267 311 q 278 410 278 376 l 417 410 q 415 344 417 376 q 404 280 413 311 q 381 219 396 249 q 347 163 365 190 q 306 112 328 136 q 266 60 285 88 q 235 3 247 33 q 222 -60 222 -28 q 231 -110 222 -86 q 256 -153 239 -135 q 299 -179 274 -171 q 349 -187 324 -187 q 401 -178 375 -187 q 443 -147 426 -168 q 467 -100 460 -126 q 475 -47 475 -74 l 475 -39 l 614 -39 l 614 -53 q 606 -122 614 -87 q 582 -187 599 -157 q 540 -242 565 -218 q 484 -282 515 -267 q 418 -303 453 -297 q 349 -310 383 -310 z "},"":{"ha":694,"x_min":54,"x_max":640,"o":"m 54 0 l 74 97 l 267 1021 l 428 1021 l 640 0 l 499 0 l 453 239 l 242 239 l 196 0 l 54 0 m 431 361 l 371 681 q 359 744 365 713 q 347 808 353 776 q 335 744 342 776 q 324 681 329 713 l 264 361 l 431 361 m 365 1100 l 178 1288 l 274 1365 l 443 1164 l 365 1100 z "},"":{"ha":694,"x_min":54,"x_max":640,"o":"m 54 0 l 74 97 l 267 1021 l 428 1021 l 640 0 l 499 0 l 453 239 l 242 239 l 196 0 l 54 0 m 431 361 l 371 681 q 359 744 365 713 q 347 808 353 776 q 335 744 342 776 q 324 681 329 713 l 264 361 l 431 361 m 329 1100 l 251 1164 l 421 1365 l 517 1288 l 329 1100 z "},"":{"ha":694,"x_min":54,"x_max":640,"o":"m 54 0 l 74 97 l 267 1021 l 428 1021 l 640 0 l 499 0 l 453 239 l 242 239 l 196 0 l 54 0 m 431 361 l 371 681 q 359 744 365 713 q 347 808 353 776 q 335 744 342 776 q 324 681 329 713 l 264 361 l 431 361 m 217 1117 l 142 1168 l 271 1360 l 424 1360 l 553 1168 l 478 1117 l 347 1269 l 217 1117 z "},"":{"ha":694,"x_min":54,"x_max":640,"o":"m 54 0 l 74 97 l 267 1021 l 428 1021 l 640 0 l 499 0 l 453 239 l 242 239 l 196 0 l 54 0 m 431 361 l 371 681 q 359 744 365 713 q 347 808 353 776 q 335 744 342 776 q 324 681 329 713 l 264 361 l 431 361 m 428 1128 q 414 1128 421 1128 q 401 1131 407 1129 q 388 1135 394 1132 q 376 1140 382 1138 q 364 1147 369 1143 q 353 1153 358 1150 q 343 1162 349 1157 q 333 1172 338 1167 q 323 1181 328 1176 q 315 1191 318 1186 q 308 1201 311 1196 q 299 1212 304 1206 q 288 1224 293 1218 q 279 1234 283 1229 q 269 1244 275 1239 q 264 1250 264 1249 l 271 1250 q 267 1245 271 1249 q 258 1237 263 1242 q 251 1230 253 1232 q 247 1225 249 1228 q 242 1219 244 1222 q 238 1212 240 1215 q 233 1205 235 1208 q 228 1197 231 1201 q 222 1188 225 1193 q 217 1178 219 1183 q 211 1168 214 1174 q 205 1157 208 1163 q 199 1145 201 1151 q 192 1132 196 1139 l 86 1179 q 110 1225 99 1204 q 134 1263 122 1246 q 158 1294 146 1279 q 187 1323 169 1310 q 225 1345 204 1336 q 267 1354 246 1354 q 281 1353 274 1354 q 294 1350 288 1351 q 306 1347 300 1349 q 319 1342 313 1344 q 331 1335 325 1339 q 341 1328 336 1332 q 351 1319 346 1324 q 362 1310 357 1315 q 372 1299 367 1304 q 380 1290 376 1294 q 387 1281 383 1285 q 396 1270 390 1276 q 406 1258 401 1264 q 415 1248 411 1253 q 425 1238 419 1243 q 431 1232 431 1233 l 424 1232 q 428 1236 424 1233 q 437 1244 432 1239 q 444 1252 442 1250 q 448 1257 446 1254 q 452 1263 450 1260 q 457 1270 454 1267 q 462 1277 460 1274 q 467 1285 464 1281 q 472 1294 469 1289 q 478 1303 475 1299 q 483 1314 481 1308 q 490 1325 486 1319 q 496 1337 493 1331 q 503 1350 499 1343 l 608 1303 q 584 1257 596 1278 q 560 1219 572 1236 q 537 1188 549 1203 q 508 1158 525 1172 q 469 1136 490 1144 q 428 1128 449 1128 z "},"":{"ha":694,"x_min":54,"x_max":640,"o":"m 54 0 l 74 97 l 267 1021 l 428 1021 l 640 0 l 499 0 l 453 239 l 242 239 l 196 0 l 54 0 m 431 361 l 371 681 q 359 744 365 713 q 347 808 353 776 q 335 744 342 776 q 324 681 329 713 l 264 361 l 431 361 m 486 1132 q 447 1138 467 1132 q 414 1157 428 1143 q 394 1190 400 1171 q 389 1229 389 1210 q 394 1268 389 1249 q 414 1301 400 1288 q 447 1321 428 1315 q 486 1326 467 1326 q 525 1321 506 1326 q 558 1301 544 1315 q 578 1268 572 1288 q 583 1229 583 1249 q 578 1190 583 1210 q 558 1157 572 1171 q 525 1138 544 1143 q 486 1132 506 1132 m 208 1132 q 169 1138 189 1132 q 136 1157 150 1143 q 117 1190 122 1171 q 111 1229 111 1210 q 117 1268 111 1249 q 136 1301 122 1288 q 169 1321 150 1315 q 208 1326 189 1326 q 247 1321 228 1326 q 281 1301 267 1315 q 300 1268 294 1288 q 306 1229 306 1249 q 300 1190 306 1210 q 281 1157 294 1171 q 247 1138 267 1143 q 208 1132 228 1132 z "},"":{"ha":694,"x_min":54,"x_max":640,"o":"m 54 0 l 74 97 l 267 1021 l 428 1021 l 640 0 l 499 0 l 453 239 l 242 239 l 196 0 l 54 0 m 431 361 l 371 681 q 359 744 365 713 q 347 808 353 776 q 335 744 342 776 q 324 681 329 713 l 264 361 l 431 361 m 347 1093 q 293 1101 319 1093 q 247 1129 267 1110 q 219 1175 228 1149 q 211 1229 211 1201 q 219 1283 211 1257 q 247 1329 228 1310 q 293 1357 267 1349 q 347 1365 319 1365 q 401 1357 375 1365 q 447 1329 428 1349 q 475 1283 467 1310 q 483 1229 483 1257 q 475 1175 483 1201 q 447 1129 467 1149 q 401 1101 428 1110 q 347 1093 375 1093 m 347 1178 q 367 1181 357 1178 q 385 1191 378 1183 q 396 1209 393 1199 q 399 1229 399 1219 q 396 1249 399 1239 q 385 1267 393 1260 q 367 1278 378 1275 q 347 1281 357 1281 q 327 1278 338 1281 q 309 1267 317 1275 q 299 1249 301 1260 q 296 1229 296 1239 q 299 1209 296 1219 q 309 1191 301 1199 q 327 1181 317 1183 q 347 1178 338 1178 z "},"":{"ha":694,"x_min":39,"x_max":633,"o":"m 39 0 l 254 1021 l 633 1021 l 633 899 l 440 899 l 440 592 l 606 592 l 606 469 l 440 469 l 440 122 l 633 122 l 633 0 l 317 0 l 317 253 l 214 253 l 165 0 l 39 0 m 235 361 l 317 361 l 317 783 q 306 731 311 757 q 296 681 301 706 l 235 361 z "},"":{"ha":694,"x_min":72,"x_max":614,"o":"m 343 -11 q 268 -4 306 -11 q 198 22 231 3 q 140 69 165 40 q 99 131 115 97 q 78 203 83 165 q 72 278 72 240 l 72 743 q 78 818 72 781 q 99 890 83 856 q 140 952 115 924 q 198 999 165 981 q 268 1025 231 1018 q 343 1032 306 1032 q 414 1026 379 1032 q 481 1004 449 1019 q 538 964 513 989 q 581 908 564 939 q 606 842 597 876 q 614 771 614 807 l 614 761 l 475 761 l 475 767 q 467 822 475 794 q 441 869 458 849 q 397 900 424 890 q 343 910 371 910 q 285 897 313 910 q 240 858 257 883 q 217 803 224 833 q 211 743 211 774 l 211 278 q 217 217 211 247 q 240 163 224 188 q 285 124 257 138 q 343 111 313 111 q 397 121 371 111 q 441 151 424 131 q 467 199 458 172 q 475 254 475 226 l 475 260 l 614 260 l 614 250 q 606 179 614 214 q 581 113 597 144 q 538 57 564 82 q 481 17 513 32 q 414 -5 449 1 q 343 -11 379 -11 m 208 -306 l 208 -201 l 347 -201 q 366 -200 357 -201 q 383 -194 375 -199 q 394 -181 390 -189 q 399 -162 399 -172 q 395 -144 399 -153 q 384 -129 392 -135 q 367 -122 376 -124 q 347 -119 357 -119 l 288 -119 l 288 111 l 407 111 l 407 -58 q 444 -75 426 -64 q 474 -102 461 -86 q 492 -138 486 -118 q 497 -179 497 -158 q 486 -233 497 -207 q 453 -276 475 -260 q 403 -299 431 -293 q 347 -306 375 -306 l 208 -306 z "},"":{"ha":694,"x_min":94,"x_max":611,"o":"m 94 0 l 94 1021 l 611 1021 l 611 899 l 233 899 l 233 592 l 532 592 l 532 469 l 233 469 l 233 122 l 611 122 l 611 0 l 94 0 m 365 1100 l 178 1288 l 274 1365 l 443 1164 l 365 1100 z "},"":{"ha":694,"x_min":94,"x_max":611,"o":"m 94 0 l 94 1021 l 611 1021 l 611 899 l 233 899 l 233 592 l 532 592 l 532 469 l 233 469 l 233 122 l 611 122 l 611 0 l 94 0 m 329 1100 l 251 1164 l 421 1365 l 517 1288 l 329 1100 z "},"":{"ha":694,"x_min":94,"x_max":611,"o":"m 94 0 l 94 1021 l 611 1021 l 611 899 l 233 899 l 233 592 l 532 592 l 532 469 l 233 469 l 233 122 l 611 122 l 611 0 l 94 0 m 217 1117 l 142 1168 l 271 1360 l 424 1360 l 553 1168 l 478 1117 l 347 1269 l 217 1117 z "},"":{"ha":694,"x_min":94,"x_max":611,"o":"m 94 0 l 94 1021 l 611 1021 l 611 899 l 233 899 l 233 592 l 532 592 l 532 469 l 233 469 l 233 122 l 611 122 l 611 0 l 94 0 m 486 1132 q 447 1138 467 1132 q 414 1157 428 1143 q 394 1190 400 1171 q 389 1229 389 1210 q 394 1268 389 1249 q 414 1301 400 1288 q 447 1321 428 1315 q 486 1326 467 1326 q 525 1321 506 1326 q 558 1301 544 1315 q 578 1268 572 1288 q 583 1229 583 1249 q 578 1190 583 1210 q 558 1157 572 1171 q 525 1138 544 1143 q 486 1132 506 1132 m 208 1132 q 169 1138 189 1132 q 136 1157 150 1143 q 117 1190 122 1171 q 111 1229 111 1210 q 117 1268 111 1249 q 136 1301 122 1288 q 169 1321 150 1315 q 208 1326 189 1326 q 247 1321 228 1326 q 281 1301 267 1315 q 300 1268 294 1288 q 306 1229 306 1249 q 300 1190 306 1210 q 281 1157 294 1171 q 247 1138 267 1143 q 208 1132 228 1132 z "},"":{"ha":694,"x_min":104,"x_max":590,"o":"m 104 0 l 104 122 l 278 122 l 278 899 l 104 899 l 104 1021 l 590 1021 l 590 899 l 417 899 l 417 122 l 590 122 l 590 0 l 104 0 m 365 1100 l 178 1288 l 274 1365 l 443 1164 l 365 1100 z "},"":{"ha":694,"x_min":104,"x_max":590,"o":"m 104 0 l 104 122 l 278 122 l 278 899 l 104 899 l 104 1021 l 590 1021 l 590 899 l 417 899 l 417 122 l 590 122 l 590 0 l 104 0 m 329 1100 l 251 1164 l 421 1365 l 517 1288 l 329 1100 z "},"":{"ha":694,"x_min":104,"x_max":590,"o":"m 104 0 l 104 122 l 278 122 l 278 899 l 104 899 l 104 1021 l 590 1021 l 590 899 l 417 899 l 417 122 l 590 122 l 590 0 l 104 0 m 217 1117 l 142 1168 l 271 1360 l 424 1360 l 553 1168 l 478 1117 l 347 1269 l 217 1117 z "},"":{"ha":694,"x_min":104,"x_max":590,"o":"m 104 0 l 104 122 l 278 122 l 278 899 l 104 899 l 104 1021 l 590 1021 l 590 899 l 417 899 l 417 122 l 590 122 l 590 0 l 104 0 m 486 1132 q 447 1138 467 1132 q 414 1157 428 1143 q 394 1190 400 1171 q 389 1229 389 1210 q 394 1268 389 1249 q 414 1301 400 1288 q 447 1321 428 1315 q 486 1326 467 1326 q 525 1321 506 1326 q 558 1301 544 1315 q 578 1268 572 1288 q 583 1229 583 1249 q 578 1190 583 1210 q 558 1157 572 1171 q 525 1138 544 1143 q 486 1132 506 1132 m 208 1132 q 169 1138 189 1132 q 136 1157 150 1143 q 117 1190 122 1171 q 111 1229 111 1210 q 117 1268 111 1249 q 136 1301 122 1288 q 169 1321 150 1315 q 208 1326 189 1326 q 247 1321 228 1326 q 281 1301 267 1315 q 300 1268 294 1288 q 306 1229 306 1249 q 300 1190 306 1210 q 281 1157 294 1171 q 247 1138 267 1143 q 208 1132 228 1132 z "},"":{"ha":694,"x_min":25,"x_max":622,"o":"m 83 0 l 83 461 l 25 461 l 25 560 l 83 560 l 83 1021 l 306 1021 q 389 1014 347 1021 q 468 989 431 1007 q 537 942 506 971 q 588 877 568 914 q 615 799 607 840 q 622 715 622 757 l 622 306 q 615 222 622 264 q 588 144 607 181 q 537 78 568 107 q 468 32 506 50 q 389 7 431 14 q 306 0 347 0 l 83 0 m 222 122 l 306 122 q 353 126 329 122 q 399 142 378 131 q 438 172 421 154 q 465 212 454 190 q 479 258 475 233 q 483 306 483 282 l 483 715 q 479 763 483 739 q 465 809 475 788 q 438 849 454 831 q 399 878 421 867 q 353 894 378 890 q 306 899 329 899 l 222 899 l 222 560 l 353 560 l 353 461 l 222 461 l 222 122 z "},"":{"ha":694,"x_min":83,"x_max":611,"o":"m 83 0 l 83 1021 l 236 1021 l 493 242 q 485 334 489 288 q 477 427 481 381 q 473 520 474 474 q 472 613 472 567 l 472 1021 l 611 1021 l 611 0 l 458 0 l 201 779 q 210 687 206 733 q 217 594 214 640 q 222 501 221 547 q 222 408 222 454 l 222 0 l 83 0 m 428 1128 q 414 1128 421 1128 q 401 1131 407 1129 q 388 1135 394 1132 q 376 1140 382 1138 q 364 1147 369 1143 q 353 1153 358 1150 q 343 1162 349 1157 q 333 1172 338 1167 q 323 1181 328 1176 q 315 1191 318 1186 q 308 1201 311 1196 q 299 1212 304 1206 q 288 1224 293 1218 q 279 1234 283 1229 q 269 1244 275 1239 q 264 1250 264 1249 l 271 1250 q 267 1245 271 1249 q 258 1237 263 1242 q 251 1230 253 1232 q 247 1225 249 1228 q 242 1219 244 1222 q 238 1212 240 1215 q 233 1205 235 1208 q 228 1197 231 1201 q 222 1188 225 1193 q 217 1178 219 1183 q 211 1168 214 1174 q 205 1157 208 1163 q 199 1145 201 1151 q 192 1132 196 1139 l 86 1179 q 110 1225 99 1204 q 134 1263 122 1246 q 158 1294 146 1279 q 187 1323 169 1310 q 225 1345 204 1336 q 267 1354 246 1354 q 281 1353 274 1354 q 294 1350 288 1351 q 306 1347 300 1349 q 319 1342 313 1344 q 331 1335 325 1339 q 341 1328 336 1332 q 351 1319 346 1324 q 362 1310 357 1315 q 372 1299 367 1304 q 380 1290 376 1294 q 387 1281 383 1285 q 396 1270 390 1276 q 406 1258 401 1264 q 415 1248 411 1253 q 425 1238 419 1243 q 431 1232 431 1233 l 424 1232 q 428 1236 424 1233 q 437 1244 432 1239 q 444 1252 442 1250 q 448 1257 446 1254 q 452 1263 450 1260 q 457 1270 454 1267 q 462 1277 460 1274 q 467 1285 464 1281 q 472 1294 469 1289 q 478 1303 475 1299 q 483 1314 481 1308 q 490 1325 486 1319 q 496 1337 493 1331 q 503 1350 499 1343 l 608 1303 q 584 1257 596 1278 q 560 1219 572 1236 q 537 1188 549 1203 q 508 1158 525 1172 q 469 1136 490 1144 q 428 1128 449 1128 z "},"":{"ha":694,"x_min":72,"x_max":622,"o":"m 347 -11 q 272 -4 310 -11 q 201 21 235 3 q 142 67 168 39 q 101 131 117 96 q 78 203 85 165 q 72 278 72 240 l 72 743 q 78 818 72 781 q 101 890 85 856 q 142 953 117 925 q 201 1000 168 982 q 272 1025 235 1018 q 347 1032 310 1032 q 422 1025 385 1032 q 493 1000 460 1018 q 552 953 526 982 q 594 890 578 925 q 616 818 610 856 q 622 743 622 781 l 622 278 q 616 203 622 240 q 594 131 610 165 q 552 67 578 96 q 493 21 526 39 q 422 -4 460 3 q 347 -11 385 -11 m 347 111 q 406 124 378 111 q 452 162 435 138 q 476 217 469 186 q 483 278 483 247 l 483 743 q 476 804 483 774 q 452 859 469 835 q 406 897 435 883 q 347 910 378 910 q 288 897 317 910 q 242 859 260 883 q 218 804 225 835 q 211 743 211 774 l 211 278 q 218 217 211 247 q 242 162 225 186 q 288 124 260 138 q 347 111 317 111 m 365 1100 l 178 1288 l 274 1365 l 443 1164 l 365 1100 z "},"":{"ha":694,"x_min":72,"x_max":622,"o":"m 347 -11 q 272 -4 310 -11 q 201 21 235 3 q 142 67 168 39 q 101 131 117 96 q 78 203 85 165 q 72 278 72 240 l 72 743 q 78 818 72 781 q 101 890 85 856 q 142 953 117 925 q 201 1000 168 982 q 272 1025 235 1018 q 347 1032 310 1032 q 422 1025 385 1032 q 493 1000 460 1018 q 552 953 526 982 q 594 890 578 925 q 616 818 610 856 q 622 743 622 781 l 622 278 q 616 203 622 240 q 594 131 610 165 q 552 67 578 96 q 493 21 526 39 q 422 -4 460 3 q 347 -11 385 -11 m 347 111 q 406 124 378 111 q 452 162 435 138 q 476 217 469 186 q 483 278 483 247 l 483 743 q 476 804 483 774 q 452 859 469 835 q 406 897 435 883 q 347 910 378 910 q 288 897 317 910 q 242 859 260 883 q 218 804 225 835 q 211 743 211 774 l 211 278 q 218 217 211 247 q 242 162 225 186 q 288 124 260 138 q 347 111 317 111 m 329 1100 l 251 1164 l 421 1365 l 517 1288 l 329 1100 z "},"":{"ha":694,"x_min":72,"x_max":622,"o":"m 347 -11 q 272 -4 310 -11 q 201 21 235 3 q 142 67 168 39 q 101 131 117 96 q 78 203 85 165 q 72 278 72 240 l 72 743 q 78 818 72 781 q 101 890 85 856 q 142 953 117 925 q 201 1000 168 982 q 272 1025 235 1018 q 347 1032 310 1032 q 422 1025 385 1032 q 493 1000 460 1018 q 552 953 526 982 q 594 890 578 925 q 616 818 610 856 q 622 743 622 781 l 622 278 q 616 203 622 240 q 594 131 610 165 q 552 67 578 96 q 493 21 526 39 q 422 -4 460 3 q 347 -11 385 -11 m 347 111 q 406 124 378 111 q 452 162 435 138 q 476 217 469 186 q 483 278 483 247 l 483 743 q 476 804 483 774 q 452 859 469 835 q 406 897 435 883 q 347 910 378 910 q 288 897 317 910 q 242 859 260 883 q 218 804 225 835 q 211 743 211 774 l 211 278 q 218 217 211 247 q 242 162 225 186 q 288 124 260 138 q 347 111 317 111 m 217 1117 l 142 1168 l 271 1360 l 424 1360 l 553 1168 l 478 1117 l 347 1269 l 217 1117 z "},"":{"ha":694,"x_min":72,"x_max":622,"o":"m 347 -11 q 272 -4 310 -11 q 201 21 235 3 q 142 67 168 39 q 101 131 117 96 q 78 203 85 165 q 72 278 72 240 l 72 743 q 78 818 72 781 q 101 890 85 856 q 142 953 117 925 q 201 1000 168 982 q 272 1025 235 1018 q 347 1032 310 1032 q 422 1025 385 1032 q 493 1000 460 1018 q 552 953 526 982 q 594 890 578 925 q 616 818 610 856 q 622 743 622 781 l 622 278 q 616 203 622 240 q 594 131 610 165 q 552 67 578 96 q 493 21 526 39 q 422 -4 460 3 q 347 -11 385 -11 m 347 111 q 406 124 378 111 q 452 162 435 138 q 476 217 469 186 q 483 278 483 247 l 483 743 q 476 804 483 774 q 452 859 469 835 q 406 897 435 883 q 347 910 378 910 q 288 897 317 910 q 242 859 260 883 q 218 804 225 835 q 211 743 211 774 l 211 278 q 218 217 211 247 q 242 162 225 186 q 288 124 260 138 q 347 111 317 111 m 428 1128 q 414 1128 421 1128 q 401 1131 407 1129 q 388 1135 394 1132 q 376 1140 382 1138 q 364 1147 369 1143 q 353 1153 358 1150 q 343 1162 349 1157 q 333 1172 338 1167 q 323 1181 328 1176 q 315 1191 318 1186 q 308 1201 311 1196 q 299 1212 304 1206 q 288 1224 293 1218 q 279 1234 283 1229 q 269 1244 275 1239 q 264 1250 264 1249 l 271 1250 q 267 1245 271 1249 q 258 1237 263 1242 q 251 1230 253 1232 q 247 1225 249 1228 q 242 1219 244 1222 q 238 1212 240 1215 q 233 1205 235 1208 q 228 1197 231 1201 q 222 1188 225 1193 q 217 1178 219 1183 q 211 1168 214 1174 q 205 1157 208 1163 q 199 1145 201 1151 q 192 1132 196 1139 l 86 1179 q 110 1225 99 1204 q 134 1263 122 1246 q 158 1294 146 1279 q 187 1323 169 1310 q 225 1345 204 1336 q 267 1354 246 1354 q 281 1353 274 1354 q 294 1350 288 1351 q 306 1347 300 1349 q 319 1342 313 1344 q 331 1335 325 1339 q 341 1328 336 1332 q 351 1319 346 1324 q 362 1310 357 1315 q 372 1299 367 1304 q 380 1290 376 1294 q 387 1281 383 1285 q 396 1270 390 1276 q 406 1258 401 1264 q 415 1248 411 1253 q 425 1238 419 1243 q 431 1232 431 1233 l 424 1232 q 428 1236 424 1233 q 437 1244 432 1239 q 444 1252 442 1250 q 448 1257 446 1254 q 452 1263 450 1260 q 457 1270 454 1267 q 462 1277 460 1274 q 467 1285 464 1281 q 472 1294 469 1289 q 478 1303 475 1299 q 483 1314 481 1308 q 490 1325 486 1319 q 496 1337 493 1331 q 503 1350 499 1343 l 608 1303 q 584 1257 596 1278 q 560 1219 572 1236 q 537 1188 549 1203 q 508 1158 525 1172 q 469 1136 490 1144 q 428 1128 449 1128 z "},"":{"ha":694,"x_min":72,"x_max":622,"o":"m 347 -11 q 272 -4 310 -11 q 201 21 235 3 q 142 67 168 39 q 101 131 117 96 q 78 203 85 165 q 72 278 72 240 l 72 743 q 78 818 72 781 q 101 890 85 856 q 142 953 117 925 q 201 1000 168 982 q 272 1025 235 1018 q 347 1032 310 1032 q 422 1025 385 1032 q 493 1000 460 1018 q 552 953 526 982 q 594 890 578 925 q 616 818 610 856 q 622 743 622 781 l 622 278 q 616 203 622 240 q 594 131 610 165 q 552 67 578 96 q 493 21 526 39 q 422 -4 460 3 q 347 -11 385 -11 m 347 111 q 406 124 378 111 q 452 162 435 138 q 476 217 469 186 q 483 278 483 247 l 483 743 q 476 804 483 774 q 452 859 469 835 q 406 897 435 883 q 347 910 378 910 q 288 897 317 910 q 242 859 260 883 q 218 804 225 835 q 211 743 211 774 l 211 278 q 218 217 211 247 q 242 162 225 186 q 288 124 260 138 q 347 111 317 111 m 486 1132 q 447 1138 467 1132 q 414 1157 428 1143 q 394 1190 400 1171 q 389 1229 389 1210 q 394 1268 389 1249 q 414 1301 400 1288 q 447 1321 428 1315 q 486 1326 467 1326 q 525 1321 506 1326 q 558 1301 544 1315 q 578 1268 572 1288 q 583 1229 583 1249 q 578 1190 583 1210 q 558 1157 572 1171 q 525 1138 544 1143 q 486 1132 506 1132 m 208 1132 q 169 1138 189 1132 q 136 1157 150 1143 q 117 1190 122 1171 q 111 1229 111 1210 q 117 1268 111 1249 q 136 1301 122 1288 q 169 1321 150 1315 q 208 1326 189 1326 q 247 1321 228 1326 q 281 1301 267 1315 q 300 1268 294 1288 q 306 1229 306 1249 q 300 1190 306 1210 q 281 1157 294 1171 q 247 1138 267 1143 q 208 1132 228 1132 z "},"":{"ha":694,"x_min":17,"x_max":678,"o":"m 108 147 l 17 228 l 263 472 l 17 717 l 108 797 l 347 557 l 586 797 l 678 717 l 432 472 l 678 228 l 586 147 l 347 388 l 108 147 z "},"":{"ha":694,"x_min":69,"x_max":625,"o":"m 174 -69 l 69 -32 l 121 94 q 97 137 107 114 q 82 183 88 160 q 74 230 76 206 q 72 278 72 254 l 72 743 q 78 818 72 781 q 101 890 85 856 q 142 953 117 925 q 201 1000 168 982 q 272 1025 235 1018 q 347 1032 310 1032 q 419 1026 383 1032 q 486 1004 454 1019 l 521 1090 l 625 1053 l 574 926 q 597 884 588 907 q 613 838 607 861 q 620 791 618 815 q 622 743 622 767 l 622 278 q 616 203 622 240 q 594 131 610 165 q 552 67 578 96 q 493 21 526 39 q 422 -4 460 3 q 347 -11 385 -11 q 276 -5 311 -11 q 208 17 240 1 l 174 -69 m 211 322 l 436 879 q 394 902 418 894 q 347 910 371 910 q 288 897 317 910 q 242 859 260 883 q 218 804 225 835 q 211 743 211 774 l 211 322 m 347 111 q 406 124 378 111 q 452 162 435 138 q 476 217 469 186 q 483 278 483 247 l 483 699 l 258 142 q 300 119 276 126 q 347 111 324 111 z "},"":{"ha":694,"x_min":83,"x_max":611,"o":"m 347 -11 q 273 -3 310 -11 q 204 23 236 4 q 148 70 172 42 q 109 133 124 99 q 89 203 94 167 q 83 278 83 240 l 83 1021 l 222 1021 l 222 278 q 224 239 222 258 q 233 201 226 219 q 249 165 239 182 q 274 135 260 147 q 308 117 289 122 q 347 111 328 111 q 386 117 367 111 q 420 135 406 122 q 445 165 435 147 q 462 201 456 182 q 470 239 468 219 q 472 278 472 258 l 472 1021 l 611 1021 l 611 278 q 606 203 611 240 q 585 133 600 167 q 547 70 571 99 q 490 23 522 42 q 422 -3 458 4 q 347 -11 385 -11 m 365 1100 l 178 1288 l 274 1365 l 443 1164 l 365 1100 z "},"":{"ha":694,"x_min":83,"x_max":611,"o":"m 347 -11 q 273 -3 310 -11 q 204 23 236 4 q 148 70 172 42 q 109 133 124 99 q 89 203 94 167 q 83 278 83 240 l 83 1021 l 222 1021 l 222 278 q 224 239 222 258 q 233 201 226 219 q 249 165 239 182 q 274 135 260 147 q 308 117 289 122 q 347 111 328 111 q 386 117 367 111 q 420 135 406 122 q 445 165 435 147 q 462 201 456 182 q 470 239 468 219 q 472 278 472 258 l 472 1021 l 611 1021 l 611 278 q 606 203 611 240 q 585 133 600 167 q 547 70 571 99 q 490 23 522 42 q 422 -3 458 4 q 347 -11 385 -11 m 329 1100 l 251 1164 l 421 1365 l 517 1288 l 329 1100 z "},"":{"ha":694,"x_min":83,"x_max":611,"o":"m 347 -11 q 273 -3 310 -11 q 204 23 236 4 q 148 70 172 42 q 109 133 124 99 q 89 203 94 167 q 83 278 83 240 l 83 1021 l 222 1021 l 222 278 q 224 239 222 258 q 233 201 226 219 q 249 165 239 182 q 274 135 260 147 q 308 117 289 122 q 347 111 328 111 q 386 117 367 111 q 420 135 406 122 q 445 165 435 147 q 462 201 456 182 q 470 239 468 219 q 472 278 472 258 l 472 1021 l 611 1021 l 611 278 q 606 203 611 240 q 585 133 600 167 q 547 70 571 99 q 490 23 522 42 q 422 -3 458 4 q 347 -11 385 -11 m 217 1117 l 142 1168 l 271 1360 l 424 1360 l 553 1168 l 478 1117 l 347 1269 l 217 1117 z "},"":{"ha":694,"x_min":83,"x_max":611,"o":"m 347 -11 q 273 -3 310 -11 q 204 23 236 4 q 148 70 172 42 q 109 133 124 99 q 89 203 94 167 q 83 278 83 240 l 83 1021 l 222 1021 l 222 278 q 224 239 222 258 q 233 201 226 219 q 249 165 239 182 q 274 135 260 147 q 308 117 289 122 q 347 111 328 111 q 386 117 367 111 q 420 135 406 122 q 445 165 435 147 q 462 201 456 182 q 470 239 468 219 q 472 278 472 258 l 472 1021 l 611 1021 l 611 278 q 606 203 611 240 q 585 133 600 167 q 547 70 571 99 q 490 23 522 42 q 422 -3 458 4 q 347 -11 385 -11 m 486 1132 q 447 1138 467 1132 q 414 1157 428 1143 q 394 1190 400 1171 q 389 1229 389 1210 q 394 1268 389 1249 q 414 1301 400 1288 q 447 1321 428 1315 q 486 1326 467 1326 q 525 1321 506 1326 q 558 1301 544 1315 q 578 1268 572 1288 q 583 1229 583 1249 q 578 1190 583 1210 q 558 1157 572 1171 q 525 1138 544 1143 q 486 1132 506 1132 m 208 1132 q 169 1138 189 1132 q 136 1157 150 1143 q 117 1190 122 1171 q 111 1229 111 1210 q 117 1268 111 1249 q 136 1301 122 1288 q 169 1321 150 1315 q 208 1326 189 1326 q 247 1321 228 1326 q 281 1301 267 1315 q 300 1268 294 1288 q 306 1229 306 1249 q 300 1190 306 1210 q 281 1157 294 1171 q 247 1138 267 1143 q 208 1132 228 1132 z "},"":{"ha":694,"x_min":51,"x_max":643,"o":"m 278 0 l 278 419 l 51 1021 l 200 1021 l 347 596 l 494 1021 l 643 1021 l 417 419 l 417 0 l 278 0 m 329 1100 l 251 1164 l 421 1365 l 517 1288 l 329 1100 z "},"":{"ha":694,"x_min":104,"x_max":622,"o":"m 104 0 l 104 1021 l 243 1021 l 243 826 l 294 826 q 381 819 338 826 q 463 794 424 813 q 533 746 501 776 q 586 677 565 715 q 615 597 607 639 q 622 511 622 554 q 615 424 622 467 q 586 344 607 382 q 533 275 565 306 q 463 226 501 244 q 381 201 424 208 q 294 194 338 194 l 243 194 l 243 0 l 104 0 m 243 317 l 294 317 q 346 321 321 317 q 394 338 371 325 q 435 369 417 350 q 464 410 453 388 q 479 459 475 433 q 483 511 483 485 q 479 562 483 536 q 464 610 475 588 q 435 652 453 633 q 394 683 417 671 q 346 700 371 696 q 294 704 321 704 l 243 704 l 243 317 z "},"":{"ha":694,"x_min":83,"x_max":622,"o":"m 83 0 l 83 722 q 88 797 83 760 q 106 871 93 835 q 140 938 118 907 q 193 992 163 969 q 261 1023 224 1014 q 336 1032 299 1032 q 406 1024 371 1032 q 472 998 442 1017 q 524 951 501 979 q 561 892 547 924 q 582 824 575 860 q 589 754 589 789 q 583 691 589 722 q 565 631 576 660 q 534 575 553 601 q 493 528 515 549 q 549 483 524 510 q 592 425 575 457 q 615 358 608 393 q 622 286 622 322 q 613 203 622 244 q 582 128 604 163 q 527 67 560 93 q 456 26 494 42 q 377 6 418 11 q 294 0 336 0 l 261 0 l 261 122 l 294 122 q 342 126 318 122 q 388 138 365 129 q 428 160 410 146 q 460 195 447 175 q 478 239 472 215 q 483 286 483 263 q 469 355 483 321 q 428 411 456 389 q 365 442 400 433 q 294 450 331 450 l 294 571 q 358 587 328 571 q 410 629 389 603 q 440 688 431 656 q 450 753 450 719 q 447 789 450 771 q 439 824 444 807 q 425 858 433 842 q 403 886 417 874 q 372 904 389 899 q 336 910 354 910 q 297 901 315 910 q 265 877 278 893 q 243 842 251 861 q 231 803 235 824 q 224 763 226 783 q 222 722 222 743 l 222 0 l 83 0 z "},"":{"ha":694,"x_min":72,"x_max":611,"o":"m 282 -11 q 199 2 240 -11 q 128 45 157 15 q 85 116 99 75 q 72 200 72 157 q 81 272 72 236 q 113 335 90 307 q 166 384 135 364 q 231 415 197 404 q 301 431 265 426 q 374 435 338 435 l 472 435 l 472 492 q 464 540 472 517 q 438 581 456 564 q 395 604 419 597 q 346 611 371 611 q 301 607 324 611 q 260 590 279 603 q 231 558 242 578 q 219 515 219 538 l 219 511 l 81 511 l 81 518 q 90 581 81 550 q 118 639 100 613 q 163 684 136 665 q 220 714 190 703 q 282 729 250 725 q 346 733 314 733 q 413 728 379 733 q 478 710 447 724 q 536 674 510 696 q 580 622 563 651 q 604 559 597 593 q 611 492 611 525 l 611 0 l 472 0 l 472 115 q 442 63 461 88 q 399 20 424 38 q 343 -4 374 3 q 282 -11 313 -11 m 342 111 q 394 120 368 111 q 439 149 421 129 q 465 196 457 169 q 472 250 472 222 l 472 313 l 374 313 q 338 311 356 313 q 303 306 321 310 q 269 294 286 301 q 239 276 253 288 q 218 248 225 265 q 211 213 211 231 q 222 169 211 190 q 252 134 233 147 q 294 116 271 121 q 342 111 318 111 m 365 801 l 178 989 l 274 1067 l 443 865 l 365 801 z "},"":{"ha":694,"x_min":72,"x_max":611,"o":"m 282 -11 q 199 2 240 -11 q 128 45 157 15 q 85 116 99 75 q 72 200 72 157 q 81 272 72 236 q 113 335 90 307 q 166 384 135 364 q 231 415 197 404 q 301 431 265 426 q 374 435 338 435 l 472 435 l 472 492 q 464 540 472 517 q 438 581 456 564 q 395 604 419 597 q 346 611 371 611 q 301 607 324 611 q 260 590 279 603 q 231 558 242 578 q 219 515 219 538 l 219 511 l 81 511 l 81 518 q 90 581 81 550 q 118 639 100 613 q 163 684 136 665 q 220 714 190 703 q 282 729 250 725 q 346 733 314 733 q 413 728 379 733 q 478 710 447 724 q 536 674 510 696 q 580 622 563 651 q 604 559 597 593 q 611 492 611 525 l 611 0 l 472 0 l 472 115 q 442 63 461 88 q 399 20 424 38 q 343 -4 374 3 q 282 -11 313 -11 m 342 111 q 394 120 368 111 q 439 149 421 129 q 465 196 457 169 q 472 250 472 222 l 472 313 l 374 313 q 338 311 356 313 q 303 306 321 310 q 269 294 286 301 q 239 276 253 288 q 218 248 225 265 q 211 213 211 231 q 222 169 211 190 q 252 134 233 147 q 294 116 271 121 q 342 111 318 111 m 329 801 l 251 865 l 421 1067 l 517 989 l 329 801 z "},"":{"ha":694,"x_min":72,"x_max":611,"o":"m 282 -11 q 199 2 240 -11 q 128 45 157 15 q 85 116 99 75 q 72 200 72 157 q 81 272 72 236 q 113 335 90 307 q 166 384 135 364 q 231 415 197 404 q 301 431 265 426 q 374 435 338 435 l 472 435 l 472 492 q 464 540 472 517 q 438 581 456 564 q 395 604 419 597 q 346 611 371 611 q 301 607 324 611 q 260 590 279 603 q 231 558 242 578 q 219 515 219 538 l 219 511 l 81 511 l 81 518 q 90 581 81 550 q 118 639 100 613 q 163 684 136 665 q 220 714 190 703 q 282 729 250 725 q 346 733 314 733 q 413 728 379 733 q 478 710 447 724 q 536 674 510 696 q 580 622 563 651 q 604 559 597 593 q 611 492 611 525 l 611 0 l 472 0 l 472 115 q 442 63 461 88 q 399 20 424 38 q 343 -4 374 3 q 282 -11 313 -11 m 342 111 q 394 120 368 111 q 439 149 421 129 q 465 196 457 169 q 472 250 472 222 l 472 313 l 374 313 q 338 311 356 313 q 303 306 321 310 q 269 294 286 301 q 239 276 253 288 q 218 248 225 265 q 211 213 211 231 q 222 169 211 190 q 252 134 233 147 q 294 116 271 121 q 342 111 318 111 m 217 818 l 142 869 l 271 1061 l 424 1061 l 553 869 l 478 818 l 347 971 l 217 818 z "},"":{"ha":694,"x_min":72,"x_max":611,"o":"m 282 -11 q 199 2 240 -11 q 128 45 157 15 q 85 116 99 75 q 72 200 72 157 q 81 272 72 236 q 113 335 90 307 q 166 384 135 364 q 231 415 197 404 q 301 431 265 426 q 374 435 338 435 l 472 435 l 472 492 q 464 540 472 517 q 438 581 456 564 q 395 604 419 597 q 346 611 371 611 q 301 607 324 611 q 260 590 279 603 q 231 558 242 578 q 219 515 219 538 l 219 511 l 81 511 l 81 518 q 90 581 81 550 q 118 639 100 613 q 163 684 136 665 q 220 714 190 703 q 282 729 250 725 q 346 733 314 733 q 413 728 379 733 q 478 710 447 724 q 536 674 510 696 q 580 622 563 651 q 604 559 597 593 q 611 492 611 525 l 611 0 l 472 0 l 472 115 q 442 63 461 88 q 399 20 424 38 q 343 -4 374 3 q 282 -11 313 -11 m 342 111 q 394 120 368 111 q 439 149 421 129 q 465 196 457 169 q 472 250 472 222 l 472 313 l 374 313 q 338 311 356 313 q 303 306 321 310 q 269 294 286 301 q 239 276 253 288 q 218 248 225 265 q 211 213 211 231 q 222 169 211 190 q 252 134 233 147 q 294 116 271 121 q 342 111 318 111 m 428 829 q 414 830 421 829 q 401 832 407 831 q 388 836 394 833 q 376 842 382 839 q 364 848 369 844 q 353 855 358 851 q 343 863 349 858 q 333 873 338 868 q 323 883 328 878 q 315 892 318 888 q 308 902 311 897 q 299 913 304 907 q 288 925 293 919 q 279 935 283 931 q 269 945 275 940 q 264 951 264 950 l 271 951 q 267 947 271 950 q 258 938 263 943 q 251 931 253 933 q 247 926 249 929 q 242 920 244 924 q 238 913 240 917 q 233 906 235 910 q 228 899 231 903 q 222 890 225 894 q 217 880 219 885 q 211 869 214 875 q 205 858 208 864 q 199 847 201 853 q 192 833 196 840 l 86 881 q 110 926 99 906 q 134 964 122 947 q 158 996 146 981 q 187 1024 169 1011 q 225 1047 204 1038 q 267 1056 246 1056 q 281 1054 274 1056 q 294 1051 288 1053 q 306 1048 300 1050 q 319 1043 313 1046 q 331 1037 325 1040 q 341 1029 336 1033 q 351 1021 346 1025 q 362 1011 357 1017 q 372 1001 367 1006 q 380 991 376 996 q 387 982 383 986 q 396 972 390 978 q 406 960 401 965 q 415 949 411 954 q 425 940 419 944 q 431 933 431 935 l 424 933 q 428 938 424 935 q 437 946 432 940 q 444 953 442 951 q 448 958 446 956 q 452 965 450 961 q 457 972 454 968 q 462 978 460 975 q 467 986 464 982 q 472 995 469 990 q 478 1005 475 1000 q 483 1015 481 1010 q 490 1026 486 1021 q 496 1038 493 1032 q 503 1051 499 1044 l 608 1004 q 584 958 596 979 q 560 921 572 938 q 537 889 549 904 q 508 860 525 874 q 469 838 490 846 q 428 829 449 829 z "},"":{"ha":694,"x_min":72,"x_max":611,"o":"m 282 -11 q 199 2 240 -11 q 128 45 157 15 q 85 116 99 75 q 72 200 72 157 q 81 272 72 236 q 113 335 90 307 q 166 384 135 364 q 231 415 197 404 q 301 431 265 426 q 374 435 338 435 l 472 435 l 472 492 q 464 540 472 517 q 438 581 456 564 q 395 604 419 597 q 346 611 371 611 q 301 607 324 611 q 260 590 279 603 q 231 558 242 578 q 219 515 219 538 l 219 511 l 81 511 l 81 518 q 90 581 81 550 q 118 639 100 613 q 163 684 136 665 q 220 714 190 703 q 282 729 250 725 q 346 733 314 733 q 413 728 379 733 q 478 710 447 724 q 536 674 510 696 q 580 622 563 651 q 604 559 597 593 q 611 492 611 525 l 611 0 l 472 0 l 472 115 q 442 63 461 88 q 399 20 424 38 q 343 -4 374 3 q 282 -11 313 -11 m 342 111 q 394 120 368 111 q 439 149 421 129 q 465 196 457 169 q 472 250 472 222 l 472 313 l 374 313 q 338 311 356 313 q 303 306 321 310 q 269 294 286 301 q 239 276 253 288 q 218 248 225 265 q 211 213 211 231 q 222 169 211 190 q 252 134 233 147 q 294 116 271 121 q 342 111 318 111 m 486 833 q 447 839 467 833 q 414 858 428 844 q 394 892 400 872 q 389 931 389 911 q 394 969 389 950 q 414 1003 400 989 q 447 1022 428 1017 q 486 1028 467 1028 q 525 1022 506 1028 q 558 1003 544 1017 q 578 969 572 989 q 583 931 583 950 q 578 892 583 911 q 558 858 572 872 q 525 839 544 844 q 486 833 506 833 m 208 833 q 169 839 189 833 q 136 858 150 844 q 117 892 122 872 q 111 931 111 911 q 117 969 111 950 q 136 1003 122 989 q 169 1022 150 1017 q 208 1028 189 1028 q 247 1022 228 1028 q 281 1003 267 1017 q 300 969 294 989 q 306 931 306 950 q 300 892 306 911 q 281 858 294 872 q 247 839 267 844 q 208 833 228 833 z "},"":{"ha":694,"x_min":72,"x_max":611,"o":"m 282 -11 q 199 2 240 -11 q 128 45 157 15 q 85 116 99 75 q 72 200 72 157 q 81 272 72 236 q 113 335 90 307 q 166 384 135 364 q 231 415 197 404 q 301 431 265 426 q 374 435 338 435 l 472 435 l 472 492 q 464 540 472 517 q 438 581 456 564 q 395 604 419 597 q 346 611 371 611 q 301 607 324 611 q 260 590 279 603 q 231 558 242 578 q 219 515 219 538 l 219 511 l 81 511 l 81 518 q 90 581 81 550 q 118 639 100 613 q 163 684 136 665 q 220 714 190 703 q 282 729 250 725 q 346 733 314 733 q 413 728 379 733 q 478 710 447 724 q 536 674 510 696 q 580 622 563 651 q 604 559 597 593 q 611 492 611 525 l 611 0 l 472 0 l 472 115 q 442 63 461 88 q 399 20 424 38 q 343 -4 374 3 q 282 -11 313 -11 m 342 111 q 394 120 368 111 q 439 149 421 129 q 465 196 457 169 q 472 250 472 222 l 472 313 l 374 313 q 338 311 356 313 q 303 306 321 310 q 269 294 286 301 q 239 276 253 288 q 218 248 225 265 q 211 213 211 231 q 222 169 211 190 q 252 134 233 147 q 294 116 271 121 q 342 111 318 111 m 347 794 q 293 803 319 794 q 247 831 267 811 q 219 876 228 850 q 211 931 211 903 q 219 985 211 958 q 247 1031 228 1011 q 293 1058 267 1050 q 347 1067 319 1067 q 401 1058 375 1067 q 447 1031 428 1050 q 475 985 467 1011 q 483 931 483 958 q 475 876 483 903 q 447 831 467 850 q 401 803 428 811 q 347 794 375 794 m 347 879 q 367 882 357 879 q 385 892 378 885 q 396 910 393 900 q 399 931 399 921 q 396 951 399 940 q 385 969 393 961 q 367 979 378 976 q 347 982 357 982 q 327 979 338 982 q 309 969 317 976 q 299 951 301 961 q 296 931 296 940 q 299 910 296 921 q 309 892 301 900 q 327 882 317 885 q 347 879 338 879 z "},"":{"ha":694,"x_min":50,"x_max":644,"o":"m 229 -11 q 177 -5 203 -11 q 129 17 151 1 q 91 53 107 32 q 66 100 75 75 q 53 151 57 125 q 50 204 50 178 q 54 262 50 233 q 69 317 58 290 q 99 365 81 343 q 142 403 118 388 q 195 424 167 418 q 253 429 224 429 l 285 429 l 285 563 q 283 586 285 575 q 274 606 281 597 q 256 620 267 615 q 235 625 246 625 q 207 611 218 625 q 191 582 196 597 q 185 550 186 567 q 183 517 183 533 l 183 511 l 58 511 l 58 522 q 63 574 58 549 q 76 624 67 600 q 100 669 85 649 q 137 706 115 690 q 183 727 158 721 q 235 733 208 733 q 296 726 265 733 q 351 699 326 718 q 405 726 375 718 q 465 733 435 733 q 515 728 490 733 q 563 710 540 722 q 601 677 585 697 q 627 633 617 657 q 641 585 638 610 q 644 533 644 560 l 644 307 l 410 307 l 410 188 q 411 159 410 174 q 419 131 413 144 q 437 107 425 117 q 463 97 449 97 q 491 110 479 97 q 508 140 503 124 q 515 172 513 156 q 517 206 517 189 l 517 211 l 642 211 l 642 200 q 638 148 642 174 q 624 98 633 122 q 599 52 614 74 q 562 16 583 31 q 515 -5 540 1 q 463 -11 489 -11 q 399 -2 431 -11 q 344 29 368 7 q 291 -1 321 8 q 229 -11 261 -11 m 410 415 l 519 415 l 519 533 q 517 563 519 549 q 510 592 515 578 q 492 615 504 606 q 465 625 479 625 q 438 615 450 625 q 419 592 425 606 q 412 563 414 578 q 410 533 410 549 l 410 415 m 229 97 q 259 113 247 97 q 276 144 271 128 q 283 179 282 161 q 285 215 285 197 l 285 321 l 253 321 q 217 310 233 321 q 190 283 200 300 q 178 248 181 267 q 175 210 175 229 q 176 176 175 193 q 183 142 178 158 q 201 111 189 125 q 229 97 213 97 z "},"":{"ha":694,"x_min":72,"x_max":614,"o":"m 343 -11 q 268 -4 306 -11 q 198 22 231 3 q 140 69 165 40 q 99 131 115 97 q 78 203 83 165 q 72 278 72 240 l 72 444 q 78 519 72 482 q 99 591 83 557 q 140 653 115 625 q 198 701 165 682 q 268 726 231 719 q 343 733 306 733 q 414 727 379 733 q 481 706 449 721 q 538 665 513 690 q 581 609 564 640 q 606 543 597 578 q 614 472 614 508 l 614 463 l 475 463 l 475 468 q 467 523 475 496 q 441 571 458 550 q 397 601 424 592 q 343 611 371 611 q 285 598 313 611 q 240 560 257 585 q 217 505 224 535 q 211 444 211 475 l 211 278 q 217 217 211 247 q 240 163 224 188 q 285 124 257 138 q 343 111 313 111 q 397 121 371 111 q 441 151 424 131 q 467 199 458 172 q 475 254 475 226 l 475 260 l 614 260 l 614 250 q 606 179 614 214 q 581 113 597 144 q 538 57 564 82 q 481 17 513 32 q 414 -5 449 1 q 343 -11 379 -11 m 208 -306 l 208 -201 l 347 -201 q 366 -200 357 -201 q 383 -194 375 -199 q 394 -181 390 -189 q 399 -162 399 -172 q 395 -144 399 -153 q 384 -129 392 -135 q 367 -122 376 -124 q 347 -119 357 -119 l 288 -119 l 288 111 l 407 111 l 407 -58 q 444 -75 426 -64 q 474 -102 461 -86 q 492 -138 486 -118 q 497 -179 497 -158 q 486 -233 497 -207 q 453 -276 475 -260 q 403 -299 431 -293 q 347 -306 375 -306 l 208 -306 z "},"":{"ha":694,"x_min":72,"x_max":622,"o":"m 347 -11 q 272 -4 310 -11 q 201 21 235 3 q 142 67 168 39 q 101 131 117 96 q 78 203 85 165 q 72 278 72 240 l 72 444 q 78 519 72 482 q 101 592 85 557 q 142 655 117 626 q 201 701 168 683 q 272 726 235 719 q 347 733 310 733 q 422 726 385 733 q 493 701 460 719 q 552 655 526 683 q 594 592 578 626 q 616 519 610 557 q 622 444 622 482 l 622 300 l 211 300 l 211 278 q 217 217 211 247 q 242 162 224 186 q 288 124 260 138 q 347 111 317 111 q 394 115 371 111 q 436 133 417 119 q 467 167 456 146 q 481 211 479 188 l 619 211 q 610 146 619 178 q 581 87 600 114 q 534 40 561 60 q 476 9 507 21 q 413 -7 446 -3 q 347 -11 379 -11 m 483 422 l 483 444 q 476 506 483 475 q 452 560 469 536 q 406 598 435 585 q 347 611 378 611 q 288 598 317 611 q 242 560 260 585 q 218 506 225 536 q 211 444 211 475 l 211 422 l 483 422 m 365 801 l 178 989 l 274 1067 l 443 865 l 365 801 z "},"":{"ha":694,"x_min":72,"x_max":622,"o":"m 347 -11 q 272 -4 310 -11 q 201 21 235 3 q 142 67 168 39 q 101 131 117 96 q 78 203 85 165 q 72 278 72 240 l 72 444 q 78 519 72 482 q 101 592 85 557 q 142 655 117 626 q 201 701 168 683 q 272 726 235 719 q 347 733 310 733 q 422 726 385 733 q 493 701 460 719 q 552 655 526 683 q 594 592 578 626 q 616 519 610 557 q 622 444 622 482 l 622 300 l 211 300 l 211 278 q 217 217 211 247 q 242 162 224 186 q 288 124 260 138 q 347 111 317 111 q 394 115 371 111 q 436 133 417 119 q 467 167 456 146 q 481 211 479 188 l 619 211 q 610 146 619 178 q 581 87 600 114 q 534 40 561 60 q 476 9 507 21 q 413 -7 446 -3 q 347 -11 379 -11 m 483 422 l 483 444 q 476 506 483 475 q 452 560 469 536 q 406 598 435 585 q 347 611 378 611 q 288 598 317 611 q 242 560 260 585 q 218 506 225 536 q 211 444 211 475 l 211 422 l 483 422 m 329 801 l 251 865 l 421 1067 l 517 989 l 329 801 z "},"":{"ha":694,"x_min":72,"x_max":622,"o":"m 347 -11 q 272 -4 310 -11 q 201 21 235 3 q 142 67 168 39 q 101 131 117 96 q 78 203 85 165 q 72 278 72 240 l 72 444 q 78 519 72 482 q 101 592 85 557 q 142 655 117 626 q 201 701 168 683 q 272 726 235 719 q 347 733 310 733 q 422 726 385 733 q 493 701 460 719 q 552 655 526 683 q 594 592 578 626 q 616 519 610 557 q 622 444 622 482 l 622 300 l 211 300 l 211 278 q 217 217 211 247 q 242 162 224 186 q 288 124 260 138 q 347 111 317 111 q 394 115 371 111 q 436 133 417 119 q 467 167 456 146 q 481 211 479 188 l 619 211 q 610 146 619 178 q 581 87 600 114 q 534 40 561 60 q 476 9 507 21 q 413 -7 446 -3 q 347 -11 379 -11 m 483 422 l 483 444 q 476 506 483 475 q 452 560 469 536 q 406 598 435 585 q 347 611 378 611 q 288 598 317 611 q 242 560 260 585 q 218 506 225 536 q 211 444 211 475 l 211 422 l 483 422 m 217 818 l 142 869 l 271 1061 l 424 1061 l 553 869 l 478 818 l 347 971 l 217 818 z "},"":{"ha":694,"x_min":72,"x_max":622,"o":"m 347 -11 q 272 -4 310 -11 q 201 21 235 3 q 142 67 168 39 q 101 131 117 96 q 78 203 85 165 q 72 278 72 240 l 72 444 q 78 519 72 482 q 101 592 85 557 q 142 655 117 626 q 201 701 168 683 q 272 726 235 719 q 347 733 310 733 q 422 726 385 733 q 493 701 460 719 q 552 655 526 683 q 594 592 578 626 q 616 519 610 557 q 622 444 622 482 l 622 300 l 211 300 l 211 278 q 217 217 211 247 q 242 162 224 186 q 288 124 260 138 q 347 111 317 111 q 394 115 371 111 q 436 133 417 119 q 467 167 456 146 q 481 211 479 188 l 619 211 q 610 146 619 178 q 581 87 600 114 q 534 40 561 60 q 476 9 507 21 q 413 -7 446 -3 q 347 -11 379 -11 m 483 422 l 483 444 q 476 506 483 475 q 452 560 469 536 q 406 598 435 585 q 347 611 378 611 q 288 598 317 611 q 242 560 260 585 q 218 506 225 536 q 211 444 211 475 l 211 422 l 483 422 m 486 833 q 447 839 467 833 q 414 858 428 844 q 394 892 400 872 q 389 931 389 911 q 394 969 389 950 q 414 1003 400 989 q 447 1022 428 1017 q 486 1028 467 1028 q 525 1022 506 1028 q 558 1003 544 1017 q 578 969 572 989 q 583 931 583 950 q 578 892 583 911 q 558 858 572 872 q 525 839 544 844 q 486 833 506 833 m 208 833 q 169 839 189 833 q 136 858 150 844 q 117 892 122 872 q 111 931 111 911 q 117 969 111 950 q 136 1003 122 989 q 169 1022 150 1017 q 208 1028 189 1028 q 247 1022 228 1028 q 281 1003 267 1017 q 300 969 294 989 q 306 931 306 950 q 300 892 306 911 q 281 858 294 872 q 247 839 267 844 q 208 833 228 833 z "},"":{"ha":694,"x_min":104,"x_max":590,"o":"m 104 0 l 104 122 l 288 122 l 288 600 l 124 600 l 124 722 l 426 722 l 426 122 l 590 122 l 590 0 l 104 0 m 372 801 l 185 989 l 281 1067 l 450 865 l 372 801 z "},"":{"ha":694,"x_min":104,"x_max":590,"o":"m 104 0 l 104 122 l 288 122 l 288 600 l 124 600 l 124 722 l 426 722 l 426 122 l 590 122 l 590 0 l 104 0 m 336 801 l 258 865 l 428 1067 l 524 989 l 336 801 z "},"":{"ha":694,"x_min":104,"x_max":590,"o":"m 104 0 l 104 122 l 288 122 l 288 600 l 124 600 l 124 722 l 426 722 l 426 122 l 590 122 l 590 0 l 104 0 m 224 818 l 149 869 l 278 1061 l 431 1061 l 560 869 l 485 818 l 354 971 l 224 818 z "},"":{"ha":694,"x_min":104,"x_max":590,"o":"m 104 0 l 104 122 l 288 122 l 288 600 l 124 600 l 124 722 l 426 722 l 426 122 l 590 122 l 590 0 l 104 0 m 486 833 q 447 839 467 833 q 414 858 428 844 q 394 892 400 872 q 389 931 389 911 q 394 969 389 950 q 414 1003 400 989 q 447 1022 428 1017 q 486 1028 467 1028 q 525 1022 506 1028 q 558 1003 544 1017 q 578 969 572 989 q 583 931 583 950 q 578 892 583 911 q 558 858 572 872 q 525 839 544 844 q 486 833 506 833 m 208 833 q 169 839 189 833 q 136 858 150 844 q 117 892 122 872 q 111 931 111 911 q 117 969 111 950 q 136 1003 122 989 q 169 1022 150 1017 q 208 1028 189 1028 q 247 1022 228 1028 q 281 1003 267 1017 q 300 969 294 989 q 306 931 306 950 q 300 892 306 911 q 281 858 294 872 q 247 839 267 844 q 208 833 228 833 z "},"":{"ha":694,"x_min":72,"x_max":622,"o":"m 347 -11 q 267 -2 307 -11 q 194 29 228 7 q 136 83 161 51 q 97 153 111 115 q 77 231 82 190 q 72 311 72 271 q 76 382 72 346 q 89 452 79 418 q 115 518 99 486 q 158 575 132 550 q 219 612 185 600 q 289 624 253 624 q 350 615 319 624 q 405 588 381 607 q 447 542 429 568 q 475 488 464 517 q 447 610 467 550 q 396 725 428 671 l 150 660 l 122 756 l 329 810 q 258 866 297 842 q 176 904 219 890 l 218 1021 q 359 954 293 999 q 475 849 425 910 l 571 875 l 599 779 l 532 761 q 576 663 558 714 q 606 560 594 613 q 619 453 617 507 q 622 344 622 399 l 622 307 q 617 227 622 267 q 597 151 611 188 q 557 82 582 114 q 499 28 532 50 q 426 -2 465 7 q 347 -11 388 -11 m 347 111 q 391 119 369 111 q 429 142 413 126 q 456 176 446 157 q 473 217 467 196 q 481 261 479 239 q 483 306 483 283 q 481 351 483 329 q 473 395 479 374 q 456 436 467 417 q 429 471 446 456 q 391 494 413 486 q 347 501 369 501 q 303 494 325 501 q 265 472 282 488 q 238 437 249 457 q 222 395 228 417 q 214 351 217 374 q 211 307 211 329 q 214 263 211 285 q 222 218 217 240 q 238 176 228 196 q 265 142 249 157 q 303 119 282 126 q 347 111 325 111 z "},"":{"ha":694,"x_min":83,"x_max":611,"o":"m 83 0 l 83 722 l 222 722 l 222 594 q 250 650 233 624 q 291 696 267 676 q 345 724 315 715 q 406 733 375 733 q 472 723 439 733 q 528 690 504 713 q 569 638 553 668 q 595 576 586 608 q 608 511 604 544 q 611 444 611 478 l 611 0 l 472 0 l 472 444 q 470 483 472 464 q 462 522 468 503 q 445 558 456 540 q 420 588 435 575 q 386 606 406 600 q 347 611 367 611 q 308 606 328 611 q 274 588 289 600 q 249 558 260 575 q 233 522 239 540 q 224 483 226 503 q 222 444 222 464 l 222 0 l 83 0 m 428 829 q 414 830 421 829 q 401 832 407 831 q 388 836 394 833 q 376 842 382 839 q 364 848 369 844 q 353 855 358 851 q 343 863 349 858 q 333 873 338 868 q 323 883 328 878 q 315 892 318 888 q 308 902 311 897 q 299 913 304 907 q 288 925 293 919 q 279 935 283 931 q 269 945 275 940 q 264 951 264 950 l 271 951 q 267 947 271 950 q 258 938 263 943 q 251 931 253 933 q 247 926 249 929 q 242 920 244 924 q 238 913 240 917 q 233 906 235 910 q 228 899 231 903 q 222 890 225 894 q 217 880 219 885 q 211 869 214 875 q 205 858 208 864 q 199 847 201 853 q 192 833 196 840 l 86 881 q 110 926 99 906 q 134 964 122 947 q 158 996 146 981 q 187 1024 169 1011 q 225 1047 204 1038 q 267 1056 246 1056 q 281 1054 274 1056 q 294 1051 288 1053 q 306 1048 300 1050 q 319 1043 313 1046 q 331 1037 325 1040 q 341 1029 336 1033 q 351 1021 346 1025 q 362 1011 357 1017 q 372 1001 367 1006 q 380 991 376 996 q 387 982 383 986 q 396 972 390 978 q 406 960 401 965 q 415 949 411 954 q 425 940 419 944 q 431 933 431 935 l 424 933 q 428 938 424 935 q 437 946 432 940 q 444 953 442 951 q 448 958 446 956 q 452 965 450 961 q 457 972 454 968 q 462 978 460 975 q 467 986 464 982 q 472 995 469 990 q 478 1005 475 1000 q 483 1015 481 1010 q 490 1026 486 1021 q 496 1038 493 1032 q 503 1051 499 1044 l 608 1004 q 584 958 596 979 q 560 921 572 938 q 537 889 549 904 q 508 860 525 874 q 469 838 490 846 q 428 829 449 829 z "},"":{"ha":694,"x_min":72,"x_max":622,"o":"m 347 -11 q 272 -4 310 -11 q 201 21 235 3 q 142 67 168 39 q 101 131 117 96 q 78 203 85 165 q 72 278 72 240 l 72 444 q 78 519 72 482 q 101 592 85 557 q 142 655 117 626 q 201 701 168 683 q 272 726 235 719 q 347 733 310 733 q 422 726 385 733 q 493 701 460 719 q 552 655 526 683 q 594 592 578 626 q 616 519 610 557 q 622 444 622 482 l 622 278 q 616 203 622 240 q 594 131 610 165 q 552 67 578 96 q 493 21 526 39 q 422 -4 460 3 q 347 -11 385 -11 m 347 111 q 406 124 378 111 q 452 162 435 138 q 476 217 469 186 q 483 278 483 247 l 483 444 q 476 506 483 475 q 452 560 469 536 q 406 598 435 585 q 347 611 378 611 q 288 598 317 611 q 242 560 260 585 q 218 506 225 536 q 211 444 211 475 l 211 278 q 218 217 211 247 q 242 162 225 186 q 288 124 260 138 q 347 111 317 111 m 365 801 l 178 989 l 274 1067 l 443 865 l 365 801 z "},"":{"ha":694,"x_min":72,"x_max":622,"o":"m 347 -11 q 272 -4 310 -11 q 201 21 235 3 q 142 67 168 39 q 101 131 117 96 q 78 203 85 165 q 72 278 72 240 l 72 444 q 78 519 72 482 q 101 592 85 557 q 142 655 117 626 q 201 701 168 683 q 272 726 235 719 q 347 733 310 733 q 422 726 385 733 q 493 701 460 719 q 552 655 526 683 q 594 592 578 626 q 616 519 610 557 q 622 444 622 482 l 622 278 q 616 203 622 240 q 594 131 610 165 q 552 67 578 96 q 493 21 526 39 q 422 -4 460 3 q 347 -11 385 -11 m 347 111 q 406 124 378 111 q 452 162 435 138 q 476 217 469 186 q 483 278 483 247 l 483 444 q 476 506 483 475 q 452 560 469 536 q 406 598 435 585 q 347 611 378 611 q 288 598 317 611 q 242 560 260 585 q 218 506 225 536 q 211 444 211 475 l 211 278 q 218 217 211 247 q 242 162 225 186 q 288 124 260 138 q 347 111 317 111 m 329 801 l 251 865 l 421 1067 l 517 989 l 329 801 z "},"":{"ha":694,"x_min":72,"x_max":622,"o":"m 347 -11 q 272 -4 310 -11 q 201 21 235 3 q 142 67 168 39 q 101 131 117 96 q 78 203 85 165 q 72 278 72 240 l 72 444 q 78 519 72 482 q 101 592 85 557 q 142 655 117 626 q 201 701 168 683 q 272 726 235 719 q 347 733 310 733 q 422 726 385 733 q 493 701 460 719 q 552 655 526 683 q 594 592 578 626 q 616 519 610 557 q 622 444 622 482 l 622 278 q 616 203 622 240 q 594 131 610 165 q 552 67 578 96 q 493 21 526 39 q 422 -4 460 3 q 347 -11 385 -11 m 347 111 q 406 124 378 111 q 452 162 435 138 q 476 217 469 186 q 483 278 483 247 l 483 444 q 476 506 483 475 q 452 560 469 536 q 406 598 435 585 q 347 611 378 611 q 288 598 317 611 q 242 560 260 585 q 218 506 225 536 q 211 444 211 475 l 211 278 q 218 217 211 247 q 242 162 225 186 q 288 124 260 138 q 347 111 317 111 m 217 818 l 142 869 l 271 1061 l 424 1061 l 553 869 l 478 818 l 347 971 l 217 818 z "},"":{"ha":694,"x_min":72,"x_max":622,"o":"m 347 -11 q 272 -4 310 -11 q 201 21 235 3 q 142 67 168 39 q 101 131 117 96 q 78 203 85 165 q 72 278 72 240 l 72 444 q 78 519 72 482 q 101 592 85 557 q 142 655 117 626 q 201 701 168 683 q 272 726 235 719 q 347 733 310 733 q 422 726 385 733 q 493 701 460 719 q 552 655 526 683 q 594 592 578 626 q 616 519 610 557 q 622 444 622 482 l 622 278 q 616 203 622 240 q 594 131 610 165 q 552 67 578 96 q 493 21 526 39 q 422 -4 460 3 q 347 -11 385 -11 m 347 111 q 406 124 378 111 q 452 162 435 138 q 476 217 469 186 q 483 278 483 247 l 483 444 q 476 506 483 475 q 452 560 469 536 q 406 598 435 585 q 347 611 378 611 q 288 598 317 611 q 242 560 260 585 q 218 506 225 536 q 211 444 211 475 l 211 278 q 218 217 211 247 q 242 162 225 186 q 288 124 260 138 q 347 111 317 111 m 428 829 q 414 830 421 829 q 401 832 407 831 q 388 836 394 833 q 376 842 382 839 q 364 848 369 844 q 353 855 358 851 q 343 863 349 858 q 333 873 338 868 q 323 883 328 878 q 315 892 318 888 q 308 902 311 897 q 299 913 304 907 q 288 925 293 919 q 279 935 283 931 q 269 945 275 940 q 264 951 264 950 l 271 951 q 267 947 271 950 q 258 938 263 943 q 251 931 253 933 q 247 926 249 929 q 242 920 244 924 q 238 913 240 917 q 233 906 235 910 q 228 899 231 903 q 222 890 225 894 q 217 880 219 885 q 211 869 214 875 q 205 858 208 864 q 199 847 201 853 q 192 833 196 840 l 86 881 q 110 926 99 906 q 134 964 122 947 q 158 996 146 981 q 187 1024 169 1011 q 225 1047 204 1038 q 267 1056 246 1056 q 281 1054 274 1056 q 294 1051 288 1053 q 306 1048 300 1050 q 319 1043 313 1046 q 331 1037 325 1040 q 341 1029 336 1033 q 351 1021 346 1025 q 362 1011 357 1017 q 372 1001 367 1006 q 380 991 376 996 q 387 982 383 986 q 396 972 390 978 q 406 960 401 965 q 415 949 411 954 q 425 940 419 944 q 431 933 431 935 l 424 933 q 428 938 424 935 q 437 946 432 940 q 444 953 442 951 q 448 958 446 956 q 452 965 450 961 q 457 972 454 968 q 462 978 460 975 q 467 986 464 982 q 472 995 469 990 q 478 1005 475 1000 q 483 1015 481 1010 q 490 1026 486 1021 q 496 1038 493 1032 q 503 1051 499 1044 l 608 1004 q 584 958 596 979 q 560 921 572 938 q 537 889 549 904 q 508 860 525 874 q 469 838 490 846 q 428 829 449 829 z "},"":{"ha":694,"x_min":72,"x_max":622,"o":"m 347 -11 q 272 -4 310 -11 q 201 21 235 3 q 142 67 168 39 q 101 131 117 96 q 78 203 85 165 q 72 278 72 240 l 72 444 q 78 519 72 482 q 101 592 85 557 q 142 655 117 626 q 201 701 168 683 q 272 726 235 719 q 347 733 310 733 q 422 726 385 733 q 493 701 460 719 q 552 655 526 683 q 594 592 578 626 q 616 519 610 557 q 622 444 622 482 l 622 278 q 616 203 622 240 q 594 131 610 165 q 552 67 578 96 q 493 21 526 39 q 422 -4 460 3 q 347 -11 385 -11 m 347 111 q 406 124 378 111 q 452 162 435 138 q 476 217 469 186 q 483 278 483 247 l 483 444 q 476 506 483 475 q 452 560 469 536 q 406 598 435 585 q 347 611 378 611 q 288 598 317 611 q 242 560 260 585 q 218 506 225 536 q 211 444 211 475 l 211 278 q 218 217 211 247 q 242 162 225 186 q 288 124 260 138 q 347 111 317 111 m 486 833 q 447 839 467 833 q 414 858 428 844 q 394 892 400 872 q 389 931 389 911 q 394 969 389 950 q 414 1003 400 989 q 447 1022 428 1017 q 486 1028 467 1028 q 525 1022 506 1028 q 558 1003 544 1017 q 578 969 572 989 q 583 931 583 950 q 578 892 583 911 q 558 858 572 872 q 525 839 544 844 q 486 833 506 833 m 208 833 q 169 839 189 833 q 136 858 150 844 q 117 892 122 872 q 111 931 111 911 q 117 969 111 950 q 136 1003 122 989 q 169 1022 150 1017 q 208 1028 189 1028 q 247 1022 228 1028 q 281 1003 267 1017 q 300 969 294 989 q 306 931 306 950 q 300 892 306 911 q 281 858 294 872 q 247 839 267 844 q 208 833 228 833 z "},"":{"ha":694,"x_min":83,"x_max":611,"o":"m 347 629 q 304 635 325 629 q 268 657 283 642 q 247 693 253 672 q 240 736 240 714 q 247 779 240 758 q 268 815 253 800 q 304 837 283 831 q 347 843 325 843 q 390 837 369 843 q 426 815 411 831 q 448 779 442 800 q 454 736 454 758 q 448 693 454 714 q 426 657 442 672 q 390 635 411 642 q 347 629 369 629 m 611 417 l 83 417 l 83 528 l 611 528 l 611 417 m 347 101 q 304 108 325 101 q 268 129 283 114 q 247 165 253 144 q 240 208 240 186 q 247 251 240 231 q 268 288 253 272 q 304 309 283 303 q 347 315 325 315 q 390 309 369 315 q 426 288 411 303 q 448 251 442 272 q 454 208 454 231 q 448 165 454 186 q 426 129 442 144 q 390 108 411 114 q 347 101 369 101 z "},"":{"ha":694,"x_min":72,"x_max":622,"o":"m 171 -61 l 72 -11 l 128 85 q 101 128 113 106 q 83 176 90 151 q 74 227 76 201 q 72 278 72 253 l 72 444 q 78 519 72 482 q 101 592 85 557 q 142 655 117 626 q 201 701 168 683 q 272 726 235 719 q 347 733 310 733 q 416 728 382 733 q 481 707 450 722 l 524 783 l 622 733 l 567 638 q 593 594 582 617 q 611 546 604 571 q 620 495 618 521 q 622 444 622 469 l 622 278 q 616 203 622 240 q 594 131 610 165 q 552 67 578 96 q 493 21 526 39 q 422 -4 460 3 q 347 -11 385 -11 q 278 -6 313 -11 q 214 15 244 0 l 171 -61 m 214 238 l 417 594 q 383 608 401 604 q 347 611 365 611 q 288 598 317 611 q 242 560 260 585 q 218 506 225 536 q 211 444 211 475 l 211 278 q 212 258 211 268 q 214 238 213 247 m 347 111 q 406 124 378 111 q 452 162 435 138 q 476 217 469 186 q 483 278 483 247 l 483 444 q 483 465 483 454 q 481 485 482 475 l 278 128 q 311 115 293 118 q 347 111 329 111 z "},"":{"ha":694,"x_min":83,"x_max":611,"o":"m 289 -11 q 223 -1 256 -11 q 166 32 190 10 q 125 84 142 54 q 99 146 108 114 q 87 211 90 178 q 83 278 83 244 l 83 722 l 222 722 l 222 278 q 224 239 222 258 q 233 201 226 219 q 249 165 239 182 q 274 135 260 147 q 308 117 289 122 q 347 111 328 111 q 386 117 367 111 q 420 135 406 122 q 445 165 435 147 q 462 201 456 182 q 470 239 468 219 q 472 278 472 258 l 472 722 l 611 722 l 611 0 l 472 0 l 472 128 q 444 72 461 99 q 403 26 428 46 q 349 -2 379 7 q 289 -11 319 -11 m 365 801 l 178 989 l 274 1067 l 443 865 l 365 801 z "},"":{"ha":694,"x_min":83,"x_max":611,"o":"m 289 -11 q 223 -1 256 -11 q 166 32 190 10 q 125 84 142 54 q 99 146 108 114 q 87 211 90 178 q 83 278 83 244 l 83 722 l 222 722 l 222 278 q 224 239 222 258 q 233 201 226 219 q 249 165 239 182 q 274 135 260 147 q 308 117 289 122 q 347 111 328 111 q 386 117 367 111 q 420 135 406 122 q 445 165 435 147 q 462 201 456 182 q 470 239 468 219 q 472 278 472 258 l 472 722 l 611 722 l 611 0 l 472 0 l 472 128 q 444 72 461 99 q 403 26 428 46 q 349 -2 379 7 q 289 -11 319 -11 m 329 801 l 251 865 l 421 1067 l 517 989 l 329 801 z "},"":{"ha":694,"x_min":83,"x_max":611,"o":"m 289 -11 q 223 -1 256 -11 q 166 32 190 10 q 125 84 142 54 q 99 146 108 114 q 87 211 90 178 q 83 278 83 244 l 83 722 l 222 722 l 222 278 q 224 239 222 258 q 233 201 226 219 q 249 165 239 182 q 274 135 260 147 q 308 117 289 122 q 347 111 328 111 q 386 117 367 111 q 420 135 406 122 q 445 165 435 147 q 462 201 456 182 q 470 239 468 219 q 472 278 472 258 l 472 722 l 611 722 l 611 0 l 472 0 l 472 128 q 444 72 461 99 q 403 26 428 46 q 349 -2 379 7 q 289 -11 319 -11 m 217 818 l 142 869 l 271 1061 l 424 1061 l 553 869 l 478 818 l 347 971 l 217 818 z "},"":{"ha":694,"x_min":83,"x_max":611,"o":"m 289 -11 q 223 -1 256 -11 q 166 32 190 10 q 125 84 142 54 q 99 146 108 114 q 87 211 90 178 q 83 278 83 244 l 83 722 l 222 722 l 222 278 q 224 239 222 258 q 233 201 226 219 q 249 165 239 182 q 274 135 260 147 q 308 117 289 122 q 347 111 328 111 q 386 117 367 111 q 420 135 406 122 q 445 165 435 147 q 462 201 456 182 q 470 239 468 219 q 472 278 472 258 l 472 722 l 611 722 l 611 0 l 472 0 l 472 128 q 444 72 461 99 q 403 26 428 46 q 349 -2 379 7 q 289 -11 319 -11 m 486 833 q 447 839 467 833 q 414 858 428 844 q 394 892 400 872 q 389 931 389 911 q 394 969 389 950 q 414 1003 400 989 q 447 1022 428 1017 q 486 1028 467 1028 q 525 1022 506 1028 q 558 1003 544 1017 q 578 969 572 989 q 583 931 583 950 q 578 892 583 911 q 558 858 572 872 q 525 839 544 844 q 486 833 506 833 m 208 833 q 169 839 189 833 q 136 858 150 844 q 117 892 122 872 q 111 931 111 911 q 117 969 111 950 q 136 1003 122 989 q 169 1022 150 1017 q 208 1028 189 1028 q 247 1022 228 1028 q 281 1003 267 1017 q 300 969 294 989 q 306 931 306 950 q 300 892 306 911 q 281 858 294 872 q 247 839 267 844 q 208 833 228 833 z "},"":{"ha":694,"x_min":67,"x_max":628,"o":"m 194 -299 q 222 -202 208 -250 q 250 -107 236 -154 l 276 -10 l 67 722 l 211 722 l 350 169 l 483 722 l 628 722 l 339 -299 l 194 -299 m 329 801 l 251 865 l 421 1067 l 517 989 l 329 801 z "},"":{"ha":694,"x_min":83,"x_max":622,"o":"m 83 -299 l 83 1021 l 222 1021 l 222 593 q 251 650 233 624 q 293 696 268 676 q 349 724 318 715 q 411 733 381 733 q 478 723 446 733 q 536 691 511 713 q 578 640 561 669 q 606 578 596 610 q 619 512 615 546 q 622 444 622 478 l 622 278 q 619 210 622 244 q 606 144 615 176 q 578 83 596 113 q 536 31 561 53 q 478 -1 511 10 q 411 -11 446 -11 q 349 -2 381 -11 q 293 26 318 7 q 251 72 268 46 q 222 129 233 99 l 222 -299 l 83 -299 m 353 111 q 410 124 383 111 q 454 163 438 138 q 477 217 471 188 q 483 278 483 247 l 483 444 q 477 505 483 475 q 454 560 471 535 q 410 598 438 585 q 353 611 383 611 q 295 598 322 611 q 251 560 268 585 q 228 505 235 535 q 222 444 222 475 l 222 278 q 228 217 222 247 q 251 163 235 188 q 295 124 268 138 q 353 111 322 111 z "},"":{"ha":694,"x_min":67,"x_max":628,"o":"m 194 -299 q 222 -202 208 -250 q 250 -107 236 -154 l 276 -10 l 67 722 l 211 722 l 350 169 l 483 722 l 628 722 l 339 -299 l 194 -299 m 486 833 q 447 839 467 833 q 414 858 428 844 q 394 892 400 872 q 389 931 389 911 q 394 969 389 950 q 414 1003 400 989 q 447 1022 428 1017 q 486 1028 467 1028 q 525 1022 506 1028 q 558 1003 544 1017 q 578 969 572 989 q 583 931 583 950 q 578 892 583 911 q 558 858 572 872 q 525 839 544 844 q 486 833 506 833 m 208 833 q 169 839 189 833 q 136 858 150 844 q 117 892 122 872 q 111 931 111 911 q 117 969 111 950 q 136 1003 122 989 q 169 1022 150 1017 q 208 1028 189 1028 q 247 1022 228 1028 q 281 1003 267 1017 q 300 969 294 989 q 306 931 306 950 q 300 892 306 911 q 281 858 294 872 q 247 839 267 844 q 208 833 228 833 z "},"":{"ha":694,"x_min":54,"x_max":640,"o":"m 54 0 l 74 97 l 267 1021 l 428 1021 l 640 0 l 499 0 l 453 239 l 242 239 l 196 0 l 54 0 m 431 361 l 371 681 q 359 744 365 713 q 347 808 353 776 q 335 744 342 776 q 324 681 329 713 l 264 361 l 431 361 m 139 1178 l 139 1281 l 556 1281 l 556 1178 l 139 1178 z "},"":{"ha":694,"x_min":72,"x_max":611,"o":"m 282 -11 q 199 2 240 -11 q 128 45 157 15 q 85 116 99 75 q 72 200 72 157 q 81 272 72 236 q 113 335 90 307 q 166 384 135 364 q 231 415 197 404 q 301 431 265 426 q 374 435 338 435 l 472 435 l 472 492 q 464 540 472 517 q 438 581 456 564 q 395 604 419 597 q 346 611 371 611 q 301 607 324 611 q 260 590 279 603 q 231 558 242 578 q 219 515 219 538 l 219 511 l 81 511 l 81 518 q 90 581 81 550 q 118 639 100 613 q 163 684 136 665 q 220 714 190 703 q 282 729 250 725 q 346 733 314 733 q 413 728 379 733 q 478 710 447 724 q 536 674 510 696 q 580 622 563 651 q 604 559 597 593 q 611 492 611 525 l 611 0 l 472 0 l 472 115 q 442 63 461 88 q 399 20 424 38 q 343 -4 374 3 q 282 -11 313 -11 m 342 111 q 394 120 368 111 q 439 149 421 129 q 465 196 457 169 q 472 250 472 222 l 472 313 l 374 313 q 338 311 356 313 q 303 306 321 310 q 269 294 286 301 q 239 276 253 288 q 218 248 225 265 q 211 213 211 231 q 222 169 211 190 q 252 134 233 147 q 294 116 271 121 q 342 111 318 111 m 139 879 l 139 982 l 556 982 l 556 879 l 139 879 z "},"":{"ha":694,"x_min":54,"x_max":640,"o":"m 54 0 l 74 97 l 267 1021 l 428 1021 l 640 0 l 499 0 l 453 239 l 242 239 l 196 0 l 54 0 m 431 361 l 371 681 q 359 744 365 713 q 347 808 353 776 q 335 744 342 776 q 324 681 329 713 l 264 361 l 431 361 m 347 1132 q 291 1135 319 1132 q 236 1149 263 1139 q 188 1177 210 1160 q 149 1219 165 1194 q 127 1271 133 1243 q 121 1326 121 1299 l 240 1326 q 248 1288 240 1307 q 272 1256 256 1268 q 308 1240 288 1244 q 347 1236 328 1236 q 387 1240 367 1236 q 423 1256 407 1244 q 447 1288 439 1268 q 454 1326 454 1307 l 574 1326 q 567 1271 574 1299 q 545 1219 561 1243 q 507 1177 529 1194 q 458 1149 485 1160 q 403 1135 432 1139 q 347 1132 375 1132 z "},"":{"ha":694,"x_min":72,"x_max":611,"o":"m 282 -11 q 199 2 240 -11 q 128 45 157 15 q 85 116 99 75 q 72 200 72 157 q 81 272 72 236 q 113 335 90 307 q 166 384 135 364 q 231 415 197 404 q 301 431 265 426 q 374 435 338 435 l 472 435 l 472 492 q 464 540 472 517 q 438 581 456 564 q 395 604 419 597 q 346 611 371 611 q 301 607 324 611 q 260 590 279 603 q 231 558 242 578 q 219 515 219 538 l 219 511 l 81 511 l 81 518 q 90 581 81 550 q 118 639 100 613 q 163 684 136 665 q 220 714 190 703 q 282 729 250 725 q 346 733 314 733 q 413 728 379 733 q 478 710 447 724 q 536 674 510 696 q 580 622 563 651 q 604 559 597 593 q 611 492 611 525 l 611 0 l 472 0 l 472 115 q 442 63 461 88 q 399 20 424 38 q 343 -4 374 3 q 282 -11 313 -11 m 342 111 q 394 120 368 111 q 439 149 421 129 q 465 196 457 169 q 472 250 472 222 l 472 313 l 374 313 q 338 311 356 313 q 303 306 321 310 q 269 294 286 301 q 239 276 253 288 q 218 248 225 265 q 211 213 211 231 q 222 169 211 190 q 252 134 233 147 q 294 116 271 121 q 342 111 318 111 m 347 833 q 291 837 319 833 q 236 851 263 840 q 188 878 210 861 q 149 920 165 896 q 127 972 133 944 q 121 1028 121 1000 l 240 1028 q 248 989 240 1008 q 272 958 256 969 q 308 942 288 946 q 347 938 328 938 q 387 942 367 938 q 423 958 407 946 q 447 989 439 969 q 454 1028 454 1008 l 574 1028 q 567 972 574 1000 q 545 920 561 944 q 507 878 529 896 q 458 851 485 861 q 403 837 432 840 q 347 833 375 833 z "},"":{"ha":694,"x_min":54,"x_max":640,"o":"m 54 0 l 74 97 l 267 1021 l 428 1021 l 640 0 l 499 0 l 453 239 l 242 239 l 196 0 l 54 0 m 431 361 l 371 681 q 359 744 365 713 q 347 808 353 776 q 335 744 342 776 q 324 681 329 713 l 264 361 l 431 361 m 579 -310 q 537 -306 558 -310 q 495 -296 515 -303 q 457 -277 475 -289 q 426 -249 439 -265 q 406 -211 413 -232 q 400 -169 400 -190 q 419 -90 400 -128 q 468 -24 439 -53 q 534 26 497 6 q 611 57 571 46 l 611 0 q 576 -27 592 -11 q 548 -62 560 -43 q 528 -103 536 -82 q 519 -146 519 -124 q 525 -172 519 -160 q 541 -192 531 -185 q 565 -203 551 -200 q 592 -206 578 -206 q 610 -204 600 -206 q 629 -200 619 -203 l 629 -304 q 604 -308 617 -307 q 579 -310 592 -310 z "},"":{"ha":694,"x_min":72,"x_max":629,"o":"m 282 -11 q 199 2 240 -11 q 128 45 157 15 q 85 116 99 75 q 72 200 72 157 q 81 272 72 236 q 113 335 90 307 q 166 384 135 364 q 231 415 197 404 q 301 431 265 426 q 374 435 338 435 l 472 435 l 472 492 q 464 540 472 517 q 438 581 456 564 q 395 604 419 597 q 346 611 371 611 q 301 607 324 611 q 260 590 279 603 q 231 558 242 578 q 219 515 219 538 l 219 511 l 81 511 l 81 518 q 90 581 81 550 q 118 639 100 613 q 163 684 136 665 q 220 714 190 703 q 282 729 250 725 q 346 733 314 733 q 413 728 379 733 q 478 710 447 724 q 536 674 510 696 q 580 622 563 651 q 604 559 597 593 q 611 492 611 525 l 611 0 l 472 0 l 472 115 q 442 63 461 88 q 399 20 424 38 q 343 -4 374 3 q 282 -11 313 -11 m 342 111 q 394 120 368 111 q 439 149 421 129 q 465 196 457 169 q 472 250 472 222 l 472 313 l 374 313 q 338 311 356 313 q 303 306 321 310 q 269 294 286 301 q 239 276 253 288 q 218 248 225 265 q 211 213 211 231 q 222 169 211 190 q 252 134 233 147 q 294 116 271 121 q 342 111 318 111 m 579 -310 q 537 -306 558 -310 q 495 -296 515 -303 q 457 -277 475 -289 q 426 -249 439 -265 q 406 -211 413 -232 q 400 -169 400 -190 q 419 -90 400 -128 q 468 -24 439 -53 q 534 26 497 6 q 611 57 571 46 l 611 0 q 576 -27 592 -11 q 548 -62 560 -43 q 528 -103 536 -82 q 519 -146 519 -124 q 525 -172 519 -160 q 541 -192 531 -185 q 565 -203 551 -200 q 592 -206 578 -206 q 610 -204 600 -206 q 629 -200 619 -203 l 629 -304 q 604 -308 617 -307 q 579 -310 592 -310 z "},"":{"ha":694,"x_min":72,"x_max":614,"o":"m 343 -11 q 268 -4 306 -11 q 198 22 231 3 q 140 69 165 40 q 99 131 115 97 q 78 203 83 165 q 72 278 72 240 l 72 743 q 78 818 72 781 q 99 890 83 856 q 140 952 115 924 q 198 999 165 981 q 268 1025 231 1018 q 343 1032 306 1032 q 414 1026 379 1032 q 481 1004 449 1019 q 538 964 513 989 q 581 908 564 939 q 606 842 597 876 q 614 771 614 807 l 614 761 l 475 761 l 475 767 q 467 822 475 794 q 441 869 458 849 q 397 900 424 890 q 343 910 371 910 q 285 897 313 910 q 240 858 257 883 q 217 803 224 833 q 211 743 211 774 l 211 278 q 217 217 211 247 q 240 163 224 188 q 285 124 257 138 q 343 111 313 111 q 397 121 371 111 q 441 151 424 131 q 467 199 458 172 q 475 254 475 226 l 475 260 l 614 260 l 614 250 q 606 179 614 214 q 581 113 597 144 q 538 57 564 82 q 481 17 513 32 q 414 -5 449 1 q 343 -11 379 -11 m 329 1100 l 251 1164 l 421 1365 l 517 1288 l 329 1100 z "},"":{"ha":694,"x_min":72,"x_max":614,"o":"m 343 -11 q 268 -4 306 -11 q 198 22 231 3 q 140 69 165 40 q 99 131 115 97 q 78 203 83 165 q 72 278 72 240 l 72 444 q 78 519 72 482 q 99 591 83 557 q 140 653 115 625 q 198 701 165 682 q 268 726 231 719 q 343 733 306 733 q 414 727 379 733 q 481 706 449 721 q 538 665 513 690 q 581 609 564 640 q 606 543 597 578 q 614 472 614 508 l 614 463 l 475 463 l 475 468 q 467 523 475 496 q 441 571 458 550 q 397 601 424 592 q 343 611 371 611 q 285 598 313 611 q 240 560 257 585 q 217 505 224 535 q 211 444 211 475 l 211 278 q 217 217 211 247 q 240 163 224 188 q 285 124 257 138 q 343 111 313 111 q 397 121 371 111 q 441 151 424 131 q 467 199 458 172 q 475 254 475 226 l 475 260 l 614 260 l 614 250 q 606 179 614 214 q 581 113 597 144 q 538 57 564 82 q 481 17 513 32 q 414 -5 449 1 q 343 -11 379 -11 m 329 801 l 251 865 l 421 1067 l 517 989 l 329 801 z "},"":{"ha":694,"x_min":72,"x_max":614,"o":"m 343 -11 q 268 -4 306 -11 q 198 22 231 3 q 140 69 165 40 q 99 131 115 97 q 78 203 83 165 q 72 278 72 240 l 72 743 q 78 818 72 781 q 99 890 83 856 q 140 952 115 924 q 198 999 165 981 q 268 1025 231 1018 q 343 1032 306 1032 q 414 1026 379 1032 q 481 1004 449 1019 q 538 964 513 989 q 581 908 564 939 q 606 842 597 876 q 614 771 614 807 l 614 761 l 475 761 l 475 767 q 467 822 475 794 q 441 869 458 849 q 397 900 424 890 q 343 910 371 910 q 285 897 313 910 q 240 858 257 883 q 217 803 224 833 q 211 743 211 774 l 211 278 q 217 217 211 247 q 240 163 224 188 q 285 124 257 138 q 343 111 313 111 q 397 121 371 111 q 441 151 424 131 q 467 199 458 172 q 475 254 475 226 l 475 260 l 614 260 l 614 250 q 606 179 614 214 q 581 113 597 144 q 538 57 564 82 q 481 17 513 32 q 414 -5 449 1 q 343 -11 379 -11 m 217 1117 l 142 1168 l 271 1360 l 424 1360 l 553 1168 l 478 1117 l 347 1269 l 217 1117 z "},"":{"ha":694,"x_min":72,"x_max":614,"o":"m 343 -11 q 268 -4 306 -11 q 198 22 231 3 q 140 69 165 40 q 99 131 115 97 q 78 203 83 165 q 72 278 72 240 l 72 444 q 78 519 72 482 q 99 591 83 557 q 140 653 115 625 q 198 701 165 682 q 268 726 231 719 q 343 733 306 733 q 414 727 379 733 q 481 706 449 721 q 538 665 513 690 q 581 609 564 640 q 606 543 597 578 q 614 472 614 508 l 614 463 l 475 463 l 475 468 q 467 523 475 496 q 441 571 458 550 q 397 601 424 592 q 343 611 371 611 q 285 598 313 611 q 240 560 257 585 q 217 505 224 535 q 211 444 211 475 l 211 278 q 217 217 211 247 q 240 163 224 188 q 285 124 257 138 q 343 111 313 111 q 397 121 371 111 q 441 151 424 131 q 467 199 458 172 q 475 254 475 226 l 475 260 l 614 260 l 614 250 q 606 179 614 214 q 581 113 597 144 q 538 57 564 82 q 481 17 513 32 q 414 -5 449 1 q 343 -11 379 -11 m 217 818 l 142 869 l 271 1061 l 424 1061 l 553 869 l 478 818 l 347 971 l 217 818 z "},"":{"ha":694,"x_min":72,"x_max":614,"o":"m 343 -11 q 268 -4 306 -11 q 198 22 231 3 q 140 69 165 40 q 99 131 115 97 q 78 203 83 165 q 72 278 72 240 l 72 743 q 78 818 72 781 q 99 890 83 856 q 140 952 115 924 q 198 999 165 981 q 268 1025 231 1018 q 343 1032 306 1032 q 414 1026 379 1032 q 481 1004 449 1019 q 538 964 513 989 q 581 908 564 939 q 606 842 597 876 q 614 771 614 807 l 614 761 l 475 761 l 475 767 q 467 822 475 794 q 441 869 458 849 q 397 900 424 890 q 343 910 371 910 q 285 897 313 910 q 240 858 257 883 q 217 803 224 833 q 211 743 211 774 l 211 278 q 217 217 211 247 q 240 163 224 188 q 285 124 257 138 q 343 111 313 111 q 397 121 371 111 q 441 151 424 131 q 467 199 458 172 q 475 254 475 226 l 475 260 l 614 260 l 614 250 q 606 179 614 214 q 581 113 597 144 q 538 57 564 82 q 481 17 513 32 q 414 -5 449 1 q 343 -11 379 -11 m 347 1125 q 306 1131 326 1125 q 270 1152 285 1138 q 249 1188 256 1167 q 243 1229 243 1208 q 249 1271 243 1250 q 270 1306 256 1292 q 306 1327 285 1321 q 347 1333 326 1333 q 389 1327 368 1333 q 424 1306 410 1321 q 445 1271 439 1292 q 451 1229 451 1250 q 445 1188 451 1208 q 424 1152 439 1167 q 389 1131 410 1138 q 347 1125 368 1125 z "},"":{"ha":694,"x_min":72,"x_max":614,"o":"m 343 -11 q 268 -4 306 -11 q 198 22 231 3 q 140 69 165 40 q 99 131 115 97 q 78 203 83 165 q 72 278 72 240 l 72 444 q 78 519 72 482 q 99 591 83 557 q 140 653 115 625 q 198 701 165 682 q 268 726 231 719 q 343 733 306 733 q 414 727 379 733 q 481 706 449 721 q 538 665 513 690 q 581 609 564 640 q 606 543 597 578 q 614 472 614 508 l 614 463 l 475 463 l 475 468 q 467 523 475 496 q 441 571 458 550 q 397 601 424 592 q 343 611 371 611 q 285 598 313 611 q 240 560 257 585 q 217 505 224 535 q 211 444 211 475 l 211 278 q 217 217 211 247 q 240 163 224 188 q 285 124 257 138 q 343 111 313 111 q 397 121 371 111 q 441 151 424 131 q 467 199 458 172 q 475 254 475 226 l 475 260 l 614 260 l 614 250 q 606 179 614 214 q 581 113 597 144 q 538 57 564 82 q 481 17 513 32 q 414 -5 449 1 q 343 -11 379 -11 m 347 826 q 306 833 326 826 q 270 853 285 839 q 249 889 256 868 q 243 931 243 910 q 249 972 243 951 q 270 1008 256 993 q 306 1028 285 1022 q 347 1035 326 1035 q 389 1028 368 1035 q 424 1008 410 1022 q 445 972 439 993 q 451 931 451 951 q 445 889 451 910 q 424 853 439 868 q 389 833 410 839 q 347 826 368 826 z "},"":{"ha":694,"x_min":72,"x_max":614,"o":"m 343 -11 q 268 -4 306 -11 q 198 22 231 3 q 140 69 165 40 q 99 131 115 97 q 78 203 83 165 q 72 278 72 240 l 72 743 q 78 818 72 781 q 99 890 83 856 q 140 952 115 924 q 198 999 165 981 q 268 1025 231 1018 q 343 1032 306 1032 q 414 1026 379 1032 q 481 1004 449 1019 q 538 964 513 989 q 581 908 564 939 q 606 842 597 876 q 614 771 614 807 l 614 761 l 475 761 l 475 767 q 467 822 475 794 q 441 869 458 849 q 397 900 424 890 q 343 910 371 910 q 285 897 313 910 q 240 858 257 883 q 217 803 224 833 q 211 743 211 774 l 211 278 q 217 217 211 247 q 240 163 224 188 q 285 124 257 138 q 343 111 313 111 q 397 121 371 111 q 441 151 424 131 q 467 199 458 172 q 475 254 475 226 l 475 260 l 614 260 l 614 250 q 606 179 614 214 q 581 113 597 144 q 538 57 564 82 q 481 17 513 32 q 414 -5 449 1 q 343 -11 379 -11 m 271 1132 l 142 1324 l 217 1374 l 347 1221 l 478 1374 l 553 1324 l 424 1132 l 271 1132 z "},"":{"ha":694,"x_min":72,"x_max":614,"o":"m 343 -11 q 268 -4 306 -11 q 198 22 231 3 q 140 69 165 40 q 99 131 115 97 q 78 203 83 165 q 72 278 72 240 l 72 444 q 78 519 72 482 q 99 591 83 557 q 140 653 115 625 q 198 701 165 682 q 268 726 231 719 q 343 733 306 733 q 414 727 379 733 q 481 706 449 721 q 538 665 513 690 q 581 609 564 640 q 606 543 597 578 q 614 472 614 508 l 614 463 l 475 463 l 475 468 q 467 523 475 496 q 441 571 458 550 q 397 601 424 592 q 343 611 371 611 q 285 598 313 611 q 240 560 257 585 q 217 505 224 535 q 211 444 211 475 l 211 278 q 217 217 211 247 q 240 163 224 188 q 285 124 257 138 q 343 111 313 111 q 397 121 371 111 q 441 151 424 131 q 467 199 458 172 q 475 254 475 226 l 475 260 l 614 260 l 614 250 q 606 179 614 214 q 581 113 597 144 q 538 57 564 82 q 481 17 513 32 q 414 -5 449 1 q 343 -11 379 -11 m 271 833 l 142 1025 l 217 1075 l 347 922 l 478 1075 l 553 1025 l 424 833 l 271 833 z "},"":{"ha":694,"x_min":83,"x_max":622,"o":"m 83 0 l 83 1021 l 306 1021 q 389 1014 347 1021 q 468 989 431 1007 q 537 942 506 971 q 588 877 568 914 q 615 799 607 840 q 622 715 622 757 l 622 306 q 615 222 622 264 q 588 144 607 181 q 537 78 568 107 q 468 32 506 50 q 389 7 431 14 q 306 0 347 0 l 83 0 m 222 122 l 306 122 q 353 126 329 122 q 399 142 378 131 q 438 172 421 154 q 465 212 454 190 q 479 258 475 233 q 483 306 483 282 l 483 715 q 479 763 483 739 q 465 809 475 788 q 438 849 454 831 q 399 878 421 867 q 353 894 378 890 q 306 899 329 899 l 222 899 l 222 122 m 271 1132 l 142 1324 l 217 1374 l 347 1221 l 478 1374 l 553 1324 l 424 1132 l 271 1132 z "},"":{"ha":694,"x_min":72,"x_max":757,"o":"m 665 783 l 607 839 q 638 876 625 856 q 658 919 650 896 q 635 928 646 922 q 618 945 625 935 q 608 968 611 956 q 606 993 606 981 q 610 1023 606 1008 q 625 1048 614 1038 q 651 1063 636 1058 q 681 1068 665 1068 q 710 1063 696 1068 q 736 1048 725 1058 q 751 1023 747 1038 q 756 993 756 1008 q 750 934 756 963 q 733 878 744 906 q 705 826 722 850 q 665 783 688 803 m 265 -11 q 203 -1 233 -11 q 149 31 172 10 q 111 80 126 51 q 87 139 96 108 q 75 201 78 169 q 72 264 72 232 l 72 458 q 75 522 72 490 q 87 583 78 553 q 111 642 96 614 q 149 692 126 671 q 203 723 172 713 q 265 733 233 733 q 322 725 294 733 q 373 699 350 717 q 411 656 396 681 q 438 606 426 632 l 438 1021 l 576 1021 l 576 0 l 438 0 l 438 117 q 411 66 426 90 q 373 24 396 42 q 322 -3 350 6 q 265 -11 294 -11 m 324 111 q 376 124 351 111 q 414 160 400 138 q 433 210 428 183 q 438 264 438 238 l 438 458 q 433 512 438 485 q 414 562 428 539 q 376 598 400 585 q 325 611 351 611 q 273 598 297 611 q 235 562 249 585 q 216 512 221 539 q 211 458 211 485 l 211 264 q 216 210 211 238 q 235 160 221 183 q 273 124 249 138 q 324 111 297 111 z "},"":{"ha":694,"x_min":25,"x_max":622,"o":"m 83 0 l 83 461 l 25 461 l 25 560 l 83 560 l 83 1021 l 306 1021 q 389 1014 347 1021 q 468 989 431 1007 q 537 942 506 971 q 588 877 568 914 q 615 799 607 840 q 622 715 622 757 l 622 306 q 615 222 622 264 q 588 144 607 181 q 537 78 568 107 q 468 32 506 50 q 389 7 431 14 q 306 0 347 0 l 83 0 m 222 122 l 306 122 q 353 126 329 122 q 399 142 378 131 q 438 172 421 154 q 465 212 454 190 q 479 258 475 233 q 483 306 483 282 l 483 715 q 479 763 483 739 q 465 809 475 788 q 438 849 454 831 q 399 878 421 867 q 353 894 378 890 q 306 899 329 899 l 222 899 l 222 560 l 353 560 l 353 461 l 222 461 l 222 122 z "},"":{"ha":694,"x_min":72,"x_max":669,"o":"m 283 -11 q 216 -1 249 -11 q 158 31 183 10 q 116 83 133 53 q 89 144 99 113 q 76 210 79 176 q 72 278 72 244 l 72 444 q 76 512 72 478 q 89 578 79 546 q 116 640 99 610 q 158 691 133 669 q 216 723 183 713 q 283 733 249 733 q 345 724 314 733 q 401 696 376 715 q 444 650 426 676 q 472 593 461 624 l 472 822 l 335 822 l 335 921 l 472 921 l 472 1021 l 611 1021 l 611 921 l 669 921 l 669 822 l 611 822 l 611 0 l 472 0 l 472 129 q 444 72 461 99 q 401 26 426 46 q 345 -2 376 7 q 283 -11 314 -11 m 342 111 q 399 124 372 111 q 443 163 426 138 q 466 217 460 188 q 472 278 472 247 l 472 444 q 466 505 472 475 q 443 560 460 535 q 399 598 426 585 q 342 611 372 611 q 284 598 311 611 q 240 560 257 585 q 217 505 224 535 q 211 444 211 475 l 211 278 q 217 217 211 247 q 240 163 224 188 q 284 124 257 138 q 342 111 311 111 z "},"":{"ha":694,"x_min":94,"x_max":611,"o":"m 94 0 l 94 1021 l 611 1021 l 611 899 l 233 899 l 233 592 l 532 592 l 532 469 l 233 469 l 233 122 l 611 122 l 611 0 l 94 0 m 139 1178 l 139 1281 l 556 1281 l 556 1178 l 139 1178 z "},"":{"ha":694,"x_min":72,"x_max":622,"o":"m 347 -11 q 272 -4 310 -11 q 201 21 235 3 q 142 67 168 39 q 101 131 117 96 q 78 203 85 165 q 72 278 72 240 l 72 444 q 78 519 72 482 q 101 592 85 557 q 142 655 117 626 q 201 701 168 683 q 272 726 235 719 q 347 733 310 733 q 422 726 385 733 q 493 701 460 719 q 552 655 526 683 q 594 592 578 626 q 616 519 610 557 q 622 444 622 482 l 622 300 l 211 300 l 211 278 q 217 217 211 247 q 242 162 224 186 q 288 124 260 138 q 347 111 317 111 q 394 115 371 111 q 436 133 417 119 q 467 167 456 146 q 481 211 479 188 l 619 211 q 610 146 619 178 q 581 87 600 114 q 534 40 561 60 q 476 9 507 21 q 413 -7 446 -3 q 347 -11 379 -11 m 483 422 l 483 444 q 476 506 483 475 q 452 560 469 536 q 406 598 435 585 q 347 611 378 611 q 288 598 317 611 q 242 560 260 585 q 218 506 225 536 q 211 444 211 475 l 211 422 l 483 422 m 139 879 l 139 982 l 556 982 l 556 879 l 139 879 z "},"":{"ha":694,"x_min":94,"x_max":611,"o":"m 94 0 l 94 1021 l 611 1021 l 611 899 l 233 899 l 233 592 l 532 592 l 532 469 l 233 469 l 233 122 l 611 122 l 611 0 l 94 0 m 347 1132 q 291 1135 319 1132 q 236 1149 263 1139 q 188 1177 210 1160 q 149 1219 165 1194 q 127 1271 133 1243 q 121 1326 121 1299 l 240 1326 q 248 1288 240 1307 q 272 1256 256 1268 q 308 1240 288 1244 q 347 1236 328 1236 q 387 1240 367 1236 q 423 1256 407 1244 q 447 1288 439 1268 q 454 1326 454 1307 l 574 1326 q 567 1271 574 1299 q 545 1219 561 1243 q 507 1177 529 1194 q 458 1149 485 1160 q 403 1135 432 1139 q 347 1132 375 1132 z "},"":{"ha":694,"x_min":72,"x_max":622,"o":"m 347 -11 q 272 -4 310 -11 q 201 21 235 3 q 142 67 168 39 q 101 131 117 96 q 78 203 85 165 q 72 278 72 240 l 72 444 q 78 519 72 482 q 101 592 85 557 q 142 655 117 626 q 201 701 168 683 q 272 726 235 719 q 347 733 310 733 q 422 726 385 733 q 493 701 460 719 q 552 655 526 683 q 594 592 578 626 q 616 519 610 557 q 622 444 622 482 l 622 300 l 211 300 l 211 278 q 217 217 211 247 q 242 162 224 186 q 288 124 260 138 q 347 111 317 111 q 394 115 371 111 q 436 133 417 119 q 467 167 456 146 q 481 211 479 188 l 619 211 q 610 146 619 178 q 581 87 600 114 q 534 40 561 60 q 476 9 507 21 q 413 -7 446 -3 q 347 -11 379 -11 m 483 422 l 483 444 q 476 506 483 475 q 452 560 469 536 q 406 598 435 585 q 347 611 378 611 q 288 598 317 611 q 242 560 260 585 q 218 506 225 536 q 211 444 211 475 l 211 422 l 483 422 m 347 833 q 291 837 319 833 q 236 851 263 840 q 188 878 210 861 q 149 920 165 896 q 127 972 133 944 q 121 1028 121 1000 l 240 1028 q 248 989 240 1008 q 272 958 256 969 q 308 942 288 946 q 347 938 328 938 q 387 942 367 938 q 423 958 407 946 q 447 989 439 969 q 454 1028 454 1008 l 574 1028 q 567 972 574 1000 q 545 920 561 944 q 507 878 529 896 q 458 851 485 861 q 403 837 432 840 q 347 833 375 833 z "},"":{"ha":694,"x_min":94,"x_max":611,"o":"m 94 0 l 94 1021 l 611 1021 l 611 899 l 233 899 l 233 592 l 532 592 l 532 469 l 233 469 l 233 122 l 611 122 l 611 0 l 94 0 m 347 1125 q 306 1131 326 1125 q 270 1152 285 1138 q 249 1188 256 1167 q 243 1229 243 1208 q 249 1271 243 1250 q 270 1306 256 1292 q 306 1327 285 1321 q 347 1333 326 1333 q 389 1327 368 1333 q 424 1306 410 1321 q 445 1271 439 1292 q 451 1229 451 1250 q 445 1188 451 1208 q 424 1152 439 1167 q 389 1131 410 1138 q 347 1125 368 1125 z "},"":{"ha":694,"x_min":72,"x_max":622,"o":"m 347 -11 q 272 -4 310 -11 q 201 21 235 3 q 142 67 168 39 q 101 131 117 96 q 78 203 85 165 q 72 278 72 240 l 72 444 q 78 519 72 482 q 101 592 85 557 q 142 655 117 626 q 201 701 168 683 q 272 726 235 719 q 347 733 310 733 q 422 726 385 733 q 493 701 460 719 q 552 655 526 683 q 594 592 578 626 q 616 519 610 557 q 622 444 622 482 l 622 300 l 211 300 l 211 278 q 217 217 211 247 q 242 162 224 186 q 288 124 260 138 q 347 111 317 111 q 394 115 371 111 q 436 133 417 119 q 467 167 456 146 q 481 211 479 188 l 619 211 q 610 146 619 178 q 581 87 600 114 q 534 40 561 60 q 476 9 507 21 q 413 -7 446 -3 q 347 -11 379 -11 m 483 422 l 483 444 q 476 506 483 475 q 452 560 469 536 q 406 598 435 585 q 347 611 378 611 q 288 598 317 611 q 242 560 260 585 q 218 506 225 536 q 211 444 211 475 l 211 422 l 483 422 m 347 826 q 306 833 326 826 q 270 853 285 839 q 249 889 256 868 q 243 931 243 910 q 249 972 243 951 q 270 1008 256 993 q 306 1028 285 1022 q 347 1035 326 1035 q 389 1028 368 1035 q 424 1008 410 1022 q 445 972 439 993 q 451 931 451 951 q 445 889 451 910 q 424 853 439 868 q 389 833 410 839 q 347 826 368 826 z "},"":{"ha":694,"x_min":94,"x_max":629,"o":"m 94 0 l 94 1021 l 611 1021 l 611 899 l 233 899 l 233 592 l 532 592 l 532 469 l 233 469 l 233 122 l 611 122 l 611 0 l 94 0 m 579 -310 q 537 -306 558 -310 q 495 -296 515 -303 q 457 -277 475 -289 q 426 -249 439 -265 q 406 -211 413 -232 q 400 -169 400 -190 q 419 -90 400 -128 q 468 -24 439 -53 q 534 26 497 6 q 611 57 571 46 l 611 0 q 576 -27 592 -11 q 548 -62 560 -43 q 528 -103 536 -82 q 519 -146 519 -124 q 525 -172 519 -160 q 541 -192 531 -185 q 565 -203 551 -200 q 592 -206 578 -206 q 610 -204 600 -206 q 629 -200 619 -203 l 629 -304 q 604 -308 617 -307 q 579 -310 592 -310 z "},"":{"ha":694,"x_min":72,"x_max":622,"o":"m 560 -311 q 499 -303 529 -311 q 445 -276 469 -294 q 407 -228 421 -257 q 393 -169 393 -200 q 401 -119 393 -144 q 422 -72 410 -94 q 450 -29 435 -50 q 482 11 465 -8 q 416 -6 450 -1 q 347 -11 382 -11 q 272 -4 310 -11 q 201 21 235 3 q 142 67 168 39 q 101 131 117 96 q 78 203 85 165 q 72 278 72 240 l 72 444 q 78 519 72 482 q 101 592 85 557 q 142 655 117 626 q 201 701 168 683 q 272 726 235 719 q 347 733 310 733 q 422 726 385 733 q 493 701 460 719 q 552 655 526 683 q 594 592 578 626 q 616 519 610 557 q 622 444 622 482 l 622 300 l 211 300 l 211 278 q 217 217 211 247 q 242 162 224 186 q 288 124 260 138 q 347 111 317 111 q 394 115 371 111 q 436 133 417 119 q 467 167 456 146 q 481 211 479 188 l 619 211 q 617 164 619 188 q 609 117 614 140 q 597 72 604 94 q 580 28 589 50 q 560 -15 571 7 q 540 -58 550 -36 q 521 -101 531 -79 q 511 -146 511 -122 q 517 -172 511 -160 q 533 -191 522 -183 q 556 -202 543 -199 q 582 -206 568 -206 q 601 -204 592 -206 q 619 -200 611 -203 l 619 -304 q 590 -309 606 -307 q 560 -311 575 -311 m 483 422 l 483 444 q 476 506 483 475 q 452 560 469 536 q 406 598 435 585 q 347 611 378 611 q 288 598 317 611 q 242 560 260 585 q 218 506 225 536 q 211 444 211 475 l 211 422 l 483 422 z "},"":{"ha":694,"x_min":94,"x_max":611,"o":"m 94 0 l 94 1021 l 611 1021 l 611 899 l 233 899 l 233 592 l 532 592 l 532 469 l 233 469 l 233 122 l 611 122 l 611 0 l 94 0 m 271 1132 l 142 1324 l 217 1374 l 347 1221 l 478 1374 l 553 1324 l 424 1132 l 271 1132 z "},"":{"ha":694,"x_min":72,"x_max":622,"o":"m 347 -11 q 272 -4 310 -11 q 201 21 235 3 q 142 67 168 39 q 101 131 117 96 q 78 203 85 165 q 72 278 72 240 l 72 444 q 78 519 72 482 q 101 592 85 557 q 142 655 117 626 q 201 701 168 683 q 272 726 235 719 q 347 733 310 733 q 422 726 385 733 q 493 701 460 719 q 552 655 526 683 q 594 592 578 626 q 616 519 610 557 q 622 444 622 482 l 622 300 l 211 300 l 211 278 q 217 217 211 247 q 242 162 224 186 q 288 124 260 138 q 347 111 317 111 q 394 115 371 111 q 436 133 417 119 q 467 167 456 146 q 481 211 479 188 l 619 211 q 610 146 619 178 q 581 87 600 114 q 534 40 561 60 q 476 9 507 21 q 413 -7 446 -3 q 347 -11 379 -11 m 483 422 l 483 444 q 476 506 483 475 q 452 560 469 536 q 406 598 435 585 q 347 611 378 611 q 288 598 317 611 q 242 560 260 585 q 218 506 225 536 q 211 444 211 475 l 211 422 l 483 422 m 271 833 l 142 1025 l 217 1075 l 347 922 l 478 1075 l 553 1025 l 424 833 l 271 833 z "},"":{"ha":694,"x_min":72,"x_max":614,"o":"m 283 -11 q 216 -1 249 -11 q 158 31 183 10 q 116 83 133 53 q 89 144 99 113 q 76 210 79 176 q 72 278 72 244 l 72 743 q 78 818 72 781 q 99 890 83 856 q 140 952 115 924 q 198 999 165 981 q 268 1025 231 1018 q 343 1032 306 1032 q 414 1026 379 1032 q 481 1004 449 1019 q 538 964 513 989 q 581 908 564 939 q 606 842 597 876 q 614 771 614 807 l 614 761 l 475 761 l 475 767 q 467 822 475 794 q 441 869 458 849 q 397 900 424 890 q 343 910 371 910 q 285 897 313 910 q 240 858 257 883 q 217 803 224 833 q 211 743 211 774 l 211 278 q 217 219 211 249 q 240 164 224 189 q 284 125 257 139 q 342 111 311 111 q 399 125 372 111 q 443 164 426 139 q 466 219 460 189 q 472 278 472 249 l 472 439 l 347 439 l 347 561 l 611 561 l 611 0 l 483 0 l 483 165 q 458 97 474 131 q 415 39 442 64 q 354 1 389 14 q 283 -11 319 -11 m 217 1117 l 142 1168 l 271 1360 l 424 1360 l 553 1168 l 478 1117 l 347 1269 l 217 1117 z "},"":{"ha":694,"x_min":72,"x_max":611,"o":"m 344 -310 q 281 -306 313 -310 q 221 -291 250 -301 q 165 -262 192 -281 q 120 -219 139 -244 q 91 -164 101 -194 q 81 -101 81 -133 l 219 -101 q 233 -142 221 -124 q 263 -170 244 -160 q 302 -184 281 -181 q 344 -187 324 -187 q 383 -182 364 -187 q 418 -164 403 -176 q 444 -135 433 -151 q 461 -99 456 -118 q 469 -60 467 -81 q 472 -21 472 -40 l 472 129 q 444 72 461 99 q 401 26 426 46 q 345 -2 376 7 q 283 -11 314 -11 q 216 -1 249 -11 q 158 31 183 10 q 116 83 133 53 q 89 144 99 113 q 76 210 79 176 q 72 278 72 244 l 72 444 q 76 512 72 478 q 89 578 79 546 q 116 640 99 610 q 158 691 133 669 q 216 723 183 713 q 283 733 249 733 q 345 724 314 733 q 401 696 376 715 q 444 650 426 676 q 472 593 461 624 l 472 722 l 611 722 l 611 -21 q 606 -95 611 -58 q 585 -166 600 -132 q 544 -229 569 -200 q 488 -276 519 -258 q 419 -302 456 -294 q 344 -310 382 -310 m 342 111 q 399 124 372 111 q 443 163 426 138 q 466 217 460 188 q 472 278 472 247 l 472 444 q 466 505 472 475 q 443 560 460 535 q 399 598 426 585 q 342 611 372 611 q 284 598 311 611 q 240 560 257 585 q 217 505 224 535 q 211 444 211 475 l 211 278 q 217 217 211 247 q 240 163 224 188 q 284 124 257 138 q 342 111 311 111 m 217 818 l 142 869 l 271 1061 l 424 1061 l 553 869 l 478 818 l 347 971 l 217 818 z "},"":{"ha":694,"x_min":72,"x_max":614,"o":"m 283 -11 q 216 -1 249 -11 q 158 31 183 10 q 116 83 133 53 q 89 144 99 113 q 76 210 79 176 q 72 278 72 244 l 72 743 q 78 818 72 781 q 99 890 83 856 q 140 952 115 924 q 198 999 165 981 q 268 1025 231 1018 q 343 1032 306 1032 q 414 1026 379 1032 q 481 1004 449 1019 q 538 964 513 989 q 581 908 564 939 q 606 842 597 876 q 614 771 614 807 l 614 761 l 475 761 l 475 767 q 467 822 475 794 q 441 869 458 849 q 397 900 424 890 q 343 910 371 910 q 285 897 313 910 q 240 858 257 883 q 217 803 224 833 q 211 743 211 774 l 211 278 q 217 219 211 249 q 240 164 224 189 q 284 125 257 139 q 342 111 311 111 q 399 125 372 111 q 443 164 426 139 q 466 219 460 189 q 472 278 472 249 l 472 439 l 347 439 l 347 561 l 611 561 l 611 0 l 483 0 l 483 165 q 458 97 474 131 q 415 39 442 64 q 354 1 389 14 q 283 -11 319 -11 m 347 1132 q 291 1135 319 1132 q 236 1149 263 1139 q 188 1177 210 1160 q 149 1219 165 1194 q 127 1271 133 1243 q 121 1326 121 1299 l 240 1326 q 248 1288 240 1307 q 272 1256 256 1268 q 308 1240 288 1244 q 347 1236 328 1236 q 387 1240 367 1236 q 423 1256 407 1244 q 447 1288 439 1268 q 454 1326 454 1307 l 574 1326 q 567 1271 574 1299 q 545 1219 561 1243 q 507 1177 529 1194 q 458 1149 485 1160 q 403 1135 432 1139 q 347 1132 375 1132 z "},"":{"ha":694,"x_min":72,"x_max":611,"o":"m 344 -310 q 281 -306 313 -310 q 221 -291 250 -301 q 165 -262 192 -281 q 120 -219 139 -244 q 91 -164 101 -194 q 81 -101 81 -133 l 219 -101 q 233 -142 221 -124 q 263 -170 244 -160 q 302 -184 281 -181 q 344 -187 324 -187 q 383 -182 364 -187 q 418 -164 403 -176 q 444 -135 433 -151 q 461 -99 456 -118 q 469 -60 467 -81 q 472 -21 472 -40 l 472 129 q 444 72 461 99 q 401 26 426 46 q 345 -2 376 7 q 283 -11 314 -11 q 216 -1 249 -11 q 158 31 183 10 q 116 83 133 53 q 89 144 99 113 q 76 210 79 176 q 72 278 72 244 l 72 444 q 76 512 72 478 q 89 578 79 546 q 116 640 99 610 q 158 691 133 669 q 216 723 183 713 q 283 733 249 733 q 345 724 314 733 q 401 696 376 715 q 444 650 426 676 q 472 593 461 624 l 472 722 l 611 722 l 611 -21 q 606 -95 611 -58 q 585 -166 600 -132 q 544 -229 569 -200 q 488 -276 519 -258 q 419 -302 456 -294 q 344 -310 382 -310 m 342 111 q 399 124 372 111 q 443 163 426 138 q 466 217 460 188 q 472 278 472 247 l 472 444 q 466 505 472 475 q 443 560 460 535 q 399 598 426 585 q 342 611 372 611 q 284 598 311 611 q 240 560 257 585 q 217 505 224 535 q 211 444 211 475 l 211 278 q 217 217 211 247 q 240 163 224 188 q 284 124 257 138 q 342 111 311 111 m 347 833 q 291 837 319 833 q 236 851 263 840 q 188 878 210 861 q 149 920 165 896 q 127 972 133 944 q 121 1028 121 1000 l 240 1028 q 248 989 240 1008 q 272 958 256 969 q 308 942 288 946 q 347 938 328 938 q 387 942 367 938 q 423 958 407 946 q 447 989 439 969 q 454 1028 454 1008 l 574 1028 q 567 972 574 1000 q 545 920 561 944 q 507 878 529 896 q 458 851 485 861 q 403 837 432 840 q 347 833 375 833 z "},"":{"ha":694,"x_min":72,"x_max":614,"o":"m 283 -11 q 216 -1 249 -11 q 158 31 183 10 q 116 83 133 53 q 89 144 99 113 q 76 210 79 176 q 72 278 72 244 l 72 743 q 78 818 72 781 q 99 890 83 856 q 140 952 115 924 q 198 999 165 981 q 268 1025 231 1018 q 343 1032 306 1032 q 414 1026 379 1032 q 481 1004 449 1019 q 538 964 513 989 q 581 908 564 939 q 606 842 597 876 q 614 771 614 807 l 614 761 l 475 761 l 475 767 q 467 822 475 794 q 441 869 458 849 q 397 900 424 890 q 343 910 371 910 q 285 897 313 910 q 240 858 257 883 q 217 803 224 833 q 211 743 211 774 l 211 278 q 217 219 211 249 q 240 164 224 189 q 284 125 257 139 q 342 111 311 111 q 399 125 372 111 q 443 164 426 139 q 466 219 460 189 q 472 278 472 249 l 472 439 l 347 439 l 347 561 l 611 561 l 611 0 l 483 0 l 483 165 q 458 97 474 131 q 415 39 442 64 q 354 1 389 14 q 283 -11 319 -11 m 347 1125 q 306 1131 326 1125 q 270 1152 285 1138 q 249 1188 256 1167 q 243 1229 243 1208 q 249 1271 243 1250 q 270 1306 256 1292 q 306 1327 285 1321 q 347 1333 326 1333 q 389 1327 368 1333 q 424 1306 410 1321 q 445 1271 439 1292 q 451 1229 451 1250 q 445 1188 451 1208 q 424 1152 439 1167 q 389 1131 410 1138 q 347 1125 368 1125 z "},"":{"ha":694,"x_min":72,"x_max":611,"o":"m 344 -310 q 281 -306 313 -310 q 221 -291 250 -301 q 165 -262 192 -281 q 120 -219 139 -244 q 91 -164 101 -194 q 81 -101 81 -133 l 219 -101 q 233 -142 221 -124 q 263 -170 244 -160 q 302 -184 281 -181 q 344 -187 324 -187 q 383 -182 364 -187 q 418 -164 403 -176 q 444 -135 433 -151 q 461 -99 456 -118 q 469 -60 467 -81 q 472 -21 472 -40 l 472 129 q 444 72 461 99 q 401 26 426 46 q 345 -2 376 7 q 283 -11 314 -11 q 216 -1 249 -11 q 158 31 183 10 q 116 83 133 53 q 89 144 99 113 q 76 210 79 176 q 72 278 72 244 l 72 444 q 76 512 72 478 q 89 578 79 546 q 116 640 99 610 q 158 691 133 669 q 216 723 183 713 q 283 733 249 733 q 345 724 314 733 q 401 696 376 715 q 444 650 426 676 q 472 593 461 624 l 472 722 l 611 722 l 611 -21 q 606 -95 611 -58 q 585 -166 600 -132 q 544 -229 569 -200 q 488 -276 519 -258 q 419 -302 456 -294 q 344 -310 382 -310 m 342 111 q 399 124 372 111 q 443 163 426 138 q 466 217 460 188 q 472 278 472 247 l 472 444 q 466 505 472 475 q 443 560 460 535 q 399 598 426 585 q 342 611 372 611 q 284 598 311 611 q 240 560 257 585 q 217 505 224 535 q 211 444 211 475 l 211 278 q 217 217 211 247 q 240 163 224 188 q 284 124 257 138 q 342 111 311 111 m 347 826 q 306 833 326 826 q 270 853 285 839 q 249 889 256 868 q 243 931 243 910 q 249 972 243 951 q 270 1008 256 993 q 306 1028 285 1022 q 347 1035 326 1035 q 389 1028 368 1035 q 424 1008 410 1022 q 445 972 439 993 q 451 931 451 951 q 445 889 451 910 q 424 853 439 868 q 389 833 410 839 q 347 826 368 826 z "},"":{"ha":694,"x_min":72,"x_max":614,"o":"m 283 -11 q 216 -1 249 -11 q 158 31 183 10 q 116 83 133 53 q 89 144 99 113 q 76 210 79 176 q 72 278 72 244 l 72 743 q 78 818 72 781 q 99 890 83 856 q 140 952 115 924 q 198 999 165 981 q 268 1025 231 1018 q 343 1032 306 1032 q 414 1026 379 1032 q 481 1004 449 1019 q 538 964 513 989 q 581 908 564 939 q 606 842 597 876 q 614 771 614 807 l 614 761 l 475 761 l 475 767 q 467 822 475 794 q 441 869 458 849 q 397 900 424 890 q 343 910 371 910 q 285 897 313 910 q 240 858 257 883 q 217 803 224 833 q 211 743 211 774 l 211 278 q 217 219 211 249 q 240 164 224 189 q 284 125 257 139 q 342 111 311 111 q 399 125 372 111 q 443 164 426 139 q 466 219 460 189 q 472 278 472 249 l 472 439 l 347 439 l 347 561 l 611 561 l 611 0 l 483 0 l 483 165 q 458 97 474 131 q 415 39 442 64 q 354 1 389 14 q 283 -11 319 -11 m 332 -353 l 274 -297 q 304 -260 292 -281 q 325 -215 317 -239 q 302 -206 313 -212 q 285 -190 292 -200 q 275 -167 278 -179 q 272 -143 272 -154 q 276 -112 272 -128 q 292 -87 281 -97 q 317 -72 303 -76 q 347 -67 332 -67 q 377 -72 363 -67 q 403 -87 392 -76 q 418 -112 414 -97 q 422 -143 422 -128 q 417 -201 422 -172 q 400 -258 411 -231 q 372 -308 389 -285 q 332 -353 354 -332 z "},"":{"ha":694,"x_min":72,"x_max":611,"o":"m 344 -310 q 281 -306 313 -310 q 221 -291 250 -301 q 165 -262 192 -281 q 120 -219 139 -244 q 91 -164 101 -194 q 81 -101 81 -133 l 219 -101 q 233 -142 221 -124 q 263 -170 244 -160 q 302 -184 281 -181 q 344 -187 324 -187 q 383 -182 364 -187 q 418 -164 403 -176 q 444 -135 433 -151 q 461 -99 456 -118 q 469 -60 467 -81 q 472 -21 472 -40 l 472 129 q 444 72 461 99 q 401 26 426 46 q 345 -2 376 7 q 283 -11 314 -11 q 216 -1 249 -11 q 158 31 183 10 q 116 83 133 53 q 89 144 99 113 q 76 210 79 176 q 72 278 72 244 l 72 444 q 76 512 72 478 q 89 578 79 546 q 116 640 99 610 q 158 691 133 669 q 216 723 183 713 q 283 733 249 733 q 345 724 314 733 q 401 696 376 715 q 444 650 426 676 q 472 593 461 624 l 472 722 l 611 722 l 611 -21 q 606 -95 611 -58 q 585 -166 600 -132 q 544 -229 569 -200 q 488 -276 519 -258 q 419 -302 456 -294 q 344 -310 382 -310 m 342 111 q 399 124 372 111 q 443 163 426 138 q 466 217 460 188 q 472 278 472 247 l 472 444 q 466 505 472 475 q 443 560 460 535 q 399 598 426 585 q 342 611 372 611 q 284 598 311 611 q 240 560 257 585 q 217 505 224 535 q 211 444 211 475 l 211 278 q 217 217 211 247 q 240 163 224 188 q 284 124 257 138 q 342 111 311 111 m 347 789 q 317 794 332 789 q 292 809 303 799 q 276 835 281 819 q 272 865 272 850 q 278 924 272 894 q 294 980 283 953 q 323 1031 306 1007 q 363 1075 340 1054 l 421 1019 q 390 982 403 1003 q 369 938 378 961 q 392 928 382 935 q 410 912 403 922 q 419 889 417 901 q 422 865 422 876 q 418 835 422 850 q 403 809 414 819 q 377 794 392 799 q 347 789 363 789 z "},"":{"ha":694,"x_min":83,"x_max":611,"o":"m 83 0 l 83 1021 l 222 1021 l 222 586 l 472 586 l 472 1021 l 611 1021 l 611 0 l 472 0 l 472 464 l 222 464 l 222 0 l 83 0 m 217 1117 l 142 1168 l 271 1360 l 424 1360 l 553 1168 l 478 1117 l 347 1269 l 217 1117 z "},"":{"ha":694,"x_min":-53,"x_max":611,"o":"m 83 0 l 83 1021 l 222 1021 l 222 594 q 250 650 233 624 q 291 696 267 676 q 345 724 315 715 q 406 733 375 733 q 472 723 439 733 q 528 690 504 713 q 569 638 553 668 q 595 576 586 608 q 608 511 604 544 q 611 444 611 478 l 611 0 l 472 0 l 472 444 q 470 483 472 464 q 462 522 468 503 q 445 558 456 540 q 420 588 435 575 q 386 606 406 600 q 347 611 367 611 q 308 606 328 611 q 274 588 289 600 q 249 558 260 575 q 233 522 239 540 q 224 483 226 503 q 222 444 222 464 l 222 0 l 83 0 m 22 1117 l -53 1168 l 76 1360 l 229 1360 l 358 1168 l 283 1117 l 153 1269 l 22 1117 z "},"":{"ha":694,"x_min":25,"x_max":669,"o":"m 83 0 l 83 754 l 25 754 l 25 853 l 83 853 l 83 1021 l 222 1021 l 222 853 l 472 853 l 472 1021 l 611 1021 l 611 853 l 669 853 l 669 754 l 611 754 l 611 0 l 472 0 l 472 464 l 222 464 l 222 0 l 83 0 m 222 586 l 472 586 l 472 754 l 222 754 l 222 586 z "},"":{"ha":694,"x_min":25,"x_max":611,"o":"m 83 0 l 83 807 l 25 807 l 25 906 l 83 906 l 83 1021 l 222 1021 l 222 906 l 347 906 l 347 807 l 222 807 l 222 594 q 250 650 233 624 q 291 696 267 676 q 345 724 315 715 q 406 733 375 733 q 472 723 439 733 q 528 690 504 713 q 569 638 553 668 q 595 576 586 608 q 608 511 604 544 q 611 444 611 478 l 611 0 l 472 0 l 472 444 q 470 483 472 464 q 462 522 468 503 q 445 558 456 540 q 420 588 435 575 q 386 606 406 600 q 347 611 367 611 q 308 606 328 611 q 274 588 289 600 q 249 558 260 575 q 233 522 239 540 q 224 483 226 503 q 222 444 222 464 l 222 0 l 83 0 z "},"":{"ha":694,"x_min":86,"x_max":608,"o":"m 104 0 l 104 122 l 278 122 l 278 899 l 104 899 l 104 1021 l 590 1021 l 590 899 l 417 899 l 417 122 l 590 122 l 590 0 l 104 0 m 428 1128 q 414 1128 421 1128 q 401 1131 407 1129 q 388 1135 394 1132 q 376 1140 382 1138 q 364 1147 369 1143 q 353 1153 358 1150 q 343 1162 349 1157 q 333 1172 338 1167 q 323 1181 328 1176 q 315 1191 318 1186 q 308 1201 311 1196 q 299 1212 304 1206 q 288 1224 293 1218 q 279 1234 283 1229 q 269 1244 275 1239 q 264 1250 264 1249 l 271 1250 q 267 1245 271 1249 q 258 1237 263 1242 q 251 1230 253 1232 q 247 1225 249 1228 q 242 1219 244 1222 q 238 1212 240 1215 q 233 1205 235 1208 q 228 1197 231 1201 q 222 1188 225 1193 q 217 1178 219 1183 q 211 1168 214 1174 q 205 1157 208 1163 q 199 1145 201 1151 q 192 1132 196 1139 l 86 1179 q 110 1225 99 1204 q 134 1263 122 1246 q 158 1294 146 1279 q 187 1323 169 1310 q 225 1345 204 1336 q 267 1354 246 1354 q 281 1353 274 1354 q 294 1350 288 1351 q 306 1347 300 1349 q 319 1342 313 1344 q 331 1335 325 1339 q 341 1328 336 1332 q 351 1319 346 1324 q 362 1310 357 1315 q 372 1299 367 1304 q 380 1290 376 1294 q 387 1281 383 1285 q 396 1270 390 1276 q 406 1258 401 1264 q 415 1248 411 1253 q 425 1238 419 1243 q 431 1232 431 1233 l 424 1232 q 428 1236 424 1233 q 437 1244 432 1239 q 444 1252 442 1250 q 448 1257 446 1254 q 452 1263 450 1260 q 457 1270 454 1267 q 462 1277 460 1274 q 467 1285 464 1281 q 472 1294 469 1289 q 478 1303 475 1299 q 483 1314 481 1308 q 490 1325 486 1319 q 496 1337 493 1331 q 503 1350 499 1343 l 608 1303 q 584 1257 596 1278 q 560 1219 572 1236 q 537 1188 549 1203 q 508 1158 525 1172 q 469 1136 490 1144 q 428 1128 449 1128 z "},"":{"ha":694,"x_min":86,"x_max":608,"o":"m 104 0 l 104 122 l 288 122 l 288 600 l 124 600 l 124 722 l 426 722 l 426 122 l 590 122 l 590 0 l 104 0 m 428 829 q 414 830 421 829 q 401 832 407 831 q 388 836 394 833 q 376 842 382 839 q 364 848 369 844 q 353 855 358 851 q 343 863 349 858 q 333 873 338 868 q 323 883 328 878 q 315 892 318 888 q 308 902 311 897 q 299 913 304 907 q 288 925 293 919 q 279 935 283 931 q 269 945 275 940 q 264 951 264 950 l 271 951 q 267 947 271 950 q 258 938 263 943 q 251 931 253 933 q 247 926 249 929 q 242 920 244 924 q 238 913 240 917 q 233 906 235 910 q 228 899 231 903 q 222 890 225 894 q 217 880 219 885 q 211 869 214 875 q 205 858 208 864 q 199 847 201 853 q 192 833 196 840 l 86 881 q 110 926 99 906 q 134 964 122 947 q 158 996 146 981 q 187 1024 169 1011 q 225 1047 204 1038 q 267 1056 246 1056 q 281 1054 274 1056 q 294 1051 288 1053 q 306 1048 300 1050 q 319 1043 313 1046 q 331 1037 325 1040 q 341 1029 336 1033 q 351 1021 346 1025 q 362 1011 357 1017 q 372 1001 367 1006 q 380 991 376 996 q 387 982 383 986 q 396 972 390 978 q 406 960 401 965 q 415 949 411 954 q 425 940 419 944 q 431 933 431 935 l 424 933 q 428 938 424 935 q 437 946 432 940 q 444 953 442 951 q 448 958 446 956 q 452 965 450 961 q 457 972 454 968 q 462 978 460 975 q 467 986 464 982 q 472 995 469 990 q 478 1005 475 1000 q 483 1015 481 1010 q 490 1026 486 1021 q 496 1038 493 1032 q 503 1051 499 1044 l 608 1004 q 584 958 596 979 q 560 921 572 938 q 537 889 549 904 q 508 860 525 874 q 469 838 490 846 q 428 829 449 829 z "},"":{"ha":694,"x_min":104,"x_max":590,"o":"m 104 0 l 104 122 l 278 122 l 278 899 l 104 899 l 104 1021 l 590 1021 l 590 899 l 417 899 l 417 122 l 590 122 l 590 0 l 104 0 m 139 1178 l 139 1281 l 556 1281 l 556 1178 l 139 1178 z "},"":{"ha":694,"x_min":104,"x_max":590,"o":"m 104 0 l 104 122 l 288 122 l 288 600 l 124 600 l 124 722 l 426 722 l 426 122 l 590 122 l 590 0 l 104 0 m 139 879 l 139 982 l 556 982 l 556 879 l 139 879 z "},"":{"ha":694,"x_min":104,"x_max":590,"o":"m 104 0 l 104 122 l 278 122 l 278 899 l 104 899 l 104 1021 l 590 1021 l 590 899 l 417 899 l 417 122 l 590 122 l 590 0 l 104 0 m 347 1132 q 291 1135 319 1132 q 236 1149 263 1139 q 188 1177 210 1160 q 149 1219 165 1194 q 127 1271 133 1243 q 121 1326 121 1299 l 240 1326 q 248 1288 240 1307 q 272 1256 256 1268 q 308 1240 288 1244 q 347 1236 328 1236 q 387 1240 367 1236 q 423 1256 407 1244 q 447 1288 439 1268 q 454 1326 454 1307 l 574 1326 q 567 1271 574 1299 q 545 1219 561 1243 q 507 1177 529 1194 q 458 1149 485 1160 q 403 1135 432 1139 q 347 1132 375 1132 z "},"":{"ha":694,"x_min":104,"x_max":590,"o":"m 104 0 l 104 122 l 288 122 l 288 600 l 124 600 l 124 722 l 426 722 l 426 122 l 590 122 l 590 0 l 104 0 m 347 833 q 291 837 319 833 q 236 851 263 840 q 188 878 210 861 q 149 920 165 896 q 127 972 133 944 q 121 1028 121 1000 l 240 1028 q 248 989 240 1008 q 272 958 256 969 q 308 942 288 946 q 347 938 328 938 q 387 942 367 938 q 423 958 407 946 q 447 989 439 969 q 454 1028 454 1008 l 574 1028 q 567 972 574 1000 q 545 920 561 944 q 507 878 529 896 q 458 851 485 861 q 403 837 432 840 q 347 833 375 833 z "},"":{"ha":694,"x_min":104,"x_max":608,"o":"m 104 0 l 104 122 l 278 122 l 278 899 l 104 899 l 104 1021 l 590 1021 l 590 899 l 417 899 l 417 122 l 590 122 l 590 0 l 104 0 m 558 -310 q 516 -306 538 -310 q 474 -296 494 -303 q 436 -277 454 -289 q 405 -249 418 -265 q 385 -211 392 -232 q 379 -169 379 -190 q 399 -90 379 -128 q 447 -24 418 -53 q 513 26 476 6 q 590 57 550 46 l 590 0 q 555 -27 571 -11 q 527 -62 539 -43 q 507 -103 515 -82 q 499 -146 499 -124 q 504 -172 499 -160 q 520 -192 510 -185 q 544 -203 531 -200 q 571 -206 557 -206 q 589 -204 579 -206 q 608 -200 599 -203 l 608 -304 q 583 -308 596 -307 q 558 -310 571 -310 z "},"":{"ha":694,"x_min":104,"x_max":608,"o":"m 104 0 l 104 122 l 288 122 l 288 600 l 124 600 l 124 722 l 426 722 l 426 122 l 590 122 l 590 0 l 104 0 m 354 826 q 313 833 333 826 q 277 853 292 839 q 256 889 263 868 q 250 931 250 910 q 256 972 250 951 q 277 1008 263 993 q 313 1028 292 1022 q 354 1035 333 1035 q 396 1028 375 1035 q 431 1008 417 1022 q 452 972 446 993 q 458 931 458 951 q 452 889 458 910 q 431 853 446 868 q 396 833 417 839 q 354 826 375 826 m 558 -310 q 516 -306 538 -310 q 474 -296 494 -303 q 436 -277 454 -289 q 405 -249 418 -265 q 385 -211 392 -232 q 379 -169 379 -190 q 399 -90 379 -128 q 447 -24 418 -53 q 513 26 476 6 q 590 57 550 46 l 590 0 q 555 -27 571 -11 q 527 -62 539 -43 q 507 -103 515 -82 q 499 -146 499 -124 q 504 -172 499 -160 q 520 -192 510 -185 q 544 -203 531 -200 q 571 -206 557 -206 q 589 -204 579 -206 q 608 -200 599 -203 l 608 -304 q 583 -308 596 -307 q 558 -310 571 -310 z "},"":{"ha":694,"x_min":104,"x_max":590,"o":"m 104 0 l 104 122 l 278 122 l 278 899 l 104 899 l 104 1021 l 590 1021 l 590 899 l 417 899 l 417 122 l 590 122 l 590 0 l 104 0 m 347 1125 q 306 1131 326 1125 q 270 1152 285 1138 q 249 1188 256 1167 q 243 1229 243 1208 q 249 1271 243 1250 q 270 1306 256 1292 q 306 1327 285 1321 q 347 1333 326 1333 q 389 1327 368 1333 q 424 1306 410 1321 q 445 1271 439 1292 q 451 1229 451 1250 q 445 1188 451 1208 q 424 1152 439 1167 q 389 1131 410 1138 q 347 1125 368 1125 z "},"":{"ha":694,"x_min":104,"x_max":590,"o":"m 104 0 l 104 122 l 288 122 l 288 600 l 124 600 l 124 722 l 426 722 l 426 122 l 590 122 l 590 0 l 104 0 z "},"":{"ha":694,"x_min":60,"x_max":672,"o":"m 315 -11 q 247 -5 281 -11 q 182 18 213 1 q 128 60 151 35 q 89 117 104 86 q 67 181 74 147 q 60 250 60 215 l 60 260 l 199 260 l 199 254 q 205 202 199 228 q 226 155 211 176 q 265 122 242 133 q 315 111 289 111 q 353 117 335 111 q 385 137 371 124 q 408 167 399 150 q 422 202 417 183 q 430 240 428 221 q 432 278 432 258 l 432 899 l 258 899 l 258 1021 l 571 1021 l 571 278 q 566 205 571 242 q 547 135 561 168 q 510 72 533 101 q 455 24 486 43 q 388 -3 424 4 q 315 -11 351 -11 m 336 1117 l 261 1168 l 390 1360 l 543 1360 l 672 1168 l 597 1117 l 467 1269 l 336 1117 z "},"":{"ha":694,"x_min":13,"x_max":631,"o":"m 257 -310 q 195 -305 226 -310 q 135 -286 164 -300 q 82 -251 106 -272 q 43 -202 58 -229 q 20 -144 28 -175 q 13 -81 13 -112 l 151 -81 q 158 -123 151 -103 q 180 -158 165 -143 q 215 -181 194 -174 q 257 -187 236 -187 q 294 -181 276 -187 q 324 -160 311 -174 q 345 -130 338 -147 q 358 -94 353 -112 q 364 -58 363 -76 q 365 -21 365 -39 l 365 600 l 192 600 l 192 722 l 504 722 l 504 -21 q 499 -92 504 -57 q 481 -162 494 -128 q 447 -225 468 -196 q 394 -274 425 -254 q 328 -301 364 -293 q 257 -310 293 -310 m 293 818 l 218 869 l 347 1061 l 500 1061 l 629 869 l 554 818 l 424 971 l 293 818 z "},"":{"ha":694,"x_min":106,"x_max":631,"o":"m 481 0 l 293 424 l 244 338 l 244 0 l 106 0 l 106 1021 l 244 1021 l 244 582 l 476 1021 l 631 1021 l 368 557 l 631 0 l 481 0 m 332 -353 l 274 -297 q 304 -260 292 -281 q 325 -215 317 -239 q 302 -206 313 -212 q 285 -190 292 -200 q 275 -167 278 -179 q 272 -143 272 -154 q 276 -112 272 -128 q 292 -87 281 -97 q 317 -72 303 -76 q 347 -67 332 -67 q 377 -72 363 -67 q 403 -87 392 -76 q 418 -112 414 -97 q 422 -143 422 -128 q 417 -201 422 -172 q 400 -258 411 -231 q 372 -308 389 -285 q 332 -353 354 -332 z "},"":{"ha":694,"x_min":106,"x_max":629,"o":"m 472 0 l 306 286 l 244 204 l 244 0 l 106 0 l 106 1021 l 244 1021 l 244 403 l 467 722 l 629 722 l 383 392 l 629 0 l 472 0 m 332 -353 l 274 -297 q 304 -260 292 -281 q 325 -215 317 -239 q 302 -206 313 -212 q 285 -190 292 -200 q 275 -167 278 -179 q 272 -143 272 -154 q 276 -112 272 -128 q 292 -87 281 -97 q 317 -72 303 -76 q 347 -67 332 -67 q 377 -72 363 -67 q 403 -87 392 -76 q 418 -112 414 -97 q 422 -143 422 -128 q 417 -201 422 -172 q 400 -258 411 -231 q 372 -308 389 -285 q 332 -353 354 -332 z "},"":{"ha":694,"x_min":106,"x_max":629,"o":"m 472 0 l 306 286 l 244 204 l 244 0 l 106 0 l 106 722 l 244 722 l 244 403 l 467 722 l 629 722 l 383 392 l 629 0 l 472 0 z "},"":{"ha":694,"x_min":99,"x_max":619,"o":"m 125 0 l 125 1021 l 264 1021 l 264 122 l 619 122 l 619 0 l 125 0 m 176 1100 l 99 1164 l 268 1365 l 364 1288 l 176 1100 z "},"":{"ha":694,"x_min":104,"x_max":590,"o":"m 104 0 l 104 122 l 288 122 l 288 899 l 124 899 l 124 1021 l 426 1021 l 426 122 l 590 122 l 590 0 l 104 0 m 336 1100 l 258 1164 l 428 1365 l 524 1288 l 336 1100 z "},"":{"ha":694,"x_min":125,"x_max":619,"o":"m 125 0 l 125 1021 l 264 1021 l 264 122 l 619 122 l 619 0 l 125 0 m 332 -353 l 274 -297 q 304 -260 292 -281 q 325 -215 317 -239 q 302 -206 313 -212 q 285 -190 292 -200 q 275 -167 278 -179 q 272 -143 272 -154 q 276 -112 272 -128 q 292 -87 281 -97 q 317 -72 303 -76 q 347 -67 332 -67 q 377 -72 363 -67 q 403 -87 392 -76 q 418 -112 414 -97 q 422 -143 422 -128 q 417 -201 422 -172 q 400 -258 411 -231 q 372 -308 389 -285 q 332 -353 354 -332 z "},"":{"ha":694,"x_min":104,"x_max":590,"o":"m 104 0 l 104 122 l 288 122 l 288 899 l 124 899 l 124 1021 l 426 1021 l 426 122 l 590 122 l 590 0 l 104 0 m 342 -353 l 283 -297 q 314 -260 301 -281 q 335 -215 326 -239 q 312 -206 322 -212 q 294 -190 301 -200 q 285 -167 288 -179 q 282 -143 282 -154 q 286 -112 282 -128 q 301 -87 290 -97 q 327 -72 313 -76 q 357 -67 342 -67 q 387 -72 372 -67 q 413 -87 401 -76 q 428 -112 424 -97 q 432 -143 432 -128 q 426 -201 432 -172 q 410 -258 421 -231 q 381 -308 399 -285 q 342 -353 364 -332 z "},"":{"ha":694,"x_min":125,"x_max":621,"o":"m 531 783 l 472 839 q 503 876 490 856 q 524 919 515 896 q 501 928 511 922 q 483 945 490 935 q 474 968 476 956 q 471 993 471 981 q 475 1023 471 1008 q 490 1048 479 1038 q 516 1063 501 1058 q 546 1068 531 1068 q 576 1063 561 1068 q 601 1048 590 1058 q 617 1023 613 1038 q 621 993 621 1008 q 615 934 621 963 q 599 878 610 906 q 570 826 588 850 q 531 783 553 803 m 125 0 l 125 1021 l 264 1021 l 264 122 l 619 122 l 619 0 l 125 0 z "},"":{"ha":694,"x_min":104,"x_max":647,"o":"m 557 783 l 499 839 q 529 876 517 856 q 550 919 542 896 q 527 928 538 922 q 510 945 517 935 q 500 968 503 956 q 497 993 497 981 q 501 1023 497 1008 q 517 1048 506 1038 q 542 1063 528 1058 q 572 1068 557 1068 q 602 1063 588 1068 q 628 1048 617 1058 q 643 1023 639 1038 q 647 993 647 1008 q 642 934 647 963 q 625 878 636 906 q 597 826 614 850 q 557 783 579 803 m 104 0 l 104 122 l 288 122 l 288 899 l 124 899 l 124 1021 l 426 1021 l 426 122 l 590 122 l 590 0 l 104 0 z "},"":{"ha":694,"x_min":125,"x_max":619,"o":"m 125 0 l 125 1021 l 264 1021 l 264 122 l 619 122 l 619 0 l 125 0 m 461 456 q 415 463 438 456 q 376 486 393 469 q 353 525 360 503 q 346 571 346 547 q 353 617 346 594 q 376 656 360 639 q 415 679 393 672 q 461 686 438 686 q 507 679 485 686 q 546 656 529 672 q 569 617 563 639 q 576 571 576 594 q 569 525 576 547 q 546 486 563 503 q 507 463 529 469 q 461 456 485 456 z "},"":{"ha":694,"x_min":51,"x_max":629,"o":"m 51 0 l 51 122 l 235 122 l 235 899 l 71 899 l 71 1021 l 374 1021 l 374 122 l 538 122 l 538 0 l 51 0 m 513 456 q 467 463 489 456 q 428 486 444 469 q 404 525 411 503 q 397 571 397 547 q 404 617 397 594 q 428 656 411 639 q 467 679 444 672 q 513 686 489 686 q 558 679 536 686 q 597 656 581 672 q 621 617 614 639 q 628 571 628 594 q 621 525 628 547 q 597 486 614 503 q 558 463 581 469 q 513 456 536 456 z "},"":{"ha":694,"x_min":17,"x_max":619,"o":"m 125 0 l 125 460 l 67 431 l 17 518 l 125 572 l 125 1021 l 264 1021 l 264 643 l 406 713 l 456 625 l 264 529 l 264 122 l 619 122 l 619 0 l 125 0 z "},"":{"ha":694,"x_min":104,"x_max":590,"o":"m 104 0 l 104 122 l 288 122 l 288 439 l 188 389 l 138 478 l 288 553 l 288 899 l 124 899 l 124 1021 l 426 1021 l 426 622 l 526 672 l 576 583 l 426 508 l 426 122 l 590 122 l 590 0 l 104 0 z "},"":{"ha":694,"x_min":83,"x_max":611,"o":"m 83 0 l 83 1021 l 236 1021 l 493 242 q 485 334 489 288 q 477 427 481 381 q 473 520 474 474 q 472 613 472 567 l 472 1021 l 611 1021 l 611 0 l 458 0 l 201 779 q 210 687 206 733 q 217 594 214 640 q 222 501 221 547 q 222 408 222 454 l 222 0 l 83 0 m 329 1100 l 251 1164 l 421 1365 l 517 1288 l 329 1100 z "},"":{"ha":694,"x_min":83,"x_max":611,"o":"m 83 0 l 83 722 l 222 722 l 222 594 q 250 650 233 624 q 291 696 267 676 q 345 724 315 715 q 406 733 375 733 q 472 723 439 733 q 528 690 504 713 q 569 638 553 668 q 595 576 586 608 q 608 511 604 544 q 611 444 611 478 l 611 0 l 472 0 l 472 444 q 470 483 472 464 q 462 522 468 503 q 445 558 456 540 q 420 588 435 575 q 386 606 406 600 q 347 611 367 611 q 308 606 328 611 q 274 588 289 600 q 249 558 260 575 q 233 522 239 540 q 224 483 226 503 q 222 444 222 464 l 222 0 l 83 0 m 329 801 l 251 865 l 421 1067 l 517 989 l 329 801 z "},"":{"ha":694,"x_min":83,"x_max":611,"o":"m 83 0 l 83 1021 l 236 1021 l 493 242 q 485 334 489 288 q 477 427 481 381 q 473 520 474 474 q 472 613 472 567 l 472 1021 l 611 1021 l 611 0 l 458 0 l 201 779 q 210 687 206 733 q 217 594 214 640 q 222 501 221 547 q 222 408 222 454 l 222 0 l 83 0 m 332 -353 l 274 -297 q 304 -260 292 -281 q 325 -215 317 -239 q 302 -206 313 -212 q 285 -190 292 -200 q 275 -167 278 -179 q 272 -143 272 -154 q 276 -112 272 -128 q 292 -87 281 -97 q 317 -72 303 -76 q 347 -67 332 -67 q 377 -72 363 -67 q 403 -87 392 -76 q 418 -112 414 -97 q 422 -143 422 -128 q 417 -201 422 -172 q 400 -258 411 -231 q 372 -308 389 -285 q 332 -353 354 -332 z "},"":{"ha":694,"x_min":83,"x_max":611,"o":"m 83 0 l 83 722 l 222 722 l 222 594 q 250 650 233 624 q 291 696 267 676 q 345 724 315 715 q 406 733 375 733 q 472 723 439 733 q 528 690 504 713 q 569 638 553 668 q 595 576 586 608 q 608 511 604 544 q 611 444 611 478 l 611 0 l 472 0 l 472 444 q 470 483 472 464 q 462 522 468 503 q 445 558 456 540 q 420 588 435 575 q 386 606 406 600 q 347 611 367 611 q 308 606 328 611 q 274 588 289 600 q 249 558 260 575 q 233 522 239 540 q 224 483 226 503 q 222 444 222 464 l 222 0 l 83 0 m 332 -353 l 274 -297 q 304 -260 292 -281 q 325 -215 317 -239 q 302 -206 313 -212 q 285 -190 292 -200 q 275 -167 278 -179 q 272 -143 272 -154 q 276 -112 272 -128 q 292 -87 281 -97 q 317 -72 303 -76 q 347 -67 332 -67 q 377 -72 363 -67 q 403 -87 392 -76 q 418 -112 414 -97 q 422 -143 422 -128 q 417 -201 422 -172 q 400 -258 411 -231 q 372 -308 389 -285 q 332 -353 354 -332 z "},"":{"ha":694,"x_min":83,"x_max":611,"o":"m 83 0 l 83 1021 l 236 1021 l 493 242 q 485 334 489 288 q 477 427 481 381 q 473 520 474 474 q 472 613 472 567 l 472 1021 l 611 1021 l 611 0 l 458 0 l 201 779 q 210 687 206 733 q 217 594 214 640 q 222 501 221 547 q 222 408 222 454 l 222 0 l 83 0 m 271 1132 l 142 1324 l 217 1374 l 347 1221 l 478 1374 l 553 1324 l 424 1132 l 271 1132 z "},"":{"ha":694,"x_min":83,"x_max":611,"o":"m 83 0 l 83 722 l 222 722 l 222 594 q 250 650 233 624 q 291 696 267 676 q 345 724 315 715 q 406 733 375 733 q 472 723 439 733 q 528 690 504 713 q 569 638 553 668 q 595 576 586 608 q 608 511 604 544 q 611 444 611 478 l 611 0 l 472 0 l 472 444 q 470 483 472 464 q 462 522 468 503 q 445 558 456 540 q 420 588 435 575 q 386 606 406 600 q 347 611 367 611 q 308 606 328 611 q 274 588 289 600 q 249 558 260 575 q 233 522 239 540 q 224 483 226 503 q 222 444 222 464 l 222 0 l 83 0 m 271 833 l 142 1025 l 217 1075 l 347 922 l 478 1075 l 553 1025 l 424 833 l 271 833 z "},"":{"ha":694,"x_min":8,"x_max":611,"o":"m 83 0 l 83 722 l 222 722 l 222 594 q 250 650 233 624 q 291 696 267 676 q 345 724 315 715 q 406 733 375 733 q 472 723 439 733 q 528 690 504 713 q 569 638 553 668 q 595 576 586 608 q 608 511 604 544 q 611 444 611 478 l 611 0 l 472 0 l 472 444 q 470 483 472 464 q 462 522 468 503 q 445 558 456 540 q 420 588 435 575 q 386 606 406 600 q 347 611 367 611 q 308 606 328 611 q 274 588 289 600 q 249 558 260 575 q 233 522 239 540 q 224 483 226 503 q 222 444 222 464 l 222 0 l 83 0 m 68 783 l 10 839 q 40 876 28 856 q 61 919 53 896 q 38 928 49 922 q 21 945 28 935 q 11 968 14 956 q 8 993 8 981 q 13 1023 8 1008 q 28 1048 17 1038 q 53 1063 39 1058 q 83 1068 68 1068 q 113 1063 99 1068 q 139 1048 128 1058 q 154 1023 150 1038 q 158 993 158 1008 q 153 934 158 963 q 136 878 147 906 q 108 826 125 850 q 68 783 90 803 z "},"":{"ha":694,"x_min":83,"x_max":611,"o":"m 306 -299 l 306 -176 l 333 -176 q 390 -166 363 -176 q 438 -134 418 -156 q 465 -83 457 -112 q 472 -25 472 -54 l 472 0 l 458 0 l 201 779 q 210 687 206 733 q 217 594 214 640 q 222 501 221 547 q 222 408 222 454 l 222 0 l 83 0 l 83 1021 l 236 1021 l 493 242 q 485 334 489 288 q 477 427 481 381 q 473 520 474 474 q 472 613 472 567 l 472 1021 l 611 1021 l 611 -25 q 604 -99 611 -62 q 581 -169 597 -136 q 537 -228 564 -201 q 476 -270 510 -254 q 407 -292 443 -286 q 333 -299 371 -299 l 306 -299 z "},"":{"ha":694,"x_min":83,"x_max":611,"o":"m 306 -299 l 306 -176 l 333 -176 q 390 -166 363 -176 q 438 -134 418 -156 q 465 -83 457 -112 q 472 -25 472 -54 l 472 444 q 470 483 472 464 q 462 522 468 503 q 445 558 456 540 q 420 588 435 575 q 386 606 406 600 q 347 611 367 611 q 308 606 328 611 q 274 588 289 600 q 249 558 260 575 q 233 522 239 540 q 224 483 226 503 q 222 444 222 464 l 222 0 l 83 0 l 83 722 l 222 722 l 222 594 q 250 650 233 624 q 291 696 267 676 q 345 724 315 715 q 406 733 375 733 q 472 723 439 733 q 528 690 504 713 q 569 638 553 668 q 595 576 586 608 q 608 511 604 544 q 611 444 611 478 l 611 -25 q 604 -99 611 -62 q 581 -169 597 -136 q 537 -228 564 -201 q 476 -270 510 -254 q 407 -292 443 -286 q 333 -299 371 -299 l 306 -299 z "},"":{"ha":694,"x_min":72,"x_max":622,"o":"m 347 -11 q 272 -4 310 -11 q 201 21 235 3 q 142 67 168 39 q 101 131 117 96 q 78 203 85 165 q 72 278 72 240 l 72 743 q 78 818 72 781 q 101 890 85 856 q 142 953 117 925 q 201 1000 168 982 q 272 1025 235 1018 q 347 1032 310 1032 q 422 1025 385 1032 q 493 1000 460 1018 q 552 953 526 982 q 594 890 578 925 q 616 818 610 856 q 622 743 622 781 l 622 278 q 616 203 622 240 q 594 131 610 165 q 552 67 578 96 q 493 21 526 39 q 422 -4 460 3 q 347 -11 385 -11 m 347 111 q 406 124 378 111 q 452 162 435 138 q 476 217 469 186 q 483 278 483 247 l 483 743 q 476 804 483 774 q 452 859 469 835 q 406 897 435 883 q 347 910 378 910 q 288 897 317 910 q 242 859 260 883 q 218 804 225 835 q 211 743 211 774 l 211 278 q 218 217 211 247 q 242 162 225 186 q 288 124 260 138 q 347 111 317 111 m 139 1178 l 139 1281 l 556 1281 l 556 1178 l 139 1178 z "},"":{"ha":694,"x_min":72,"x_max":622,"o":"m 347 -11 q 272 -4 310 -11 q 201 21 235 3 q 142 67 168 39 q 101 131 117 96 q 78 203 85 165 q 72 278 72 240 l 72 444 q 78 519 72 482 q 101 592 85 557 q 142 655 117 626 q 201 701 168 683 q 272 726 235 719 q 347 733 310 733 q 422 726 385 733 q 493 701 460 719 q 552 655 526 683 q 594 592 578 626 q 616 519 610 557 q 622 444 622 482 l 622 278 q 616 203 622 240 q 594 131 610 165 q 552 67 578 96 q 493 21 526 39 q 422 -4 460 3 q 347 -11 385 -11 m 347 111 q 406 124 378 111 q 452 162 435 138 q 476 217 469 186 q 483 278 483 247 l 483 444 q 476 506 483 475 q 452 560 469 536 q 406 598 435 585 q 347 611 378 611 q 288 598 317 611 q 242 560 260 585 q 218 506 225 536 q 211 444 211 475 l 211 278 q 218 217 211 247 q 242 162 225 186 q 288 124 260 138 q 347 111 317 111 m 139 879 l 139 982 l 556 982 l 556 879 l 139 879 z "},"":{"ha":694,"x_min":72,"x_max":622,"o":"m 347 -11 q 272 -4 310 -11 q 201 21 235 3 q 142 67 168 39 q 101 131 117 96 q 78 203 85 165 q 72 278 72 240 l 72 743 q 78 818 72 781 q 101 890 85 856 q 142 953 117 925 q 201 1000 168 982 q 272 1025 235 1018 q 347 1032 310 1032 q 422 1025 385 1032 q 493 1000 460 1018 q 552 953 526 982 q 594 890 578 925 q 616 818 610 856 q 622 743 622 781 l 622 278 q 616 203 622 240 q 594 131 610 165 q 552 67 578 96 q 493 21 526 39 q 422 -4 460 3 q 347 -11 385 -11 m 347 111 q 406 124 378 111 q 452 162 435 138 q 476 217 469 186 q 483 278 483 247 l 483 743 q 476 804 483 774 q 452 859 469 835 q 406 897 435 883 q 347 910 378 910 q 288 897 317 910 q 242 859 260 883 q 218 804 225 835 q 211 743 211 774 l 211 278 q 218 217 211 247 q 242 162 225 186 q 288 124 260 138 q 347 111 317 111 m 347 1132 q 291 1135 319 1132 q 236 1149 263 1139 q 188 1177 210 1160 q 149 1219 165 1194 q 127 1271 133 1243 q 121 1326 121 1299 l 240 1326 q 248 1288 240 1307 q 272 1256 256 1268 q 308 1240 288 1244 q 347 1236 328 1236 q 387 1240 367 1236 q 423 1256 407 1244 q 447 1288 439 1268 q 454 1326 454 1307 l 574 1326 q 567 1271 574 1299 q 545 1219 561 1243 q 507 1177 529 1194 q 458 1149 485 1160 q 403 1135 432 1139 q 347 1132 375 1132 z "},"":{"ha":694,"x_min":72,"x_max":622,"o":"m 347 -11 q 272 -4 310 -11 q 201 21 235 3 q 142 67 168 39 q 101 131 117 96 q 78 203 85 165 q 72 278 72 240 l 72 444 q 78 519 72 482 q 101 592 85 557 q 142 655 117 626 q 201 701 168 683 q 272 726 235 719 q 347 733 310 733 q 422 726 385 733 q 493 701 460 719 q 552 655 526 683 q 594 592 578 626 q 616 519 610 557 q 622 444 622 482 l 622 278 q 616 203 622 240 q 594 131 610 165 q 552 67 578 96 q 493 21 526 39 q 422 -4 460 3 q 347 -11 385 -11 m 347 111 q 406 124 378 111 q 452 162 435 138 q 476 217 469 186 q 483 278 483 247 l 483 444 q 476 506 483 475 q 452 560 469 536 q 406 598 435 585 q 347 611 378 611 q 288 598 317 611 q 242 560 260 585 q 218 506 225 536 q 211 444 211 475 l 211 278 q 218 217 211 247 q 242 162 225 186 q 288 124 260 138 q 347 111 317 111 m 347 833 q 291 837 319 833 q 236 851 263 840 q 188 878 210 861 q 149 920 165 896 q 127 972 133 944 q 121 1028 121 1000 l 240 1028 q 248 989 240 1008 q 272 958 256 969 q 308 942 288 946 q 347 938 328 938 q 387 942 367 938 q 423 958 407 946 q 447 989 439 969 q 454 1028 454 1008 l 574 1028 q 567 972 574 1000 q 545 920 561 944 q 507 878 529 896 q 458 851 485 861 q 403 837 432 840 q 347 833 375 833 z "},"":{"ha":694,"x_min":72,"x_max":650,"o":"m 347 -11 q 272 -4 310 -11 q 201 21 235 3 q 142 67 168 39 q 101 131 117 96 q 78 203 85 165 q 72 278 72 240 l 72 743 q 78 818 72 781 q 101 890 85 856 q 142 953 117 925 q 201 1000 168 982 q 272 1025 235 1018 q 347 1032 310 1032 q 422 1025 385 1032 q 493 1000 460 1018 q 552 953 526 982 q 594 890 578 925 q 616 818 610 856 q 622 743 622 781 l 622 278 q 616 203 622 240 q 594 131 610 165 q 552 67 578 96 q 493 21 526 39 q 422 -4 460 3 q 347 -11 385 -11 m 347 111 q 406 124 378 111 q 452 162 435 138 q 476 217 469 186 q 483 278 483 247 l 483 743 q 476 804 483 774 q 452 859 469 835 q 406 897 435 883 q 347 910 378 910 q 288 897 317 910 q 242 859 260 883 q 218 804 225 835 q 211 743 211 774 l 211 278 q 218 217 211 247 q 242 162 225 186 q 288 124 260 138 q 347 111 317 111 m 446 1099 l 371 1165 l 558 1367 l 650 1286 l 446 1099 m 210 1099 l 135 1165 l 322 1367 l 414 1286 l 210 1099 z "},"":{"ha":694,"x_min":72,"x_max":650,"o":"m 347 -11 q 272 -4 310 -11 q 201 21 235 3 q 142 67 168 39 q 101 131 117 96 q 78 203 85 165 q 72 278 72 240 l 72 444 q 78 519 72 482 q 101 592 85 557 q 142 655 117 626 q 201 701 168 683 q 272 726 235 719 q 347 733 310 733 q 422 726 385 733 q 493 701 460 719 q 552 655 526 683 q 594 592 578 626 q 616 519 610 557 q 622 444 622 482 l 622 278 q 616 203 622 240 q 594 131 610 165 q 552 67 578 96 q 493 21 526 39 q 422 -4 460 3 q 347 -11 385 -11 m 347 111 q 406 124 378 111 q 452 162 435 138 q 476 217 469 186 q 483 278 483 247 l 483 444 q 476 506 483 475 q 452 560 469 536 q 406 598 435 585 q 347 611 378 611 q 288 598 317 611 q 242 560 260 585 q 218 506 225 536 q 211 444 211 475 l 211 278 q 218 217 211 247 q 242 162 225 186 q 288 124 260 138 q 347 111 317 111 m 446 800 l 371 867 l 558 1068 l 650 988 l 446 800 m 210 800 l 135 867 l 322 1068 l 414 988 l 210 800 z "},"":{"ha":694,"x_min":50,"x_max":633,"o":"m 317 0 l 317 1021 l 633 1021 l 633 913 l 440 913 l 440 585 l 606 585 l 606 476 l 440 476 l 440 108 l 633 108 l 633 0 l 317 0 m 317 0 q 243 7 279 0 q 175 31 207 14 q 118 76 143 49 q 78 136 93 103 q 56 206 63 169 q 50 278 50 242 l 50 743 q 56 815 50 779 q 78 885 63 851 q 118 945 93 918 q 175 990 143 972 q 243 1014 207 1007 q 317 1021 279 1021 l 317 913 q 256 899 285 913 q 208 861 226 886 q 182 805 189 836 q 175 743 175 774 l 175 278 q 182 216 175 247 q 208 160 189 185 q 256 122 226 135 q 317 108 285 108 l 317 0 z "},"":{"ha":694,"x_min":50,"x_max":644,"o":"m 229 -11 q 179 -6 204 -11 q 132 13 154 0 q 94 45 110 25 q 67 89 78 65 q 53 138 57 113 q 50 189 50 163 l 50 533 q 53 585 50 560 q 67 633 57 610 q 94 677 78 657 q 132 710 110 697 q 179 728 154 722 q 229 733 204 733 q 292 724 261 733 q 347 696 324 715 q 402 724 371 715 q 465 733 433 733 q 515 728 490 733 q 563 710 540 722 q 601 677 585 697 q 627 633 617 657 q 641 585 638 610 q 644 533 644 560 l 644 307 l 410 307 l 410 189 q 411 159 410 174 q 419 131 413 144 q 437 107 425 117 q 463 97 449 97 q 491 110 479 97 q 508 140 503 124 q 515 172 513 156 q 517 206 517 189 l 517 211 l 642 211 l 642 200 q 638 148 642 174 q 624 98 633 122 q 599 52 614 74 q 562 16 583 31 q 515 -5 540 1 q 463 -11 489 -11 q 401 -2 432 -11 q 347 26 371 7 q 292 -3 322 6 q 229 -11 261 -11 m 410 415 l 519 415 l 519 533 q 517 563 519 549 q 510 592 515 578 q 492 615 504 606 q 465 625 479 625 q 438 615 450 625 q 419 592 425 606 q 412 563 414 578 q 410 533 410 549 l 410 415 m 229 97 q 257 107 244 97 q 275 131 269 117 q 283 159 281 144 q 285 189 285 174 l 285 533 q 283 563 285 549 q 275 592 281 578 q 257 615 269 606 q 229 625 244 625 q 203 615 215 625 q 185 592 190 606 q 177 563 179 578 q 175 533 175 549 l 175 189 q 177 159 175 174 q 185 131 179 144 q 203 107 190 117 q 229 97 215 97 z "},"":{"ha":694,"x_min":83,"x_max":644,"o":"m 494 0 l 306 406 l 222 406 l 222 0 l 83 0 l 83 1021 l 354 1021 q 431 1013 393 1021 q 502 983 469 1004 q 559 932 535 963 q 597 865 583 901 q 617 790 611 829 q 622 714 622 751 q 615 622 622 668 q 585 536 607 576 q 528 465 564 496 q 450 419 493 433 l 644 0 l 494 0 m 222 528 l 354 528 q 397 535 376 528 q 432 556 417 542 q 458 590 447 571 q 474 630 468 610 q 481 671 479 650 q 483 714 483 692 q 481 756 483 735 q 474 797 479 776 q 458 837 468 818 q 432 870 447 856 q 397 892 417 885 q 354 899 376 899 l 222 899 l 222 528 m 329 1100 l 251 1164 l 421 1365 l 517 1288 l 329 1100 z "},"":{"ha":694,"x_min":165,"x_max":633,"o":"m 165 0 l 165 722 l 304 722 l 304 571 q 327 631 314 601 q 361 683 340 660 q 412 720 382 707 q 474 733 442 733 q 525 726 500 733 q 570 701 550 718 q 603 660 590 683 q 622 612 615 638 q 631 560 629 586 q 633 508 633 535 l 494 508 q 492 544 494 526 q 481 577 489 561 q 456 602 472 593 q 424 611 440 611 q 378 599 400 611 q 344 566 357 586 q 324 524 332 546 q 312 478 317 501 q 306 431 307 454 q 304 383 304 407 l 304 0 l 165 0 m 342 801 l 264 865 l 433 1067 l 529 989 l 342 801 z "},"":{"ha":694,"x_min":83,"x_max":644,"o":"m 494 0 l 306 406 l 222 406 l 222 0 l 83 0 l 83 1021 l 354 1021 q 431 1013 393 1021 q 502 983 469 1004 q 559 932 535 963 q 597 865 583 901 q 617 790 611 829 q 622 714 622 751 q 615 622 622 668 q 585 536 607 576 q 528 465 564 496 q 450 419 493 433 l 644 0 l 494 0 m 222 528 l 354 528 q 397 535 376 528 q 432 556 417 542 q 458 590 447 571 q 474 630 468 610 q 481 671 479 650 q 483 714 483 692 q 481 756 483 735 q 474 797 479 776 q 458 837 468 818 q 432 870 447 856 q 397 892 417 885 q 354 899 376 899 l 222 899 l 222 528 m 332 -353 l 274 -297 q 304 -260 292 -281 q 325 -215 317 -239 q 302 -206 313 -212 q 285 -190 292 -200 q 275 -167 278 -179 q 272 -143 272 -154 q 276 -112 272 -128 q 292 -87 281 -97 q 317 -72 303 -76 q 347 -67 332 -67 q 377 -72 363 -67 q 403 -87 392 -76 q 418 -112 414 -97 q 422 -143 422 -128 q 417 -201 422 -172 q 400 -258 411 -231 q 372 -308 389 -285 q 332 -353 354 -332 z "},"":{"ha":694,"x_min":160,"x_max":633,"o":"m 165 0 l 165 722 l 304 722 l 304 571 q 327 631 314 601 q 361 683 340 660 q 412 720 382 707 q 474 733 442 733 q 525 726 500 733 q 570 701 550 718 q 603 660 590 683 q 622 612 615 638 q 631 560 629 586 q 633 508 633 535 l 494 508 q 492 544 494 526 q 481 577 489 561 q 456 602 472 593 q 424 611 440 611 q 378 599 400 611 q 344 566 357 586 q 324 524 332 546 q 312 478 317 501 q 306 431 307 454 q 304 383 304 407 l 304 0 l 165 0 m 219 -353 l 161 -297 q 192 -260 179 -281 q 213 -215 204 -239 q 190 -206 200 -212 q 172 -190 179 -200 q 163 -167 165 -179 q 160 -143 160 -154 q 164 -112 160 -128 q 179 -87 168 -97 q 205 -72 190 -76 q 235 -67 219 -67 q 265 -72 250 -67 q 290 -87 279 -76 q 306 -112 301 -97 q 310 -143 310 -128 q 304 -201 310 -172 q 288 -258 299 -231 q 259 -308 276 -285 q 219 -353 242 -332 z "},"":{"ha":694,"x_min":83,"x_max":644,"o":"m 494 0 l 306 406 l 222 406 l 222 0 l 83 0 l 83 1021 l 354 1021 q 431 1013 393 1021 q 502 983 469 1004 q 559 932 535 963 q 597 865 583 901 q 617 790 611 829 q 622 714 622 751 q 615 622 622 668 q 585 536 607 576 q 528 465 564 496 q 450 419 493 433 l 644 0 l 494 0 m 222 528 l 354 528 q 397 535 376 528 q 432 556 417 542 q 458 590 447 571 q 474 630 468 610 q 481 671 479 650 q 483 714 483 692 q 481 756 483 735 q 474 797 479 776 q 458 837 468 818 q 432 870 447 856 q 397 892 417 885 q 354 899 376 899 l 222 899 l 222 528 m 271 1132 l 142 1324 l 217 1374 l 347 1221 l 478 1374 l 553 1324 l 424 1132 l 271 1132 z "},"":{"ha":694,"x_min":154,"x_max":633,"o":"m 165 0 l 165 722 l 304 722 l 304 571 q 327 631 314 601 q 361 683 340 660 q 412 720 382 707 q 474 733 442 733 q 525 726 500 733 q 570 701 550 718 q 603 660 590 683 q 622 612 615 638 q 631 560 629 586 q 633 508 633 535 l 494 508 q 492 544 494 526 q 481 577 489 561 q 456 602 472 593 q 424 611 440 611 q 378 599 400 611 q 344 566 357 586 q 324 524 332 546 q 312 478 317 501 q 306 431 307 454 q 304 383 304 407 l 304 0 l 165 0 m 283 833 l 154 1025 l 229 1075 l 360 922 l 490 1075 l 565 1025 l 436 833 l 283 833 z "},"":{"ha":694,"x_min":69,"x_max":622,"o":"m 346 -11 q 274 -6 310 -11 q 207 15 239 0 q 148 55 175 31 q 103 110 121 79 q 78 176 86 142 q 69 247 69 211 l 69 260 l 208 260 l 208 253 q 217 198 208 225 q 245 150 226 171 q 291 120 264 129 q 346 111 318 111 q 401 120 374 111 q 447 150 428 129 q 474 198 465 171 q 483 253 483 225 q 469 320 483 288 q 431 377 456 353 q 376 419 407 401 q 315 452 346 436 q 254 486 283 468 q 199 527 225 504 q 151 578 172 550 q 114 637 129 606 q 91 702 99 668 q 83 771 83 736 q 91 840 83 806 q 115 906 99 875 q 156 963 131 938 q 213 1003 182 988 q 279 1026 244 1019 q 349 1032 314 1032 q 418 1026 383 1032 q 484 1004 453 1019 q 540 964 515 989 q 582 908 565 939 q 606 843 599 878 q 614 774 614 808 l 614 761 l 475 761 l 475 768 q 467 821 475 794 q 443 868 460 847 q 401 899 426 889 q 349 910 375 910 q 297 900 322 910 q 254 869 271 890 q 230 822 238 849 q 222 769 222 796 q 236 702 222 735 q 274 644 250 669 q 329 602 299 619 q 390 569 360 585 q 451 535 421 553 q 506 494 481 517 q 553 444 532 471 q 591 385 575 417 q 615 320 607 354 q 622 251 622 286 q 614 180 622 215 q 588 113 606 144 q 544 57 571 82 q 485 17 518 32 q 417 -5 453 1 q 346 -11 382 -11 m 329 1100 l 251 1164 l 421 1365 l 517 1288 l 329 1100 z "},"":{"ha":694,"x_min":81,"x_max":611,"o":"m 346 -11 q 284 -8 315 -11 q 224 6 253 -4 q 167 32 194 15 q 121 73 140 49 q 91 127 101 97 q 81 188 81 157 l 81 197 l 219 197 l 219 193 q 233 154 219 172 q 265 127 246 136 q 304 115 283 118 q 346 111 325 111 q 388 114 367 111 q 427 126 408 117 q 459 152 446 135 q 472 190 472 169 q 458 232 472 213 q 423 263 443 251 q 381 281 403 274 q 338 294 360 288 q 294 309 315 301 q 251 326 272 317 q 211 349 231 336 q 174 376 192 361 q 142 408 157 390 q 117 446 128 425 q 100 489 106 467 q 94 533 94 511 q 104 593 94 564 q 132 647 114 622 q 176 688 150 671 q 230 716 201 706 q 288 730 258 726 q 349 733 318 733 q 409 730 379 733 q 467 716 439 726 q 522 689 496 706 q 565 648 547 672 q 593 594 583 624 q 603 535 603 565 l 603 525 l 464 525 l 464 529 q 453 567 464 549 q 425 594 442 585 q 388 608 408 604 q 349 611 368 611 q 310 608 329 611 q 273 596 290 606 q 244 569 256 586 q 233 533 233 553 q 248 491 233 510 q 282 460 263 472 q 324 442 301 449 q 367 428 346 435 q 411 413 389 421 q 453 396 433 406 q 494 374 474 386 q 531 347 514 363 q 563 315 549 332 q 589 277 578 297 q 606 235 600 257 q 611 189 611 213 q 601 128 611 158 q 571 74 590 97 q 525 33 551 50 q 469 6 499 15 q 408 -8 439 -4 q 346 -11 376 -11 m 329 801 l 251 865 l 421 1067 l 517 989 l 329 801 z "},"":{"ha":694,"x_min":69,"x_max":622,"o":"m 346 -11 q 274 -6 310 -11 q 207 15 239 0 q 148 55 175 31 q 103 110 121 79 q 78 176 86 142 q 69 247 69 211 l 69 260 l 208 260 l 208 253 q 217 198 208 225 q 245 150 226 171 q 291 120 264 129 q 346 111 318 111 q 401 120 374 111 q 447 150 428 129 q 474 198 465 171 q 483 253 483 225 q 469 320 483 288 q 431 377 456 353 q 376 419 407 401 q 315 452 346 436 q 254 486 283 468 q 199 527 225 504 q 151 578 172 550 q 114 637 129 606 q 91 702 99 668 q 83 771 83 736 q 91 840 83 806 q 115 906 99 875 q 156 963 131 938 q 213 1003 182 988 q 279 1026 244 1019 q 349 1032 314 1032 q 418 1026 383 1032 q 484 1004 453 1019 q 540 964 515 989 q 582 908 565 939 q 606 843 599 878 q 614 774 614 808 l 614 761 l 475 761 l 475 768 q 467 821 475 794 q 443 868 460 847 q 401 899 426 889 q 349 910 375 910 q 297 900 322 910 q 254 869 271 890 q 230 822 238 849 q 222 769 222 796 q 236 702 222 735 q 274 644 250 669 q 329 602 299 619 q 390 569 360 585 q 451 535 421 553 q 506 494 481 517 q 553 444 532 471 q 591 385 575 417 q 615 320 607 354 q 622 251 622 286 q 614 180 622 215 q 588 113 606 144 q 544 57 571 82 q 485 17 518 32 q 417 -5 453 1 q 346 -11 382 -11 m 217 1117 l 142 1168 l 271 1360 l 424 1360 l 553 1168 l 478 1117 l 347 1269 l 217 1117 z "},"":{"ha":694,"x_min":81,"x_max":611,"o":"m 346 -11 q 284 -8 315 -11 q 224 6 253 -4 q 167 32 194 15 q 121 73 140 49 q 91 127 101 97 q 81 188 81 157 l 81 197 l 219 197 l 219 193 q 233 154 219 172 q 265 127 246 136 q 304 115 283 118 q 346 111 325 111 q 388 114 367 111 q 427 126 408 117 q 459 152 446 135 q 472 190 472 169 q 458 232 472 213 q 423 263 443 251 q 381 281 403 274 q 338 294 360 288 q 294 309 315 301 q 251 326 272 317 q 211 349 231 336 q 174 376 192 361 q 142 408 157 390 q 117 446 128 425 q 100 489 106 467 q 94 533 94 511 q 104 593 94 564 q 132 647 114 622 q 176 688 150 671 q 230 716 201 706 q 288 730 258 726 q 349 733 318 733 q 409 730 379 733 q 467 716 439 726 q 522 689 496 706 q 565 648 547 672 q 593 594 583 624 q 603 535 603 565 l 603 525 l 464 525 l 464 529 q 453 567 464 549 q 425 594 442 585 q 388 608 408 604 q 349 611 368 611 q 310 608 329 611 q 273 596 290 606 q 244 569 256 586 q 233 533 233 553 q 248 491 233 510 q 282 460 263 472 q 324 442 301 449 q 367 428 346 435 q 411 413 389 421 q 453 396 433 406 q 494 374 474 386 q 531 347 514 363 q 563 315 549 332 q 589 277 578 297 q 606 235 600 257 q 611 189 611 213 q 601 128 611 158 q 571 74 590 97 q 525 33 551 50 q 469 6 499 15 q 408 -8 439 -4 q 346 -11 376 -11 m 217 818 l 142 869 l 271 1061 l 424 1061 l 553 869 l 478 818 l 347 971 l 217 818 z "},"":{"ha":694,"x_min":69,"x_max":622,"o":"m 346 -11 q 274 -6 310 -11 q 207 15 239 0 q 148 55 175 31 q 103 110 121 79 q 78 176 86 142 q 69 247 69 211 l 69 260 l 208 260 l 208 253 q 217 198 208 225 q 245 150 226 171 q 291 120 264 129 q 346 111 318 111 q 401 120 374 111 q 447 150 428 129 q 474 198 465 171 q 483 253 483 225 q 469 320 483 288 q 431 377 456 353 q 376 419 407 401 q 315 452 346 436 q 254 486 283 468 q 199 527 225 504 q 151 578 172 550 q 114 637 129 606 q 91 702 99 668 q 83 771 83 736 q 91 840 83 806 q 115 906 99 875 q 156 963 131 938 q 213 1003 182 988 q 279 1026 244 1019 q 349 1032 314 1032 q 418 1026 383 1032 q 484 1004 453 1019 q 540 964 515 989 q 582 908 565 939 q 606 843 599 878 q 614 774 614 808 l 614 761 l 475 761 l 475 768 q 467 821 475 794 q 443 868 460 847 q 401 899 426 889 q 349 910 375 910 q 297 900 322 910 q 254 869 271 890 q 230 822 238 849 q 222 769 222 796 q 236 702 222 735 q 274 644 250 669 q 329 602 299 619 q 390 569 360 585 q 451 535 421 553 q 506 494 481 517 q 553 444 532 471 q 591 385 575 417 q 615 320 607 354 q 622 251 622 286 q 614 180 622 215 q 588 113 606 144 q 544 57 571 82 q 485 17 518 32 q 417 -5 453 1 q 346 -11 382 -11 m 208 -306 l 208 -201 l 347 -201 q 366 -200 357 -201 q 383 -194 375 -199 q 394 -181 390 -189 q 399 -162 399 -172 q 395 -144 399 -153 q 384 -129 392 -135 q 367 -122 376 -124 q 347 -119 357 -119 l 288 -119 l 288 111 l 407 111 l 407 -58 q 444 -75 426 -64 q 474 -102 461 -86 q 492 -138 486 -118 q 497 -179 497 -158 q 486 -233 497 -207 q 453 -276 475 -260 q 403 -299 431 -293 q 347 -306 375 -306 l 208 -306 z "}}}
